<?xml version="1.0" encoding="utf-8"?>
<!-- Generator: Adobe Illustrator 25.2.0, SVG Export Plug-In . SVG Version: 6.00 Build 0)  -->
<svg version="1.1" xmlns="http://www.w3.org/2000/svg" xmlns:xlink="http://www.w3.org/1999/xlink" x="0px" y="0px"
	 viewBox="0 0 750 500" style="enable-background:new 0 0 750 500;" xml:space="preserve">
<style type="text/css">
	.st0{opacity:0.37;fill:url(#SVGID_1_);}
	.st1{opacity:0.37;fill:url(#SVGID_2_);}
	.st2{fill:url(#SVGID_3_);}
	.st3{fill:url(#SVGID_4_);}
	.st4{fill:url(#SVGID_5_);}
	.st5{fill:url(#SVGID_6_);}
	.st6{fill:url(#SVGID_7_);}
	.st7{fill:url(#SVGID_8_);}
	.st8{fill:url(#SVGID_9_);}
	.st9{fill:#0E0D1B;}
	.st10{fill:url(#SVGID_10_);}
	.st11{fill:url(#SVGID_11_);}
	.st12{fill:url(#SVGID_12_);}
	.st13{fill:url(#SVGID_13_);}
	.st14{fill:url(#SVGID_14_);}
	.st15{fill:url(#SVGID_15_);}
	.st16{fill:url(#SVGID_16_);}
	.st17{fill:#461C78;}
	.st18{fill:url(#SVGID_17_);}
	.st19{fill:url(#SVGID_18_);}
	.st20{fill:url(#SVGID_19_);}
	.st21{fill:url(#SVGID_20_);}
	.st22{fill:url(#SVGID_21_);}
	.st23{opacity:0.38;fill:url(#SVGID_22_);}
	.st24{fill:url(#SVGID_23_);}
	.st25{fill:#EF7D30;}
	.st26{fill:#FFFFFF;}
	.st27{opacity:0.5;fill:url(#SVGID_24_);}
	.st28{fill:url(#SVGID_25_);}
	.st29{fill:url(#SVGID_26_);}
	.st30{fill:#E4FCFF;}
	.st31{fill:url(#SVGID_27_);}
	.st32{fill:url(#SVGID_28_);}
	.st33{fill:#2A2A2A;}
	.st34{fill:url(#SVGID_29_);}
</style>
<g id="BACKGROUND">
</g>
<g id="OBJECTS">
	<g>
		<linearGradient id="SVGID_1_" gradientUnits="userSpaceOnUse" x1="392.3222" y1="391.1873" x2="408.502" y2="146.8727">
			<stop  offset="0" style="stop-color:#3AC8CC"/>
			<stop  offset="0.3486" style="stop-color:#3AC5CE"/>
			<stop  offset="0.5767" style="stop-color:#3ABDD6"/>
			<stop  offset="0.7703" style="stop-color:#3BAEE2"/>
			<stop  offset="0.9436" style="stop-color:#3C99F4"/>
			<stop  offset="1" style="stop-color:#3C90FB"/>
		</linearGradient>
		<path class="st0" d="M208.6,377.2h-51.5c-13.8-14.3-17.5-37.1-9.2-55.2c7.8-17.2,24.7-28.6,34.9-44.6
			c21.8-34,11.3-84.8,40.8-112.3c14.8-13.8,36.1-17.7,56.2-19.3c20.1-1.6,40.9-1.6,59.6-9.4c23-9.7,40.3-30.4,63.9-38.2
			c26.6-8.8,58.3,2.2,73.9,25.4c9.7,14.6,13.4,32.9,24.9,46.1c18.6,21.4,51.3,23,74.4,39.3c15.9,11.2,26.6,29.4,28.7,48.7
			c2.5,23.3-6.4,49.8,7.6,68.6c6.8,9.2,17.9,14.3,25.2,23.1c7.3,8.7,9.4,16.7,7.1,27.8H208.6z"/>
		<linearGradient id="SVGID_2_" gradientUnits="userSpaceOnUse" x1="405.4795" y1="391.1873" x2="421.6593" y2="146.8727">
			<stop  offset="0" style="stop-color:#3AC8CC"/>
			<stop  offset="0.3486" style="stop-color:#3AC5CE"/>
			<stop  offset="0.5767" style="stop-color:#3ABDD6"/>
			<stop  offset="0.7703" style="stop-color:#3BAEE2"/>
			<stop  offset="0.9436" style="stop-color:#3C99F4"/>
			<stop  offset="1" style="stop-color:#3C90FB"/>
		</linearGradient>
		<path class="st1" d="M221.7,377.2h-51.5c-13.8-14.3-17.5-37.1-9.2-55.2c7.8-17.2,24.7-28.6,34.9-44.6
			c21.8-34,11.3-84.8,40.8-112.3c14.8-13.8,36.1-17.7,56.2-19.3c20.1-1.6,40.9-1.6,59.6-9.4c23-9.7,40.3-30.4,63.9-38.2
			c26.6-8.8,58.3,2.2,73.9,25.4c9.7,14.6,13.4,32.9,24.9,46.1c18.6,21.4,51.3,23,74.4,39.3c15.9,11.2,26.6,29.4,28.7,48.7
			c2.5,23.3-6.4,49.8,7.6,68.6c6.8,9.2,17.9,14.3,25.2,23.1c7.3,8.7,9.4,16.7,7.1,27.8H221.7z"/>
	</g>
	<linearGradient id="SVGID_3_" gradientUnits="userSpaceOnUse" x1="243.0761" y1="201.6903" x2="243.0761" y2="159.0835">
		<stop  offset="0" style="stop-color:#F5DFCF"/>
		<stop  offset="4.856092e-02" style="stop-color:#F7E6D9"/>
		<stop  offset="0.164" style="stop-color:#FBF1EA"/>
		<stop  offset="0.3058" style="stop-color:#FDF9F6"/>
		<stop  offset="0.501" style="stop-color:#FFFEFD"/>
		<stop  offset="1" style="stop-color:#FFFFFF"/>
	</linearGradient>
	<path class="st2" d="M340.2,200.9l-2.1,0.1H146.6l-0.5,0.1c-1.9-12.7,8-25.6,20.6-29c10.9-3,23.7-0.3,32.9-7
		c8.2-6,10.2-17.2,15.6-25.8c3.3-5.4,8.1-9.9,13.7-12.8c7-3.8,15.7-5.1,22.8-1.7c12.7,6,15.1,22.8,23.6,34c1.9,2.5,4.3,4.8,7.3,5.7
		c2.8,0.8,5.8,0.2,8.6-0.3c9.4-1.7,20.6-1.5,26.4,6c2.7,3.5,3.7,8.1,5.2,12.3c1.5,4.2,4,8.5,8.2,10c2,0.7,4.3,0.7,6.1,1.9
		C339.4,195.7,340.1,198.2,340.2,200.9z"/>
	<linearGradient id="SVGID_4_" gradientUnits="userSpaceOnUse" x1="535.1795" y1="231.5993" x2="537.8762" y2="190.0712">
		<stop  offset="0" style="stop-color:#F5DFCF"/>
		<stop  offset="4.856092e-02" style="stop-color:#F7E6D9"/>
		<stop  offset="0.164" style="stop-color:#FBF1EA"/>
		<stop  offset="0.3058" style="stop-color:#FDF9F6"/>
		<stop  offset="0.501" style="stop-color:#FFFEFD"/>
		<stop  offset="1" style="stop-color:#FFFFFF"/>
	</linearGradient>
	<path class="st3" d="M648.2,225.1H424.9c-1.8-2.3-2-6-0.7-8.7c1.6-3.7,5.1-6.1,8.5-8.2c3.4-2.1,7.1-4,9.7-7
		c4.9-5.9,4.6-14.3,5.7-21.9c1.3-9,5.1-17.9,11.9-24c2.7-2.4,5.8-4.3,9.1-5.8c9.4-4.4,20.9-5.4,29.7,0c8.4,5.2,12.5,15.2,19.8,21.9
		c1.7,1.6,3.7,3,6,3.5c6.5,1.5,12.1-4.4,17-9c7-6.5,16.3-11.3,25.7-10.1c11.1,1.4,19.7,11,23.9,21.3c1.8,4.3,3.1,9.1,6.6,12.2
		c9,7.9,24.1-1,34.6,4.8c3.9,2.2,6.6,6.1,8.7,10C644.4,210.5,646.9,217.7,648.2,225.1z"/>
	<g>
		<linearGradient id="SVGID_5_" gradientUnits="userSpaceOnUse" x1="222.6643" y1="304.2396" x2="335.7984" y2="304.2396">
			<stop  offset="0" style="stop-color:#3AC8CC"/>
			<stop  offset="0.3486" style="stop-color:#3AC5CE"/>
			<stop  offset="0.5767" style="stop-color:#3ABDD6"/>
			<stop  offset="0.7703" style="stop-color:#3BAEE2"/>
			<stop  offset="0.9436" style="stop-color:#3C99F4"/>
			<stop  offset="1" style="stop-color:#3C90FB"/>
		</linearGradient>
		<path class="st4" d="M335.8,348.9h-16.1v28.2h-38.9v-28.2h-58.2V320l60.7-88.7h36.4v88.2h16.1V348.9z M280.8,319.5v-17
			c0-3.2,0.1-7.5,0.3-12.9c0.2-5.4,0.4-8.3,0.5-8.5h-1.1c-2.3,5.1-4.8,9.9-7.7,14.4l-16.2,24H280.8z"/>
		<linearGradient id="SVGID_6_" gradientUnits="userSpaceOnUse" x1="269.6361" y1="386.7747" x2="268.5574" y2="331.7635">
			<stop  offset="0" style="stop-color:#F5DFCF"/>
			<stop  offset="4.856092e-02" style="stop-color:#F7E6D9"/>
			<stop  offset="0.164" style="stop-color:#FBF1EA"/>
			<stop  offset="0.3058" style="stop-color:#FDF9F6"/>
			<stop  offset="0.501" style="stop-color:#FFFEFD"/>
			<stop  offset="1" style="stop-color:#FFFFFF"/>
		</linearGradient>
		<path class="st5" d="M325.2,348.9h-16.1v28.2h-38.9v-28.2H212V320l60.7-88.7h36.4v88.2h16.1V348.9z M270.2,319.5v-17
			c0-3.2,0.1-7.5,0.3-12.9c0.2-5.4,0.4-8.3,0.5-8.5H270c-2.3,5.1-4.8,9.9-7.7,14.4l-16.2,24H270.2z"/>
	</g>
	<g>
		
			<linearGradient id="SVGID_7_" gradientUnits="userSpaceOnUse" x1="465.6563" y1="315.5955" x2="578.7941" y2="315.5955" gradientTransform="matrix(0.9818 -0.1899 0.1899 0.9818 -47.317 104.3219)">
			<stop  offset="0" style="stop-color:#3AC8CC"/>
			<stop  offset="0.3486" style="stop-color:#3AC5CE"/>
			<stop  offset="0.5767" style="stop-color:#3ABDD6"/>
			<stop  offset="0.7703" style="stop-color:#3BAEE2"/>
			<stop  offset="0.9436" style="stop-color:#3C99F4"/>
			<stop  offset="1" style="stop-color:#3C90FB"/>
		</linearGradient>
		<path class="st6" d="M589.7,349.9l-5.6-28.9l-10.4,2l-5.3,1l-16.7-86.6l-35.8,6.9L473.1,343l5.5,28.4l57.1-11l3.2,16.8h39.6
			l-4.7-24.2l5.3-1L589.7,349.9z M519.7,333.5l-13.2,2.5l9.4-22.2l1.9-4.5c2-4.9,3.6-10.1,4.8-15.6l1.1-0.2
			c-0.1,0.3,0.3,3.1,1.1,8.5c0.8,5.4,1.5,9.6,2.1,12.8l3.2,16.7L519.7,333.5z"/>
		<linearGradient id="SVGID_8_" gradientUnits="userSpaceOnUse" x1="521.6388" y1="381.8335" x2="520.5601" y2="326.8223">
			<stop  offset="0" style="stop-color:#F5DFCF"/>
			<stop  offset="4.856092e-02" style="stop-color:#F7E6D9"/>
			<stop  offset="0.164" style="stop-color:#FBF1EA"/>
			<stop  offset="0.3058" style="stop-color:#FDF9F6"/>
			<stop  offset="0.501" style="stop-color:#FFFEFD"/>
			<stop  offset="1" style="stop-color:#FFFFFF"/>
		</linearGradient>
		<path class="st7" d="M579.3,351.9l-5.6-28.9l-15.8,3l-16.8-86.6l-25.3,4.9l-10.4,2L462.7,345l5.5,28.4l10.4-2l46.7-9l2.9,14.8
			h39.6l-4.3-22.2l10.4-2L579.3,351.9z M515.9,313.8c0.2,1.1,0.4,2.1,0.5,3l3.2,16.7l-23.6,4.6l11.3-26.7c2-4.9,3.6-10.1,4.8-15.6
			l1.1-0.2c-0.1,0.3,0.3,3.1,1.1,8.5C514.9,307.9,515.5,311.2,515.9,313.8z"/>
	</g>
	<g id="XMLID_2_">
		<g>
			<linearGradient id="SVGID_9_" gradientUnits="userSpaceOnUse" x1="294.6616" y1="234.771" x2="326.6616" y2="226.5014">
				<stop  offset="0" style="stop-color:#3AC8CC"/>
				<stop  offset="0.3486" style="stop-color:#3AC5CE"/>
				<stop  offset="0.5767" style="stop-color:#3ABDD6"/>
				<stop  offset="0.7703" style="stop-color:#3BAEE2"/>
				<stop  offset="0.9436" style="stop-color:#3C99F4"/>
				<stop  offset="1" style="stop-color:#3C90FB"/>
			</linearGradient>
			<path class="st8" d="M341.2,303.2l-23.8,0l-15.1-110.5c0,0-21.8-23.8-46.8-28.3l23.8-2.6l53.7,1.5L341.2,303.2z"/>
			<path class="st9" d="M247.5,242.5c0,0-13.5,19.8-7.5,36.7l25.1-36.7l-3.3-4.4L247.5,242.5z"/>
			<path class="st9" d="M317.5,303.2l-0.8,5.1c0,0-7.2,1-7.6,11.2h18.6l10.1-9.9l0.9-6.4H317.5z"/>
			<linearGradient id="SVGID_10_" gradientUnits="userSpaceOnUse" x1="231.1442" y1="204.3776" x2="302.3833" y2="204.3776">
				<stop  offset="0" style="stop-color:#3AC8CC"/>
				<stop  offset="0.3486" style="stop-color:#3AC5CE"/>
				<stop  offset="0.5767" style="stop-color:#3ABDD6"/>
				<stop  offset="0.7703" style="stop-color:#3BAEE2"/>
				<stop  offset="0.9436" style="stop-color:#3C99F4"/>
				<stop  offset="1" style="stop-color:#3C90FB"/>
			</linearGradient>
			<path class="st10" d="M288.7,192.6l-29.8-1.1l4.8,45.6l-20.2,7.2L232,188c-3.4-10.5,3.7-21.5,14.7-22.7l8.9-1h0
				c25,4.5,46.8,28.3,46.8,28.3L288.7,192.6z"/>
		</g>
		<g>
			<linearGradient id="SVGID_11_" gradientUnits="userSpaceOnUse" x1="181.5443" y1="62.6987" x2="233.9197" y2="62.6987">
				<stop  offset="0" style="stop-color:#489EBB"/>
				<stop  offset="7.368803e-03" style="stop-color:#4DA1B8"/>
				<stop  offset="6.744730e-02" style="stop-color:#6CB4A5"/>
				<stop  offset="0.1349" style="stop-color:#87C495"/>
				<stop  offset="0.2117" style="stop-color:#9DD288"/>
				<stop  offset="0.3014" style="stop-color:#AEDC7E"/>
				<stop  offset="0.4123" style="stop-color:#BAE377"/>
				<stop  offset="0.568" style="stop-color:#C0E773"/>
				<stop  offset="1" style="stop-color:#C2E872"/>
			</linearGradient>
			<path class="st11" d="M233.9,65.4v1.3l-1.6,0.2c-0.4-0.9-0.9-1.6-1.3-2c-2.2-1.9-3.7-3.3-5.2-2.4c-1.2,0.7-1.1,3.9-1,5.4
				l-4.4,0.6l-38.9,4.9l0-0.1c2.5-0.6,4.5-5.1,4.5-10.6c0-5.4-1.9-9.9-4.4-10.6l52.3,5.9V59V65.4z"/>
			<linearGradient id="SVGID_12_" gradientUnits="userSpaceOnUse" x1="184.4566" y1="56.6442" x2="175.9813" y2="56.6442">
				<stop  offset="0" style="stop-color:#80E8CB"/>
				<stop  offset="0.4454" style="stop-color:#7FE6CC"/>
				<stop  offset="0.6058" style="stop-color:#7BDFCF"/>
				<stop  offset="0.7201" style="stop-color:#74D4D4"/>
				<stop  offset="0.8126" style="stop-color:#6AC3DC"/>
				<stop  offset="0.8918" style="stop-color:#5EADE6"/>
				<stop  offset="0.9607" style="stop-color:#4E92F2"/>
				<stop  offset="1" style="stop-color:#437FFB"/>
			</linearGradient>
			<path class="st12" d="M184.5,54.9c-0.1,0.2-0.2,0.3-0.3,0.5c-0.6,1.1-0.8,2.3-1.5,3.3c-0.5,0.7-1.2,1.3-2.1,1.6
				c-0.9,0.3-1.8,0.4-2.8,0.5c-0.6,0.1-1.3,0.2-1.8,0.5c0.3-5.2,2.3-9.2,4.9-9.4l0.8,0.1C182.7,52.4,183.7,53.4,184.5,54.9z"/>
			<linearGradient id="SVGID_13_" gradientUnits="userSpaceOnUse" x1="186.0073" y1="61.7159" x2="175.9362" y2="61.7159">
				<stop  offset="0" style="stop-color:#3AC8CC"/>
				<stop  offset="0.3486" style="stop-color:#3AC5CE"/>
				<stop  offset="0.5767" style="stop-color:#3ABDD6"/>
				<stop  offset="0.7703" style="stop-color:#3BAEE2"/>
				<stop  offset="0.9436" style="stop-color:#3C99F4"/>
				<stop  offset="1" style="stop-color:#3C90FB"/>
			</linearGradient>
			<path class="st13" d="M186,61.8C186,61.8,186,61.8,186,61.8c-0.7,0.9-1,2-1.6,2.9c-0.7,1-1.8,1.8-3,2.1c-1.1,0.3-2.3,0.1-3.4,0.6
				c-0.5,0.3-0.9,0.7-1.3,1.2c-0.5-1.7-0.8-3.7-0.8-5.9c0-0.5,0-0.9,0-1.3c0.6-0.3,1.2-0.4,1.8-0.5c0.9-0.1,1.9-0.2,2.8-0.5
				c0.8-0.3,1.6-0.9,2.1-1.6c0.7-1,1-2.2,1.5-3.3c0.1-0.2,0.2-0.3,0.3-0.5C185.3,56.7,185.9,59.1,186,61.8z"/>
			<linearGradient id="SVGID_14_" gradientUnits="userSpaceOnUse" x1="186.0254" y1="67.5629" x2="176.7657" y2="67.5629">
				<stop  offset="0" style="stop-color:#80E8CB"/>
				<stop  offset="0.4454" style="stop-color:#7FE6CC"/>
				<stop  offset="0.6058" style="stop-color:#7BDFCF"/>
				<stop  offset="0.7201" style="stop-color:#74D4D4"/>
				<stop  offset="0.8126" style="stop-color:#6AC3DC"/>
				<stop  offset="0.8918" style="stop-color:#5EADE6"/>
				<stop  offset="0.9607" style="stop-color:#4E92F2"/>
				<stop  offset="1" style="stop-color:#437FFB"/>
			</linearGradient>
			<path class="st14" d="M186,62.7c0,5.5-2,10-4.5,10.6c-0.2,0-0.4,0.1-0.6,0.1c-1.8,0-3.3-1.9-4.2-4.8c0.3-0.5,0.7-0.9,1.3-1.2
				c1-0.5,2.2-0.4,3.4-0.6c1.2-0.3,2.3-1,3-2.1c0.6-0.9,0.9-2,1.5-2.8c0,0,0,0,0-0.1C186,62.1,186,62.4,186,62.7z"/>
			<path class="st9" d="M264.7,60h15.7c-1.6,0.7-3,1.4-3.7,2c-0.5,0.5-0.3,1.3,0.3,2.4h-12.4V60z"/>
			<path class="st9" d="M299.6,62.7v1.7H291c-0.8-1.9-1.4-3.5-1.6-4.4h10.2V62.7z"/>
			<linearGradient id="SVGID_15_" gradientUnits="userSpaceOnUse" x1="233.9197" y1="62.1892" x2="264.7192" y2="62.1892">
				<stop  offset="0" style="stop-color:#3AC8CC"/>
				<stop  offset="0.3486" style="stop-color:#3AC5CE"/>
				<stop  offset="0.5767" style="stop-color:#3ABDD6"/>
				<stop  offset="0.7703" style="stop-color:#3BAEE2"/>
				<stop  offset="0.9436" style="stop-color:#3C99F4"/>
				<stop  offset="1" style="stop-color:#3C90FB"/>
			</linearGradient>
			<polygon class="st15" points="264.7,64.4 264.7,65.4 233.9,65.4 233.9,59 264.7,59 264.7,60 			"/>
			<linearGradient id="SVGID_16_" gradientUnits="userSpaceOnUse" x1="220.4486" y1="71.8237" x2="235.1369" y2="71.8237">
				<stop  offset="0" style="stop-color:#F1AF70"/>
				<stop  offset="0.3323" style="stop-color:#F1AD6E"/>
				<stop  offset="0.5496" style="stop-color:#F1A665"/>
				<stop  offset="0.734" style="stop-color:#F09B56"/>
				<stop  offset="0.8991" style="stop-color:#F08A41"/>
				<stop  offset="1" style="stop-color:#EF7D30"/>
			</linearGradient>
			<path class="st16" d="M235.1,76.3l-6.8,5.2c0,0-8.2-8.6-7.9-13l4.4-0.6c-0.1-1.5-0.2-4.7,1-5.4c1.5-0.9,3,0.6,5.2,2.4
				c0.4,0.4,0.9,1.1,1.3,2C233.9,70.3,235.1,76.3,235.1,76.3z"/>
			<path class="st17" d="M189.5,52.1c-0.5-1-1.9-0.1-1.5,0.8c2.8,6.1,2.4,12.8-0.9,18.6c-0.5,0.9,0.9,1.8,1.5,0.8
				C192.2,66,192.5,58.7,189.5,52.1z"/>
		</g>
		<g>
			<linearGradient id="SVGID_17_" gradientUnits="userSpaceOnUse" x1="307.2039" y1="83.0507" x2="306.7176" y2="100.7185">
				<stop  offset="0" style="stop-color:#6558CF"/>
				<stop  offset="0.4915" style="stop-color:#6356CE"/>
				<stop  offset="0.6685" style="stop-color:#5D52C8"/>
				<stop  offset="0.7947" style="stop-color:#514ABE"/>
				<stop  offset="0.8966" style="stop-color:#403EB0"/>
				<stop  offset="0.983" style="stop-color:#2A309D"/>
				<stop  offset="1" style="stop-color:#252C99"/>
			</linearGradient>
			<polygon class="st18" points="310.3,83.1 310.3,88.3 304,82.4 			"/>
			<linearGradient id="SVGID_18_" gradientUnits="userSpaceOnUse" x1="319.111" y1="83.2833" x2="317.8143" y2="124.292">
				<stop  offset="0" style="stop-color:#6558CF"/>
				<stop  offset="0.4915" style="stop-color:#6356CE"/>
				<stop  offset="0.6685" style="stop-color:#5D52C8"/>
				<stop  offset="0.7947" style="stop-color:#514ABE"/>
				<stop  offset="0.8966" style="stop-color:#403EB0"/>
				<stop  offset="0.983" style="stop-color:#2A309D"/>
				<stop  offset="1" style="stop-color:#252C99"/>
			</linearGradient>
			<path class="st19" d="M310.3,88.3l6.3,6l6,5.7c0,0,13.8-9.6,19.1-9.7c0.4,0,0.7,0,1.1,0.1c4.7,0.7,7.6,6.1,6.8,11.4
				c-0.9,5.6-0.7,11.9-6.2,12.9c-5.4,1-29.3,6.8-29.3,6.8l-26.2-35.5l3.1-2.2l6.9-4.8l1.4-1l3,2.8l1.7,1.6L310.3,88.3z"/>
			<linearGradient id="SVGID_19_" gradientUnits="userSpaceOnUse" x1="329.9222" y1="83.676" x2="329.4359" y2="101.3438">
				<stop  offset="0" style="stop-color:#6558CF"/>
				<stop  offset="0.4915" style="stop-color:#6356CE"/>
				<stop  offset="0.6685" style="stop-color:#5D52C8"/>
				<stop  offset="0.7947" style="stop-color:#514ABE"/>
				<stop  offset="0.8966" style="stop-color:#403EB0"/>
				<stop  offset="0.983" style="stop-color:#2A309D"/>
				<stop  offset="1" style="stop-color:#252C99"/>
			</linearGradient>
			<path class="st20" d="M327.2,84.2l15.6,6.1c-0.4-0.1-0.7-0.1-1.1-0.1c-5.3,0.1-19.1,9.7-19.1,9.7l-6-5.7L327.2,84.2z"/>
			<linearGradient id="SVGID_20_" gradientUnits="userSpaceOnUse" x1="225.4084" y1="120.9199" x2="343.413" y2="120.9199">
				<stop  offset="0" style="stop-color:#6558CF"/>
				<stop  offset="0.4915" style="stop-color:#6356CE"/>
				<stop  offset="0.6685" style="stop-color:#5D52C8"/>
				<stop  offset="0.7947" style="stop-color:#514ABE"/>
				<stop  offset="0.8966" style="stop-color:#403EB0"/>
				<stop  offset="0.983" style="stop-color:#2A309D"/>
				<stop  offset="1" style="stop-color:#252C99"/>
			</linearGradient>
			<path class="st21" d="M343.4,114.5l-9.1,24.7l-1.2,24.1c0,0-1.1,0.2-2.9,0.5c-8.7,1.2-34.6,4.2-50.8-1.9l6.3-29.9l-2.9-23.6
				l-35.3,3.9l-22.1-28.6l2.9-2.2l6.8-5.2L256,96.7l32.7-14.3c1.2,0.9,2.2,1.3,2.2,1.3l-3.1,2.2l26.2,35.5
				C314.1,121.3,338,115.5,343.4,114.5z"/>
			<linearGradient id="SVGID_21_" gradientUnits="userSpaceOnUse" x1="276.4999" y1="71.1015" x2="297.8539" y2="71.1015">
				<stop  offset="0" style="stop-color:#F1AF70"/>
				<stop  offset="0.3323" style="stop-color:#F1AD6E"/>
				<stop  offset="0.5496" style="stop-color:#F1A665"/>
				<stop  offset="0.734" style="stop-color:#F09B56"/>
				<stop  offset="0.8991" style="stop-color:#F08A41"/>
				<stop  offset="1" style="stop-color:#EF7D30"/>
			</linearGradient>
			<path class="st22" d="M297.9,78.9l-6.9,4.8c0,0-1-0.4-2.2-1.3c-1.6-1.1-3.4-2.9-3.6-5.5c-0.3-3.5-6.1-9.1-8.1-12.5
				c-0.6-1.1-0.8-1.9-0.3-2.4c0.6-0.6,2-1.3,3.7-2c3.6-1.4,8.5-2.4,8.9-0.2c0,0.1,0,0.1,0,0.2c0.2,0.9,0.8,2.5,1.6,4.4
				C293.5,70.2,297.9,78.9,297.9,78.9z"/>
			<linearGradient id="SVGID_22_" gradientUnits="userSpaceOnUse" x1="287.9" y1="112.5314" x2="343.413" y2="112.5314">
				<stop  offset="0" style="stop-color:#2B0076"/>
				<stop  offset="0.333" style="stop-color:#2D0176"/>
				<stop  offset="0.5508" style="stop-color:#360477"/>
				<stop  offset="0.7356" style="stop-color:#450A77"/>
				<stop  offset="0.901" style="stop-color:#5A1278"/>
				<stop  offset="1" style="stop-color:#6A1879"/>
			</linearGradient>
			<path class="st23" d="M334.3,139.2c-40-8.5-46.4-53.4-46.4-53.4l26.2,35.5l29.3-6.8L334.3,139.2z"/>
		</g>
		<g>
			<linearGradient id="SVGID_23_" gradientUnits="userSpaceOnUse" x1="301.0457" y1="75.655" x2="329.1049" y2="75.655">
				<stop  offset="0" style="stop-color:#F1AF70"/>
				<stop  offset="0.3323" style="stop-color:#F1AD6E"/>
				<stop  offset="0.5496" style="stop-color:#F1A665"/>
				<stop  offset="0.734" style="stop-color:#F09B56"/>
				<stop  offset="0.8991" style="stop-color:#F08A41"/>
				<stop  offset="1" style="stop-color:#EF7D30"/>
			</linearGradient>
			<path class="st24" d="M326.9,62.3c0.8-0.2,1.7-0.1,2,1.3c0.8,3.1-2.7,6.8-2.7,6.8l0.9,13.7l-10.6,10.1l4.1-11.9l-10.4,0.7
				l-6.3-0.7l-1.7-1.6c0,0-1.2-11.4-1.2-18.1c0-1.5,0.1-2.8,0.2-3.7l0.1-0.3c7.3,1.2,17.5-1.6,17.5-1.6s1.4,13.9,3.4,14.1
				c1.9,0.2,2.6-7.5,2.6-7.5S325.8,62.6,326.9,62.3z"/>
			<path class="st9" d="M327,52.3l-0.1,10.1c-1.1,0.3-2.2,1.3-2.2,1.3s-0.6,7.8-2.6,7.5c-1.9-0.2-3.4-14.1-3.4-14.1
				s-10.2,2.9-17.5,1.6v0c-2.3-0.4-4.3-1.2-5.6-2.6c-5.6-5.9-3.7-9.2,4.4-7.4C308.1,50.5,324.7,40.8,327,52.3z"/>
			<polygon class="st25" points="320.7,82.4 316.6,94.3 310.3,88.3 310.3,83.1 			"/>
			<path class="st9" d="M300.6,60.5c1.6-0.8,3.3-0.9,5-0.3c1,0.4,0.3,1.9-0.8,1.5c-1.1-0.4-2.3-0.3-3.3,0.2
				C300.6,62.4,299.6,61,300.6,60.5z"/>
			
				<ellipse transform="matrix(0.9986 -5.221754e-02 5.221754e-02 0.9986 -2.9399 16.5982)" class="st9" cx="316.2" cy="64.6" rx="1.2" ry="1.8"/>
			<path class="st9" d="M318.3,60.1c-1.7-0.6-3.4-0.6-5,0.2c-1,0.5-0.1,1.9,0.9,1.4c1-0.5,2.2-0.5,3.3-0.1
				C318.6,62,319.4,60.5,318.3,60.1z"/>
			<path class="st25" d="M306.5,70.2c0.5-2.6,1.9-5.2,2.8-7.7c0.2-0.5,0.9-0.1,0.8,0.4c-0.6,1.6-1.1,3.1-1.7,4.7
				c-0.2,0.5-0.7,1.4-0.7,2c-0.2,2,0.7,1.8,1.7,2.3c0.5,0.2,0.1,1-0.4,0.8C307.7,72.1,306.1,72,306.5,70.2z"/>
			<path class="st9" d="M305.5,64.8c-0.8-0.6-1.7-1.1-2.7-1.2c-0.6-0.1-0.9,0.9-0.3,1c0.5,0.1,1,0.2,1.5,0.4
				c-0.5,0.2-1.1,0.3-1.6,0.5c-0.6,0.2-0.4,1.2,0.3,1c0.9-0.3,1.8-0.6,2.6-0.9C305.6,65.5,305.8,65,305.5,64.8z"/>
			<ellipse class="st26" cx="309.6" cy="77.8" rx="2.2" ry="3.2"/>
		</g>
	</g>
	<g>
		<linearGradient id="SVGID_24_" gradientUnits="userSpaceOnUse" x1="410.9072" y1="455.6129" x2="411.9858" y2="381.1859">
			<stop  offset="0" style="stop-color:#80E8CB"/>
			<stop  offset="0.4454" style="stop-color:#7FE6CC"/>
			<stop  offset="0.6058" style="stop-color:#7BDFCF"/>
			<stop  offset="0.7201" style="stop-color:#74D4D4"/>
			<stop  offset="0.8126" style="stop-color:#6AC3DC"/>
			<stop  offset="0.8918" style="stop-color:#5EADE6"/>
			<stop  offset="0.9607" style="stop-color:#4E92F2"/>
			<stop  offset="1" style="stop-color:#437FFB"/>
		</linearGradient>
		<path class="st27" d="M616.2,377.2H214.9c0,0-21.6,14.3,10.5,16.8c32.1,2.4,82.2,4.7,80.9,15.6s-30.2,8.8-30.2,28
			c0,19.3,133.7,14.8,133.7,14.8s75.5,1,86.3-11.8c10.8-12.8-30.4-24.4-23-29.5c7.5-5,61.8,10.1,69.9-2.2c8.1-12.2-1.6-20,13.3-21.6
			C571.2,385.8,613.6,391.7,616.2,377.2z"/>
		<linearGradient id="SVGID_25_" gradientUnits="userSpaceOnUse" x1="585.8215" y1="450.8363" x2="585.8215" y2="385.3082">
			<stop  offset="0" style="stop-color:#80E8CB"/>
			<stop  offset="0.4454" style="stop-color:#7FE6CC"/>
			<stop  offset="0.6058" style="stop-color:#7BDFCF"/>
			<stop  offset="0.7201" style="stop-color:#74D4D4"/>
			<stop  offset="0.8126" style="stop-color:#6AC3DC"/>
			<stop  offset="0.8918" style="stop-color:#5EADE6"/>
			<stop  offset="0.9607" style="stop-color:#4E92F2"/>
			<stop  offset="1" style="stop-color:#437FFB"/>
		</linearGradient>
		<ellipse class="st28" cx="585.8" cy="402.6" rx="30.3" ry="8.6"/>
		<linearGradient id="SVGID_26_" gradientUnits="userSpaceOnUse" x1="262.8103" y1="450.8363" x2="262.8103" y2="385.3082">
			<stop  offset="0" style="stop-color:#80E8CB"/>
			<stop  offset="0.4454" style="stop-color:#7FE6CC"/>
			<stop  offset="0.6058" style="stop-color:#7BDFCF"/>
			<stop  offset="0.7201" style="stop-color:#74D4D4"/>
			<stop  offset="0.8126" style="stop-color:#6AC3DC"/>
			<stop  offset="0.8918" style="stop-color:#5EADE6"/>
			<stop  offset="0.9607" style="stop-color:#4E92F2"/>
			<stop  offset="1" style="stop-color:#437FFB"/>
		</linearGradient>
		<ellipse class="st29" cx="262.8" cy="410" rx="26.5" ry="6.6"/>
		<ellipse class="st30" cx="414.8" cy="435.6" rx="30.1" ry="5.8"/>
	</g>
	<g>
		<g>
			
				<linearGradient id="SVGID_27_" gradientUnits="userSpaceOnUse" x1="365.8699" y1="328.1378" x2="471.2225" y2="328.1378" gradientTransform="matrix(0.9797 0.2002 -0.2002 0.9797 63.9508 -75.1856)">
				<stop  offset="0" style="stop-color:#3AC8CC"/>
				<stop  offset="0.3486" style="stop-color:#3AC5CE"/>
				<stop  offset="0.5767" style="stop-color:#3ABDD6"/>
				<stop  offset="0.7703" style="stop-color:#3BAEE2"/>
				<stop  offset="0.9436" style="stop-color:#3C99F4"/>
				<stop  offset="1" style="stop-color:#3C90FB"/>
			</linearGradient>
			<path class="st31" d="M454.6,300c-6.2-14.1-17.8-22.9-34.8-26.4c-1.9-0.4-3.7-0.7-5.4-0.9c-15-1.9-27.4,1.7-37.1,10.7
				c-10.9,10.1-18.9,27.9-24.1,53.3c-3.2,15.6-4.1,29-2.7,40.4h37.2c-0.5-6.6,0.8-17.5,3.9-32.6c3.3-16.3,6.6-27.3,9.9-33
				c1.9-3.3,4.1-5.5,6.5-6.6c1.7-0.8,3.6-1,5.6-0.5c4.8,1,7.5,4.9,8.2,11.6c0.7,6.8-0.5,18.1-3.8,33.9c-2.4,11.9-4.9,20.9-7.3,27.2
				h40.7c1.9-5.8,3.5-12.3,5-19.3c1-4.7,1.7-9.1,2.2-13.4C461,326.3,459.6,311.5,454.6,300z"/>
			<linearGradient id="SVGID_28_" gradientUnits="userSpaceOnUse" x1="395.1789" y1="384.3131" x2="394.1002" y2="329.3019">
				<stop  offset="0" style="stop-color:#F5DFCF"/>
				<stop  offset="4.856092e-02" style="stop-color:#F7E6D9"/>
				<stop  offset="0.164" style="stop-color:#FBF1EA"/>
				<stop  offset="0.3058" style="stop-color:#FDF9F6"/>
				<stop  offset="0.501" style="stop-color:#FFFEFD"/>
				<stop  offset="1" style="stop-color:#FFFFFF"/>
			</linearGradient>
			<path class="st32" d="M444.2,297.9c-5.5-12.7-15.5-21.1-29.8-25.2c-1.6-0.5-3.3-0.9-5-1.2c-17.5-3.6-31.6-0.3-42.5,9.8
				c-10.9,10.1-18.9,27.9-24.1,53.3c-1.1,5.2-1.9,10.1-2.4,14.8c-1.2,10.3-1.2,19.6,0,27.7h37.1c0-0.2-0.1-0.5-0.1-0.7
				c-0.8-6.5,0.5-17.8,3.8-34c3.3-16.3,6.6-27.3,9.9-33c3.3-5.7,7.3-8.1,12-7.1c2,0.4,3.6,1.3,4.8,2.7c1.9,2,3,5,3.4,8.9
				c0.7,6.8-0.5,18.1-3.8,33.9c-2.7,13.3-5.5,23-8.2,29.3h40.9c2.2-6.4,4.1-13.5,5.7-21.4C451,331.3,450.4,312,444.2,297.9z"/>
		</g>
		<g>
			<polygon class="st33" points="472.6,202.6 472.3,202.8 446.2,223.1 429.9,235.8 416.3,273.4 412.6,272 426.5,233.4 470.1,199.4 
							"/>
		</g>
		<linearGradient id="SVGID_29_" gradientUnits="userSpaceOnUse" x1="446.2158" y1="249.009" x2="488.9176" y2="249.009">
			<stop  offset="0" style="stop-color:#6558CF"/>
			<stop  offset="0.4915" style="stop-color:#6356CE"/>
			<stop  offset="0.6685" style="stop-color:#5D52C8"/>
			<stop  offset="0.7947" style="stop-color:#514ABE"/>
			<stop  offset="0.8966" style="stop-color:#403EB0"/>
			<stop  offset="0.983" style="stop-color:#2A309D"/>
			<stop  offset="1" style="stop-color:#252C99"/>
		</linearGradient>
		<path class="st34" d="M485.1,286.9c-3,3.5-7,6-11,8.3l-0.3-0.5c1.6-2,3.2-4.4,2.8-6.9c-0.3-1.7-1.6-3.1-2.9-4.2
			c-2.2-1.9-4.6-3.6-6.7-5.6c-2.1-2-3.9-4.6-4.2-7.5c-0.4-3.8,1.6-7.4,2.4-11.1c0.3-1.5,0.4-3.1-0.2-4.5c-1.3-3.2-5.4-3.9-8.6-5.2
			c-2.9-1.2-5.6-3.3-6.4-6.3c-1.2-4.3,1.9-8.8,1.5-13.2c-0.3-3.1-2.5-5.9-5.4-7.1l26.1-20.3c4.4,3.8,8.2,8.9,8.3,14.7
			c0,3.7-1.5,7.2-2.5,10.7c-0.4,1.4-0.8,2.9-0.5,4.3c0.4,2.2,2.2,3.9,3.8,5.5c3.4,3.2,6.8,7.2,6.7,11.8c-0.1,5.2-4.5,9.9-3.8,15.1
			c0.5,3.3,3,6,4.1,9.1C489.8,278.5,488.1,283.4,485.1,286.9z"/>
	</g>
</g>
<g id="DESIGNED_BY_FREEPIK">
</g>
</svg>
