<svg xmlns="http://www.w3.org/2000/svg" width="71" height="71" viewBox="0 0 71 71">
  <g id="Groupe_255" data-name="Groupe 255" transform="translate(-1319 -684)">
    <circle id="Ellipse_41" data-name="Ellipse 41" cx="35.5" cy="35.5" r="35.5" transform="translate(1319 684)" fill="#a91af1"/>
    <path id="Icon_awesome-calendar-check" data-name="Icon awesome-calendar-check" d="M28.2,10.348H.776A.776.776,0,0,1,0,9.572V7.243a3.1,3.1,0,0,1,3.1-3.1h3.1V.776A.776.776,0,0,1,6.985,0H9.572a.776.776,0,0,1,.776.776V4.139h8.278V.776A.776.776,0,0,1,19.4,0h2.587a.776.776,0,0,1,.776.776V4.139h3.1a3.1,3.1,0,0,1,3.1,3.1V9.572A.776.776,0,0,1,28.2,10.348ZM.776,12.417H28.2a.776.776,0,0,1,.776.776V30.009a3.1,3.1,0,0,1-3.1,3.1H3.1a3.1,3.1,0,0,1-3.1-3.1V13.194A.776.776,0,0,1,.776,12.417Zm21.556,6.205L20.51,16.786a.776.776,0,0,0-1.1,0l-6.858,6.8-2.974-3a.776.776,0,0,0-1.1,0L6.647,22.4a.776.776,0,0,0,0,1.1l5.342,5.385a.776.776,0,0,0,1.1,0l9.245-9.171a.776.776,0,0,0,0-1.1Z" transform="translate(1340 703)" fill="#fff"/>
  </g>
</svg>
