<svg xmlns="http://www.w3.org/2000/svg" width="50" height="50" viewBox="0 0 50 50">
  <g id="Groupe_233" data-name="Groupe 233" transform="translate(-19.934 -8.934)">
    <circle id="Ellipse_189" data-name="Ellipse 189" cx="25" cy="25" r="25" transform="translate(19.934 8.934)" fill="#6c63ff"/>
    <path id="Icon_awesome-car-alt" data-name="Icon awesome-car-alt" d="M25.928,13.267l-.664-1.661L24.086,8.661A6.588,6.588,0,0,0,17.939,4.5H10.432A6.588,6.588,0,0,0,4.286,8.661L3.108,11.606l-.664,1.661A3.775,3.775,0,0,0,0,16.794v2.837A3.752,3.752,0,0,0,.946,22.11v3.2A1.892,1.892,0,0,0,2.837,27.2H4.729A1.892,1.892,0,0,0,6.62,25.306V23.414H21.752v1.891A1.892,1.892,0,0,0,23.643,27.2h1.891a1.892,1.892,0,0,0,1.891-1.891v-3.2a3.75,3.75,0,0,0,.946-2.478V16.794A3.775,3.775,0,0,0,25.928,13.267ZM7.8,10.066a2.837,2.837,0,0,1,2.634-1.783h7.507a2.837,2.837,0,0,1,2.634,1.783l1.178,2.945H6.62L7.8,10.066ZM4.729,19.62a1.784,1.784,0,0,1-1.891-1.886,1.784,1.784,0,0,1,1.891-1.886,3.639,3.639,0,0,1,2.837,2.828C7.566,19.808,5.863,19.62,4.729,19.62Zm18.914,0c-1.135,0-2.837.189-2.837-.943a3.639,3.639,0,0,1,2.837-2.828,1.784,1.784,0,0,1,1.891,1.886,1.784,1.784,0,0,1-1.891,1.886Z" transform="translate(30.934 18.434)" fill="#fff"/>
  </g>
</svg>
