<svg xmlns="http://www.w3.org/2000/svg" width="482.38" height="206.62" viewBox="0 0 482.38 206.62"><g transform="translate(0 0)"><path d="M288.289,470.1a4.614,4.614,0,1,0-9.183.607l-13.255,17.358a6.427,6.427,0,0,0,.869,7.057l1.04,1.213,4.771-.954,5.407-4.771L277.3,485.2l6.679-10.5-.009-.008A4.61,4.61,0,0,0,288.289,470.1Z" transform="translate(-182.41 -354.832)" fill="#ffb9b9"/><path d="M27.632,400.47l-2.164-8.036,29.966-12.169,3.193,11.86Z" transform="translate(-13.418 -200.339)" fill="#ffb8b8"/><path d="M97.234,634.039l-6.976-25.911.328-.088a10.445,10.445,0,0,1,12.8,7.37h0l4.261,15.826Z" transform="translate(-90.258 -429.761)" fill="#2f2e41"/><path d="M109.784,383.305l-6.73-4.894,15.676-28.29,9.934,7.224Z" transform="translate(-54.293 -184.458)" fill="#ffb8b8"/><path d="M176.973,645.672l-21.7-15.782.2-.275a10.445,10.445,0,0,1,14.59-2.3h0l13.255,9.639Z" transform="translate(-124.509 -439.051)" fill="#2f2e41"/><path d="M261.516,547.352,244.579,530.9a8.553,8.553,0,0,0-11.2-.626L201.4,565.8l2.863,4.453L234.8,549.578l20.674,27.036,19.72-9.86Z" transform="translate(-148.812 -388.036)" fill="#2f2e41"/><path d="M279.711,569.905l-12.4-.954-8.983-2.178a4.615,4.615,0,1,0-.875,5.988v.006l5.407,2.226,23.219,7.952,2.863-2.227Z" transform="translate(-174.323 -407.091)" fill="#ffb9b9"/><path d="M161.613,378.45l-7,4.453h-8.27L107.859,368.59l-56.3,10.178-1.59-12.087L101.5,344.1l45.166,14.949Z" transform="translate(-26.327 -181.285)" fill="#2f2e41"/><circle cx="12.405" cy="12.405" r="12.405" transform="translate(107.932 95.065)" fill="#ffb9b9"/><path d="M341.265,524.712a71.268,71.268,0,0,1-3.5,22.044l-.929,2.858-4.453,20.356-4.771,1.272-3.5-4.453-7-5.089-5.089-8.27-4.364-7.271-1.361-2.271-4.771-23.855-18.13-10.178-6.043-.954,1.272-3.5,5.407-7.316,5.407-.636,1.59-1.272,1.272.636,7.013,2.7,22.739-9.607,3.327.544,11.45,9.542A71.21,71.21,0,0,1,341.265,524.712Z" transform="translate(-188.832 -367.715)" fill="#ccc"/><path d="M275.514,308.95,263.428,316.9l-18.041,16.266-1.361-2.271-3.817-19.084h.954l9.86-18.13Z" transform="translate(-126.552 -154.724)" opacity="0.1" style="isolation:isolate"/><path d="M240.045,289.649l-9.86,18.13-5.725,6.362-5.089,1.272,13.677,14.949,19.4-17.494,12.086-7.952Z" transform="translate(-115.573 -152.598)" fill="#ccc"/><path d="M319.4,428.464l-1.344.517a1.876,1.876,0,0,1-.5-2.606l.022-.032-2.484-.116a18.755,18.755,0,0,1,28-2.257c.113-.389,1.346.368,1.849,1.137.169-.634,1.325,2.43,1.734,4.6.189-.721.917.443.279,1.56.4-.059.586.974.274,1.55.442-.208.367,1.026-.112,1.85.631-.056-.054,12.932-9.517,11.986-.659-3.027-.473-2.839-1.249-6.731-.361-.383-.757-.732-1.151-1.081l-2.135-1.885c-2.483-2.192-4.741-4.9-8.049-5.716-2.273-.563-3.71-.69-2.472-3.251-1.119.467-2.164,1.162-3.293,1.6C319.261,429.223,319.418,428.822,319.4,428.464Z" transform="translate(-208.708 -330.217)" fill="#2f2e41"/><circle cx="2.226" cy="2.226" r="2.226" transform="translate(124.313 106.675)" fill="#ffb9b9"/><rect width="10.225" height="10.225" transform="translate(22.031 66.519) rotate(-86.19)" fill="#e6e6e6" style="isolation:isolate"/><path d="M123.425,362.131l12.389.825-.825,12.389L122.6,374.52Zm11.814,1.328-11.311-.753-.753,11.311,11.311.753Z" transform="translate(-107.297 -300.397)" fill="#ccc"/><rect width="10.225" height="10.225" transform="matrix(0.978, -0.21, 0.21, 0.978, 70.371, 28.212)" fill="#e6e6e6" style="isolation:isolate"/><path d="M231.762,276.51l2.608,12.139-12.139,2.608-2.608-12.139Zm1.967,11.725-2.382-11.084-11.084,2.382,2.382,11.083Z" transform="translate(-158.413 -255.288)" fill="#ccc"/><rect width="10.225" height="10.225" transform="matrix(0.73, -0.684, 0.684, 0.73, 62.4, 81.062)" fill="#e6e6e6" style="isolation:isolate"/><path d="M234.274,375.907l-9.062,8.488-8.488-9.062,9.062-8.488Zm-9.037,7.725,8.274-7.75-7.75-8.274-8.274,7.75Z" transform="translate(-156.885 -302.881)" fill="#ccc"/><path d="M707.411,231.659H404.881a8.327,8.327,0,0,0-8.327,8.327V408.551a8.327,8.327,0,0,0,8.327,8.327H707.411a8.327,8.327,0,0,0,8.327-8.327V239.986a8.327,8.327,0,0,0-8.327-8.327Z" transform="translate(-251.627 -231.659)" fill="#3f3d56"/><rect width="296.857" height="167.458" transform="translate(156.091 14.716)" fill="#fff"/><circle cx="3.045" cy="3.045" r="3.045" transform="translate(301.221 4.06)" fill="#fff"/><path d="M541.851,198.56H329.89V31.1Z" transform="translate(-173.799 -16.386)" fill="#f2f2f2" style="isolation:isolate"/><circle cx="28.535" cy="28.535" r="28.535" transform="translate(174.005 112.573)" fill="#6c63ff"/><path d="M492.22,496.168a35.495,35.495,0,1,1,35.495-35.494,35.494,35.494,0,0,1-35.495,35.494Zm0-70.525a35.031,35.031,0,1,0,35.031,35.031A35.03,35.03,0,0,0,492.22,425.642Z" transform="translate(-283.327 -333.613)" fill="#3f3d56"/><rect width="27.73" height="5.794" transform="translate(356.497 101.715)" fill="#3f3d56"/><rect width="80.2" height="2.483" transform="translate(330.262 70.324)" fill="#3f3d56"/><rect width="80.2" height="2.483" transform="translate(330.262 80.081)" fill="#3f3d56"/><rect width="80.2" height="2.483" transform="translate(330.262 89.837)" fill="#3f3d56"/><rect width="11.589" height="11.589" transform="translate(420.357 24.738)" fill="#6c63ff"/><path d="M998.854,304.136H984.782V290.064h14.072Zm-13.46-.612h12.848V290.676H985.394Z" transform="translate(-561.528 -262.429)" fill="#ccc"/><path d="M709.948,607.454H680.977v-2.087a.414.414,0,0,0-.414-.414H670.63a.414.414,0,0,0-.414.414v2.087h-6.208v-2.087a.414.414,0,0,0-.414-.414h-9.933a.414.414,0,0,0-.414.414h0v2.087h-6.208v-2.087a.414.414,0,0,0-.414-.414h-9.933a.414.414,0,0,0-.414.414h0v2.087H630.07v-2.087a.414.414,0,0,0-.414-.414h-9.933a.414.414,0,0,0-.414.414v2.087H613.1v-2.087a.414.414,0,0,0-.414-.414h-9.933a.414.414,0,0,0-.414.414h0v2.087h-6.208v-2.087a.414.414,0,0,0-.414-.414h-9.933a.414.414,0,0,0-.414.414h0v2.087h-6.208v-2.087a.414.414,0,0,0-.414-.414H500.941a.414.414,0,0,0-.414.414h0v2.087h-6.208v-2.087a.414.414,0,0,0-.414-.414h-9.933a.414.414,0,0,0-.414.414h0v2.087H477.35v-2.087a.414.414,0,0,0-.414-.414H467a.414.414,0,0,0-.414.414h0v2.087h-6.208v-2.087a.414.414,0,0,0-.414-.414h-9.933a.414.414,0,0,0-.414.414h0v2.087h-6.208v-2.087a.414.414,0,0,0-.414-.414h-9.933a.414.414,0,0,0-.414.414h0v2.087h-6.208v-2.087a.414.414,0,0,0-.414-.414H416.1a.414.414,0,0,0-.414.414v2.087h-6.208v-2.087a.414.414,0,0,0-.414-.414h-9.933a.414.414,0,0,0-.414.414h0v2.087H379.675a9.933,9.933,0,0,0-9.933,9.933v4.492a9.933,9.933,0,0,0,9.933,9.933H709.948a9.933,9.933,0,0,0,9.933-9.933v-4.492a9.933,9.933,0,0,0-9.933-9.933Z" transform="translate(-237.501 -428.325)" fill="#3f3d56"/></g></svg>