<svg xmlns="http://www.w3.org/2000/svg" width="56.378" height="53.504" viewBox="0 0 56.378 53.504"><g transform="translate(-78.911 -131.396) rotate(21)"><path d="M174.41,122.041a15.1,15.1,0,0,1-1.97.05,5.455,5.455,0,0,0-3.354.65,4.235,4.235,0,0,0-1.438,3.14,10.237,10.237,0,0,0,.027,1.183,2.217,2.217,0,0,1-.159,1.4,2.041,2.041,0,0,1-1.9.794,2.19,2.19,0,0,1-.384-.078c-.909-.271-2.226-1.761-3.095-2.747-.133-.15-.26-.294-.377-.423-.252-.281-.5-.585-.767-.91-.969-1.182-1.97-2.407-3.312-2.7a6.761,6.761,0,0,0-.692-.112,18.484,18.484,0,0,0-2.245-.055c-.566.007-1.153.018-1.8,0h-.026l-13.392.112a4.924,4.924,0,0,1-.6-.027A5.3,5.3,0,0,1,134.32,117l-.17-22.02a5.29,5.29,0,0,1,5.112-5.435l34.536-.294a4.966,4.966,0,0,1,.6.031A5.3,5.3,0,0,1,179,94.6l.173,22.019a5.317,5.317,0,0,1-4.506,5.391Z" transform="translate(0 0)" fill="#504cd8"/><g transform="translate(144.187 104.015)"><path d="M174.757,107.427a2.355,2.355,0,0,1-.231,4.7,2.33,2.33,0,0,1-.276-.015,2.355,2.355,0,0,1,.232-4.7,2.144,2.144,0,0,1,.275.015" transform="translate(-151.151 -107.412)" fill="#fff"/><path d="M163.3,107.538a2.356,2.356,0,0,1-.228,4.7,2.545,2.545,0,0,1-.279-.014,2.355,2.355,0,0,1-1.426-3.992,2.328,2.328,0,0,1,1.659-.7,1.946,1.946,0,0,1,.274.013" transform="translate(-150.195 -107.421)" fill="#fff"/><path d="M151.848,107.65a2.33,2.33,0,1,1-.275-.015,2.293,2.293,0,0,1,.275.015" transform="translate(-149.24 -107.431)" fill="#fff"/></g></g></svg>