<svg xmlns="http://www.w3.org/2000/svg" xmlns:xlink="http://www.w3.org/1999/xlink" width="688" height="218" viewBox="0 0 688 218"><defs><clipPath id="a"><rect width="688" height="218" transform="translate(-475 -0.049)" fill="none"/></clipPath></defs><g transform="translate(-457 -168.329)"><g transform="translate(468.185 200.759)"><path d="M1149.617,388.592a9.332,9.332,0,0,1,1.613,5.247,60.989,60.989,0,0,1-.572,12.333,155.934,155.934,0,0,1-3.1,15.912,130.444,130.444,0,0,1-4.767,15.507,61.743,61.743,0,0,1-3.322,7.525c-.594,1.111-2.228,4.211-4.207,5.269-2.147,1.144-3.149-1.019-3.319-3.182a14.807,14.807,0,0,1,.238-3.142,28.968,28.968,0,0,1,4.434-11.669c.541-.871,1.219-1.708,1.907-2.737a8.32,8.32,0,0,0,1.425-2.8,14.381,14.381,0,0,0-.98-2.831,43.872,43.872,0,0,1-2.509-18.655,38.609,38.609,0,0,1,1.853-9.87,15.493,15.493,0,0,1,2.353-4.559c1.928-2.427,5.338-4.7,7.9-3.322a3.643,3.643,0,0,1,1.051.974" transform="translate(-948.61 -289.14)" fill="#f7af31" fill-rule="evenodd"/><path d="M767.141,410.611a32.325,32.325,0,0,1,5.187,12.938,30.733,30.733,0,0,1-.211,11.528,32.707,32.707,0,0,1-4.051,10.524,35.4,35.4,0,0,1-5.846,7.119,16.149,16.149,0,0,1-2.709,2.175,6.586,6.586,0,0,1-8.236-1.042,19.257,19.257,0,0,1-2.346-3.16,113.647,113.647,0,0,1-11.594-24.42c-1.549-4.4-2.8-8.826-3.939-13.332-1.073-4.24-1.68-8.806.045-12.236a7.03,7.03,0,0,1,3.905-3.525,11.671,11.671,0,0,1,4.789-.468,31.81,31.81,0,0,1,8.994,1.573,31.172,31.172,0,0,1,12.288,7.752,32.024,32.024,0,0,1,3.724,4.574" transform="translate(-732.36 -294.186)" fill="#fff" fill-rule="evenodd"/><path d="M820.81,460.613a40.2,40.2,0,0,1,5.458,12.953,44.171,44.171,0,0,1,1.2,11.841,36.261,36.261,0,0,1-1.913,11.029,22.562,22.562,0,0,1-6.621,9.743,18.084,18.084,0,0,1-12.037,4.395,23.412,23.412,0,0,1-10.747-3.028,64.956,64.956,0,0,1-9.943-6.475,75.282,75.282,0,0,1-9.416-8.5c-1.606-1.75-2.95-3.4-4.47-5.38-2.81-3.662-6.028-8.616-7.577-12.841-1.541-4.2-1.66-8.088-.165-11.569a25.481,25.481,0,0,1,3.135-4.945,30.548,30.548,0,0,1,9.943-8.876,31.9,31.9,0,0,1,23.685-3.347,30.9,30.9,0,0,1,10.284,5.011,32.853,32.853,0,0,1,9.1,9.857c.026.044.05.089.079.131" transform="translate(-747.937 -325.004)" fill="#fff" fill-rule="evenodd"/><path d="M953.61,200.961c4.992,5.524,1.742,11.756-4.171,14.816a29,29,0,0,1-11.473,3.156,30.392,30.392,0,0,1-10.449-1.231c-3.225-.989-7.362-2.9-9.158-6.769a7.814,7.814,0,0,1-.171-5.643,10.589,10.589,0,0,1,3.255-4.747,1.627,1.627,0,0,0-.95-.414c-2.365-.5-5.161-1.354-7.09-4.069-2.634-3.7-1.851-7.307-.338-10.12a20.565,20.565,0,0,1,7.9-7.911,37.907,37.907,0,0,1,11.133-4.3,42.835,42.835,0,0,1,10.426-1.267c6.661.119,14.39,1.7,18.61,7.8a12.882,12.882,0,0,1,1.765,11.324,13.9,13.9,0,0,1-9.29,9.378" transform="translate(-830.835 -172.458)" fill="#c18ab3" fill-rule="evenodd"/><g transform="translate(153.214 64.443)"><path d="M1163.337,403.173c-2.038-2.647-3.183,1.719-2.525,2.574,1.407,1.827,3.012-1.4,2.525-2.574" transform="translate(-1116.171 -360.571)" fill="#c18ab3" fill-rule="evenodd"/><path d="M1148.382,414.108c.523-.484.943-2.444-.205-2.992a1,1,0,0,0-.919.1c-.751.581-.905,2.462-.139,3.027a.887.887,0,0,0,1.263-.134" transform="translate(-1109.168 -364.927)" fill="#c18ab3" fill-rule="evenodd"/><path d="M1124.211,444.113c.863-.756-.409-3.76-1.617-2.662-.514.465-.27,1.283-.043,1.954.081.241.022.4.254.622a.947.947,0,0,0,1.406.087" transform="translate(-1097.01 -380.005)" fill="#c18ab3" fill-rule="evenodd"/><path d="M1167.811,379.2c.718-.565,1.086-3.058.46-3.712a1.045,1.045,0,0,0-1.373-.266c-.568.446-.577,1.351-.632,1.9-.039.4-.273,1.394.057,1.826.643.838,1.186.49,1.487.255" transform="translate(-1118.932 -346.942)" fill="#c18ab3" fill-rule="evenodd"/><path d="M1128.852,428.156c-1.485-1.558-2.535.837-1.824,1.671,1.049,1.235,2.184-.717,1.824-1.671" transform="translate(-1099.264 -373.222)" fill="#c18ab3" fill-rule="evenodd"/><path d="M1151.529,390.376a2.514,2.514,0,0,0,.369-3.053,1.119,1.119,0,0,0-1.587-.125c-.442.438-.6,2.437.155,3.053a.875.875,0,0,0,1.063.125" transform="translate(-1110.829 -352.872)" fill="#c18ab3" fill-rule="evenodd"/><path d="M1131.3,410.975c.832-.652,1.123-2.9.605-3.491-1.711-1.96-3.017,2.306-2.141,3.3a1,1,0,0,0,1.536.191" transform="translate(-1100.606 -362.893)" fill="#c18ab3" fill-rule="evenodd"/><path d="M1105.026,442.364a1.507,1.507,0,0,0,.253-1.682c-.222-.718-1.068-2.332-2.009-1.616-.767.585-.439,1.45-.128,2.2.266.639.913,1.84,1.884,1.1" transform="translate(-1087.267 -378.844)" fill="#c18ab3" fill-rule="evenodd"/><path d="M1114.54,427.977c.652-.539.435-2.056-.161-2.642-.625-.613-1.2-.521-1.572-.007-.487.672.181,3.934,1.733,2.649" transform="translate(-1092.191 -371.856)" fill="#c18ab3" fill-rule="evenodd"/><path d="M1159.12,364.387a1.354,1.354,0,0,0-.381-2.088c-1.011-.47-1.883,1.415-.881,2.222a.855.855,0,0,0,1.262-.135" transform="translate(-1114.566 -340.525)" fill="#c18ab3" fill-rule="evenodd"/><path d="M1136.369,387.628c.87-.669,1.732-4.073.722-4.863a1.29,1.29,0,0,0-1.557.108c-.8.723-1.325,3.849-.767,4.51.665.787,1.148.592,1.6.245" transform="translate(-1103.13 -350.684)" fill="#c18ab3" fill-rule="evenodd"/><path d="M1092.7,443.629c1.042-.96-1.12-2.955-1.939-1.978-.692.825.859,2.972,1.939,1.978" transform="translate(-1081.165 -380.094)" fill="#c18ab3" fill-rule="evenodd"/><path d="M1147.389,372.235c1.155-1-.506-3.476-1.61-2.13-.584.713.248,3.308,1.61,2.13" transform="translate(-1108.656 -344.268)" fill="#c18ab3" fill-rule="evenodd"/><path d="M1118.3,402.305a2.418,2.418,0,0,0,.285-2.806c-1.57-1.855-2.637,1.772-1.4,2.749a.844.844,0,0,0,1.112.058" transform="translate(-1094.186 -358.896)" fill="#c18ab3" fill-rule="evenodd"/><path d="M1096.522,417.253c.6-.618.209-1.161-.151-2.111-.235-.618-.319-1.1-.637-1.349a1.076,1.076,0,0,0-1.292-.1c-1.124.917.456,5.236,2.08,3.559" transform="translate(-1082.9 -366.165)" fill="#c18ab3" fill-rule="evenodd"/><path d="M1145.154,349.9c-.934,1.2-2.213,3.586-1.24,4.444,2.108,1.859,4.123-5.4,1.24-4.444" transform="translate(-1107.644 -334.318)" fill="#c18ab3" fill-rule="evenodd"/><path d="M1128.219,371.242c.8-.512,1.381-2.78.44-3.413a1.186,1.186,0,0,0-.832-.148c-.762.271-1.734,2.726-.72,3.5a.849.849,0,0,0,1.112.058" transform="translate(-1099.199 -343.24)" fill="#c18ab3" fill-rule="evenodd"/><path d="M1085.01,426.945a1.09,1.09,0,0,0,.534-.824c.1-.912-1.465-2.595-2.128-1.19-.352.739.5,2.71,1.594,2.014" transform="translate(-1077.539 -371.598)" fill="#c18ab3" fill-rule="evenodd"/><path d="M1115.969,383.29c.883-.6.75-1.618.709-2.674a4.183,4.183,0,0,0-.381-2.086,1.412,1.412,0,0,0-1.681-.411c-.784.588-.7,1.978-.693,2.79,0,.694-.056,2.017,1.079,2.543a1.035,1.035,0,0,0,.967-.163" transform="translate(-1092.825 -348.4)" fill="#c18ab3" fill-rule="evenodd"/><path d="M1102.258,402.856a1.945,1.945,0,0,0,.019-2.6c-1.54-1.513-2.531,1.216-1.506,2.345.516.569.943.683,1.486.255" transform="translate(-1086.044 -359.311)" fill="#c18ab3" fill-rule="evenodd"/><path d="M1147.679,332.984c1.1-.728-.208-3.585-1.373-2.571-.742.646-.067,3.526,1.373,2.571" transform="translate(-1108.862 -324.516)" fill="#c18ab3" fill-rule="evenodd"/><path d="M1128.936,348.028c.483-.346.972-1.759.524-2.3-1.255-1.514-2.974,1.269-1.686,2.307a.869.869,0,0,0,1.162-.005" transform="translate(-1099.522 -332.057)" fill="#c18ab3" fill-rule="evenodd"/><path d="M1080.9,403.322c.611-.516.328-1.308.063-2.251-.242-.863-.888-2.845-1.974-1.8-.709.682-.337,1.859-.069,2.665.3.915.955,2.246,1.981,1.384" transform="translate(-1075.159 -358.894)" fill="#c18ab3" fill-rule="evenodd"/><path d="M1100.974,373.331c.712-.524.685-1.717.693-2.792.006-.879,0-1.765-.79-2.1-1.3-.549-1.823,2.458-1.8,3.265a2.089,2.089,0,0,0,.926,1.791,1.024,1.024,0,0,0,.968-.162" transform="translate(-1085.408 -343.597)" fill="#c18ab3" fill-rule="evenodd"/><path d="M1110.631,354.815c.7-.492.6-1.38.509-2.417-.078-.875-.035-1.723-.626-2.178a1.054,1.054,0,0,0-1.343-.034c-.422.411-.4,1.517-.392,2.4.009.836.463,3.2,1.853,2.225" transform="translate(-1090.254 -334.395)" fill="#c18ab3" fill-rule="evenodd"/><path d="M1088.361,383.315c.7-.518.609-2.664-.514-3.136a1.058,1.058,0,0,0-1.2.6c-.4.747.363,3.531,1.719,2.533" transform="translate(-1079.139 -349.478)" fill="#c18ab3" fill-rule="evenodd"/><path d="M1128.877,323.267c.562-.434.553-1.081.437-2.055a4.226,4.226,0,0,0-.466-1.841,1.157,1.157,0,0,0-1.667-.295c-.672.633-.652,3.778.792,4.4a.846.846,0,0,0,.9-.214" transform="translate(-1099.241 -318.838)" fill="#c18ab3" fill-rule="evenodd"/><path d="M1073.983,383.275c.457-.4.425-1.124.208-2.031-.232-.972-1.014-2.817-2.088-1.786-.647.622-.376,3.181.488,3.848a1.015,1.015,0,0,0,1.392-.031" transform="translate(-1071.745 -348.986)" fill="#c18ab3" fill-rule="evenodd"/><path d="M1092.27,360.943a2.185,2.185,0,0,0,.233-2.744,1.208,1.208,0,0,0-1.652-.177c-.926.817-.169,3.982,1.419,2.921" transform="translate(-1081.094 -338.299)" fill="#c18ab3" fill-rule="evenodd"/><path d="M1076.914,363.677a1.2,1.2,0,0,0,.415-.4,2.34,2.34,0,0,0-.849-2.567.911.911,0,0,0-1.154.537c-.359.653.317,3.226,1.588,2.429" transform="translate(-1073.487 -339.733)" fill="#c18ab3" fill-rule="evenodd"/><path d="M1105.635,323.416c.8-.584,1.215-1.953.428-2.586a1.052,1.052,0,0,0-1.277.019,3.32,3.32,0,0,0-.827,1.741,1.054,1.054,0,0,0,1.676.826" transform="translate(-1087.846 -319.73)" fill="#c18ab3" fill-rule="evenodd"/><path d="M1087.294,334.494a1.782,1.782,0,0,0,.149-2.5c-1.277-1.074-2.4,1.454-1.686,2.306a.974.974,0,0,0,1.538.189" transform="translate(-1078.638 -325.286)" fill="#c18ab3" fill-rule="evenodd"/><path d="M1077.241,345.881c.69-.51.851-3.116-.578-3.187-1.342-.067-1.5,2.478-.83,3.1a1.094,1.094,0,0,0,1.408.087" transform="translate(-1073.596 -330.761)" fill="#c18ab3" fill-rule="evenodd"/></g><path d="M1012.469,301.336a7.605,7.605,0,0,1,1.646,6.252,8.2,8.2,0,0,1-3.068,4.383c-4.8,3.061-10.254-.57-10.875-5.4a7.1,7.1,0,0,1,3.231-6.9,6.9,6.9,0,0,1,9.067,1.658" transform="translate(-876.981 -241.084)" fill="#fff" fill-rule="evenodd"/><g transform="translate(60.44 11.008)"><path d="M923.708,206.459c1.436,1.709-2.681,2.941-2.624.867.015-.555,1.128-1.275,1.636-1.347a1.108,1.108,0,0,1,.989.48" transform="translate(-892.948 -200.217)" fill="#fff" fill-rule="evenodd"/><path d="M910.588,195.339c1.312,1.319-1.507,2.535-2.228,1.524-.894-1.255,1.463-2.295,2.228-1.524" transform="translate(-886.489 -194.771)" fill="#fff" fill-rule="evenodd"/><path d="M907.053,211.352c1.5,1.713-2.568,4.134-3.43,2.43-.377-.742.678-2.088,1.719-2.654a1.268,1.268,0,0,1,1.71.225" transform="translate(-884.181 -202.681)" fill="#fff" fill-rule="evenodd"/><path d="M915.36,224.484c.018.022.1.024.143.093.713,1.188-1.205,2.234-2.069,1.789-1.916-.991.75-3.284,1.926-1.882" transform="translate(-888.788 -209.25)" fill="#fff" fill-rule="evenodd"/><path d="M918.7,241.748c1.362,1.171-1.04,2.5-1.8,1.8-1.343-1.23.86-2.608,1.8-1.8" transform="translate(-890.645 -217.98)" fill="#fff" fill-rule="evenodd"/><path d="M888.252,194.805c1.144,1.142-.955,2.418-1.83,2.183a1.18,1.18,0,0,1-.416-1.994,1.72,1.72,0,0,1,2.246-.189" transform="translate(-875.221 -194.467)" fill="#fff" fill-rule="evenodd"/><path d="M892.354,204.156c1.673,1.736-3.161,4.487-4.069,2.817-.747-1.372,2.851-4.08,4.069-2.817" transform="translate(-876.503 -199.147)" fill="#fff" fill-rule="evenodd"/><path d="M904.807,237.164c1.578,1.512-2.08,3.162-2.923,1.676-.81-1.429,2-2.557,2.923-1.676" transform="translate(-883.279 -215.653)" fill="#fff" fill-rule="evenodd"/><path d="M896.218,225.624c1.369,1.515-1.442,2.66-2.148,1.656-.549-.783.335-1.851,1.2-2.07a.952.952,0,0,1,.949.415" transform="translate(-879.361 -209.822)" fill="#fff" fill-rule="evenodd"/><path d="M883.681,218.583c1.391,1.382-1.407,3.187-2.334,2.217-1.2-1.256,1.246-3.3,2.334-2.217" transform="translate(-872.924 -206.369)" fill="#fff" fill-rule="evenodd"/><path d="M902.372,253.873c1.009.941.055,1.767-1.031,2.059a2.749,2.749,0,0,1-1.343.092,1.39,1.39,0,0,1-.577-1.536,2.128,2.128,0,0,1,2.951-.615" transform="translate(-882.081 -223.985)" fill="#fff" fill-rule="evenodd"/><path d="M871.854,209.667a2.07,2.07,0,0,1-.155,2.785,1.089,1.089,0,0,1-1.7-.5c-.334-.749.54-3.46,1.856-2.287" transform="translate(-867.378 -201.92)" fill="#fff" fill-rule="evenodd"/><path d="M886.682,236.342c1.44,1.371-1.522,3.34-2.4,2.255-1.092-1.349,1.327-3.276,2.4-2.255" transform="translate(-874.416 -215.255)" fill="#fff" fill-rule="evenodd"/><path d="M882.718,252.829c1.327,1.473-2.33,4-3.238,2.314-.657-1.22,2.165-3.5,3.238-2.314" transform="translate(-872.104 -223.473)" fill="#fff" fill-rule="evenodd"/><path d="M867.716,234.979c1.241,1.429-1.714,3.954-2.719,2.449-.8-1.2,1.477-3.877,2.719-2.449" transform="translate(-864.83 -214.512)" fill="#fff" fill-rule="evenodd"/><path d="M871,248.977c1.252,1.358-1.153,2.79-1.917,1.6-.679-1.053.924-2.681,1.917-1.6" transform="translate(-866.873 -221.537)" fill="#fff" fill-rule="evenodd"/></g><path d="M986.053,294.448a3.247,3.247,0,0,1-1.034,5.339,3.542,3.542,0,0,1-4.659-2.706,3.449,3.449,0,0,1,.675-2.594,3.148,3.148,0,0,1,5.018-.039" transform="translate(-865.941 -237.921)" fill="#fff" fill-rule="evenodd"/><path d="M851.932,357.886c-5.025,4.89-12.168,7.664-17.609,7.04a10.92,10.92,0,0,1-7.594-4.033,14.825,14.825,0,0,1-3.091-9.175,16.455,16.455,0,0,1,2.147-8.03,18.488,18.488,0,0,1,6.716-6.837,15.956,15.956,0,0,1,17.106-.631,43.261,43.261,0,0,1,6.6-15.567A35.59,35.59,0,0,1,871.657,308a26.787,26.787,0,0,1,17.372-1.062,22.87,22.87,0,0,1,7.706,3.786,25.409,25.409,0,0,1,5.232,5.19c6.937,9.161,7.292,19.765,5.692,27.532a39.489,39.489,0,0,1-11.244,21.061A34.757,34.757,0,0,1,884,372.187a26.407,26.407,0,0,1-12.16,1.148c-7.628-1.064-15.01-5.263-19.907-15.449" transform="translate(-783.592 -247.388)" fill="#fff" fill-rule="evenodd"/><path d="M758.823,300.075c2.55,3.645,3.9,8.572,3.633,11.811-.3,3.728-2.289,7.2-6.518,9.77a17.437,17.437,0,0,1-6.379,2.325c-2.87.483-6.1.622-8.048-2.323a11.384,11.384,0,0,1-1.493-6.819,25.889,25.889,0,0,1,3.9-11.783,18.134,18.134,0,0,1,4.67-5.153c2.607-1.831,5-2.031,7.005-1a9.766,9.766,0,0,1,3.226,3.17" transform="translate(-736.174 -240.218)" fill="#fff" fill-rule="evenodd"/><path d="M1037.078,236.241a28.361,28.361,0,0,1-3.089-9.446,31.1,31.1,0,0,1-.148-8.407,25.509,25.509,0,0,1,2-7.645,15.9,15.9,0,0,1,5.255-6.454,12.827,12.827,0,0,1,8.765-2.361,16.649,16.649,0,0,1,7.413,2.783,46.178,46.178,0,0,1,6.641,5.16,53.406,53.406,0,0,1,6.149,6.554c1.032,1.329,1.883,2.57,2.841,4.056a38.462,38.462,0,0,1,4.592,9.5,10.754,10.754,0,0,1-.57,8.154,17.816,17.816,0,0,1-2.508,3.289,21.55,21.55,0,0,1-7.552,5.642,22.68,22.68,0,0,1-16.932.917,21.957,21.957,0,0,1-6.97-4.151,23.273,23.273,0,0,1-5.844-7.49c-.016-.033-.031-.067-.049-.1" transform="translate(-899.476 -187.16)" fill="#fff" fill-rule="evenodd"/><path d="M796.428,246.7a5.128,5.128,0,0,1-.335-4.7c6.241-14.326,17.479-25.026,17.955-25.474a4.964,4.964,0,0,1,7.066.328,5.1,5.1,0,0,1-.161,7.149c-.1.093-10.281,9.826-15.7,22.258a4.882,4.882,0,0,1-6.58,2.458,5.164,5.164,0,0,1-2.247-2.02" transform="translate(-761.198 -193.826)" fill="#f7af31"/><path d="M755.514,394.327a6.274,6.274,0,0,1-.174-6.242l8.913-16.34a6,6,0,0,1,8.309-2.28,6.334,6.334,0,0,1,2.448,8.468L766.1,394.273a6,6,0,0,1-8.309,2.281,6.346,6.346,0,0,1-2.273-2.226" transform="translate(-743.473 -279.853)" fill="#c18ab3"/></g><g transform="translate(932 168.378)"><g transform="translate(0 0)" clip-path="url(#a)"><g transform="translate(27.626 27.794)"><g transform="translate(-101.032 113.776)"><path d="M821.438,475.678a4.393,4.393,0,0,1-4.894,3.821l-36.313-4.381a4.384,4.384,0,0,1-3.836-4.875l1.656-13.608a4.393,4.393,0,0,1,4.894-3.82l36.313,4.382a4.383,4.383,0,0,1,3.837,4.873Z" transform="translate(-776.362 -452.783)" fill="#f7af31"/><g transform="translate(3.145 2.701)"><path d="M798.324,472.284a2.39,2.39,0,0,1-.284-.017l-12.438-1.5a2.336,2.336,0,0,1-2.046-2.6l.868-7.141a2.343,2.343,0,0,1,2.325-2.055,2.4,2.4,0,0,1,.285.017l12.438,1.5a2.337,2.337,0,0,1,2.045,2.6l-.868,7.141A2.342,2.342,0,0,1,798.324,472.284Zm-11.575-12.466a1.493,1.493,0,0,0-1.482,1.31l-.869,7.141a1.49,1.49,0,0,0,1.3,1.657l12.438,1.5a1.494,1.494,0,0,0,1.664-1.3l.868-7.141a1.491,1.491,0,0,0-1.3-1.658l-12.438-1.5A1.528,1.528,0,0,0,786.749,459.818Z" transform="translate(-783.538 -458.972)" fill="#fff"/><path d="M795.236,466.93a.424.424,0,0,1-.305-.129l-6.593-6.773a.422.422,0,0,1,.01-.6.426.426,0,0,1,.6.01l6.358,6.532,7.711-4.623a.424.424,0,1,1,.438.725l-8,4.8A.426.426,0,0,1,795.236,466.93Z" transform="translate(-786.167 -459.162)" fill="#fff"/><g transform="translate(18.582 5.191)"><path d="M848.238,474.215a.415.415,0,0,1-.052,0l-20.76-2.5a.424.424,0,0,1-.371-.471.428.428,0,0,1,.473-.369l20.76,2.505a.423.423,0,0,1-.05.843Z" transform="translate(-826.561 -470.864)" fill="#fff"/><path d="M837.125,482.259a.5.5,0,0,1-.052,0l-10.768-1.3a.424.424,0,0,1-.371-.471.429.429,0,0,1,.473-.369l10.768,1.3a.423.423,0,0,1-.05.843Z" transform="translate(-825.932 -476.076)" fill="#fff"/></g></g></g><g transform="translate(-253 20.318)"><g transform="translate(1.58 3)"><path d="M769.7,269.555l13.927,55.376a8.972,8.972,0,0,0,11.014,6.256l85.927-21.432a8.93,8.93,0,0,0,6.752-10.687l-13.927-55.376Z" transform="translate(-767.652 -230.016)" fill="#152f8c" fill-rule="evenodd"/><path d="M868.976,218.9a8.974,8.974,0,0,0-11.015-6.257L772.034,234.08a8.93,8.93,0,0,0-6.752,10.689l1.793,7.13,103.694-25.863Z" transform="translate(-765.028 -212.361)" fill="#fff" fill-rule="evenodd"/><path d="M956.342,230.941a3.5,3.5,0,1,1-4.251-2.54,3.49,3.49,0,0,1,4.251,2.54" transform="translate(-868.606 -221.34)" fill="#dba7cb"/><path d="M973.337,230.595l3.89-.97-2.79-2.87-2.788-2.87-1.1,3.84-1.1,3.841Z" transform="translate(-879.846 -218.854)" fill="#dba7cb"/></g><g transform="translate(9.996 21.309)"><g transform="translate(0 11.988)"><path d="M842.768,336.559a3,3,0,0,1-2.194,3.644l-37.511,9.356a3.018,3.018,0,0,1-3.66-2.184l-11.479-45.641a3,3,0,0,1,2.193-3.644l37.511-9.356a3.018,3.018,0,0,1,3.66,2.185Z" transform="translate(-787.834 -288.642)" fill="#fff" opacity="0.3"/><path d="M826.14,323.8a11.44,11.44,0,1,1-13.879-8.285A11.392,11.392,0,0,1,826.14,323.8Z" transform="translate(-796.687 -303.589)" fill="#fff"/><path d="M803.5,345.384a12.712,12.712,0,0,0,17.5,5.777L814.75,339.1Z" transform="translate(-796.635 -317.076)" fill="#dba7cb"/><g transform="translate(29.629 9.72)"><path d="M855.855,314.346a.423.423,0,0,1-.1-.834l10.377-2.588a.423.423,0,1,1,.207.821l-10.377,2.588A.449.449,0,0,1,855.855,314.346Z" transform="translate(-855.43 -310.911)" fill="#fff"/><path d="M857.712,321.758a.423.423,0,0,1-.1-.834l10.377-2.588a.423.423,0,1,1,.207.821l-10.377,2.588A.443.443,0,0,1,857.712,321.758Z" transform="translate(-856.473 -315.088)" fill="#fff"/><path d="M859.351,328.3a.423.423,0,0,1-.1-.834l10.377-2.588a.423.423,0,1,1,.206.821l-10.376,2.588A.449.449,0,0,1,859.351,328.3Z" transform="translate(-857.394 -318.776)" fill="#fff"/><path d="M861.208,335.715a.423.423,0,0,1-.1-.834l10.376-2.588a.423.423,0,1,1,.207.821L861.311,335.7A.421.421,0,0,1,861.208,335.715Z" transform="translate(-858.437 -322.953)" fill="#fff"/><path d="M863.064,343.127a.423.423,0,0,1-.1-.834l10.377-2.588a.423.423,0,1,1,.207.821l-10.377,2.588A.446.446,0,0,1,863.064,343.127Z" transform="translate(-859.479 -327.13)" fill="#fff"/><path d="M864.7,349.671a.423.423,0,0,1-.1-.834l10.377-2.588a.423.423,0,1,1,.206.821l-10.377,2.588A.445.445,0,0,1,864.7,349.671Z" transform="translate(-860.4 -330.817)" fill="#fff"/></g><g transform="translate(11.981 31.377)"><path d="M815.593,369.912a.423.423,0,0,1-.1-.834l34.247-8.541a.423.423,0,1,1,.206.821L815.7,369.9A.447.447,0,0,1,815.593,369.912Z" transform="translate(-815.168 -360.525)" fill="#fff"/><path d="M817.449,377.324a.423.423,0,0,1-.1-.834l34.247-8.542a.423.423,0,1,1,.207.821l-34.247,8.542A.452.452,0,0,1,817.449,377.324Z" transform="translate(-816.211 -364.701)" fill="#fff"/><path d="M819.088,383.868a.423.423,0,0,1-.1-.834l34.247-8.542a.423.423,0,1,1,.206.821l-34.247,8.542A.426.426,0,0,1,819.088,383.868Z" transform="translate(-817.131 -368.389)" fill="#fff"/><path d="M820.945,391.281a.423.423,0,0,1-.1-.834l34.247-8.541a.423.423,0,1,1,.207.821l-34.247,8.542A.446.446,0,0,1,820.945,391.281Z" transform="translate(-818.174 -372.566)" fill="#fff"/><path d="M822.8,398.693a.423.423,0,0,1-.1-.834l34.247-8.542a.424.424,0,1,1,.206.822L822.9,398.68A.424.424,0,0,1,822.8,398.693Z" transform="translate(-819.217 -376.742)" fill="#fff"/><path d="M824.44,405.237a.423.423,0,0,1-.1-.834l34.247-8.541a.423.423,0,1,1,.207.821l-34.247,8.542A.445.445,0,0,1,824.44,405.237Z" transform="translate(-820.137 -380.43)" fill="#fff"/></g><path d="M863.753,298.32a1.745,1.745,0,0,1-1.274,2.117l-7.973,1.988a1.753,1.753,0,0,1-2.125-1.268h0a1.745,1.745,0,0,1,1.274-2.117l7.973-1.989a1.753,1.753,0,0,1,2.125,1.269Z" transform="translate(-824.059 -293.351)" fill="#fff"/></g><g transform="translate(48.063)"><path d="M897.578,274.27a3,3,0,0,1,2.194-3.644l37.511-9.356a3.017,3.017,0,0,1,3.659,2.185L952.422,309.1a3,3,0,0,1-2.194,3.644L912.717,322.1a3.018,3.018,0,0,1-3.66-2.185Z" transform="translate(-897.487 -261.179)" fill="#fff" opacity="0.3"/><path d="M955.386,336.363a11.439,11.439,0,1,1,13.88,8.285A11.393,11.393,0,0,1,955.386,336.363Z" transform="translate(-929.814 -295.563)" fill="#fff"/><path d="M984.926,326.681a12.71,12.71,0,0,0-17.5-5.777l6.257,12.059Z" transform="translate(-936.769 -293.981)" fill="#f7af31"/><g transform="translate(10.291 32.433)"><path d="M930.239,374.241a.423.423,0,0,1-.1-.834l10.377-2.588a.424.424,0,1,1,.206.822l-10.377,2.588A.444.444,0,0,1,930.239,374.241Z" transform="translate(-925.936 -355.388)" fill="#fff"/><path d="M928.382,366.829a.423.423,0,0,1-.1-.834l10.377-2.588a.423.423,0,1,1,.206.821l-10.377,2.588A.451.451,0,0,1,928.382,366.829Z" transform="translate(-924.893 -351.211)" fill="#fff"/><path d="M926.744,360.285a.423.423,0,0,1-.1-.834l10.376-2.588a.424.424,0,1,1,.207.821l-10.377,2.588A.445.445,0,0,1,926.744,360.285Z" transform="translate(-923.973 -347.523)" fill="#fff"/><path d="M924.887,352.873a.423.423,0,0,1-.1-.834l10.377-2.588a.423.423,0,1,1,.206.821l-10.376,2.589A.449.449,0,0,1,924.887,352.873Z" transform="translate(-922.93 -343.346)" fill="#fff"/><path d="M923.03,345.461a.423.423,0,0,1-.1-.834l10.377-2.588a.423.423,0,1,1,.206.821l-10.377,2.588A.424.424,0,0,1,923.03,345.461Z" transform="translate(-921.887 -339.17)" fill="#fff"/><path d="M921.392,338.916a.423.423,0,0,1-.1-.834l10.376-2.588a.424.424,0,1,1,.207.822L921.495,338.9A.42.42,0,0,1,921.392,338.916Z" transform="translate(-920.967 -335.482)" fill="#fff"/></g><g transform="translate(4.069 4.824)"><path d="M916.043,316.943a.423.423,0,0,1-.1-.834l34.247-8.542a.424.424,0,1,1,.206.822l-34.247,8.542A.441.441,0,0,1,916.043,316.943Z" transform="translate(-911.74 -292.136)" fill="#fff"/><path d="M914.187,309.532a.423.423,0,0,1-.1-.834l34.247-8.541a.423.423,0,1,1,.206.821l-34.247,8.542A.445.445,0,0,1,914.187,309.532Z" transform="translate(-910.697 -287.96)" fill="#fff"/><path d="M912.547,302.987a.423.423,0,0,1-.1-.834l34.247-8.542a.423.423,0,1,1,.206.821l-34.247,8.542A.424.424,0,0,1,912.547,302.987Z" transform="translate(-909.777 -284.271)" fill="#fff"/><path d="M910.691,295.575a.423.423,0,0,1-.1-.834l34.247-8.542a.423.423,0,1,1,.206.821l-34.247,8.542A.449.449,0,0,1,910.691,295.575Z" transform="translate(-908.734 -280.095)" fill="#fff"/><path d="M908.835,288.163a.423.423,0,0,1-.1-.834l34.247-8.541a.423.423,0,1,1,.207.821l-34.247,8.542A.445.445,0,0,1,908.835,288.163Z" transform="translate(-907.691 -275.918)" fill="#fff"/><path d="M907.2,281.619a.423.423,0,0,1-.1-.834l34.247-8.542a.424.424,0,1,1,.207.822L907.3,281.606A.442.442,0,0,1,907.2,281.619Z" transform="translate(-906.771 -272.231)" fill="#fff"/></g><path d="M932.4,384.193a1.744,1.744,0,0,1,1.274-2.116l7.973-1.989a1.753,1.753,0,0,1,2.125,1.269h0a1.745,1.745,0,0,1-1.274,2.117l-7.973,1.988a1.753,1.753,0,0,1-2.125-1.269Z" transform="translate(-917.066 -328.155)" fill="#fff"/></g></g></g><g transform="translate(-150.02 41.166)"><path d="M1002.409,238.543a5.54,5.54,0,0,1-4.032,6.732l-54.584,13.743a5.567,5.567,0,0,1-6.76-4.015l-.165-.651a5.54,5.54,0,0,1,4.032-6.731l54.583-13.742a5.567,5.567,0,0,1,6.76,4.015Z" transform="translate(-936.696 -233.708)" fill="#f7af31"/><g transform="translate(4.725 7.731)"><g transform="translate(0 7.24)"><g transform="translate(0 0.103)"><path d="M949.4,275.112a1.1,1.1,0,0,1-1.071-.832l-.824-3.245a1.1,1.1,0,0,1,.8-1.338l5.652-1.423a1.12,1.12,0,0,1,.271-.034,1.1,1.1,0,0,1,1.072.832l.824,3.245a1.1,1.1,0,0,1-.8,1.337l-5.653,1.423A1.119,1.119,0,0,1,949.4,275.112Zm4.829-6.448a.686.686,0,0,0-.167.021l-5.651,1.423a.677.677,0,0,0-.493.824l.824,3.245a.678.678,0,0,0,.659.512.7.7,0,0,0,.167-.021l5.652-1.423a.679.679,0,0,0,.493-.823l-.824-3.245A.679.679,0,0,0,954.234,268.664Z" transform="translate(-947.475 -268.241)" fill="#fff"/><path d="M952.32,272.3a.219.219,0,0,1-.089-.019l-4-1.841a.212.212,0,1,1,.178-.384l3.849,1.77,2.563-3.283a.212.212,0,1,1,.335.259l-2.667,3.417A.212.212,0,0,1,952.32,272.3Z" transform="translate(-947.83 -268.363)" fill="#fff"/></g><path d="M969.48,273.033a.211.211,0,0,1-.052-.416l18.295-4.606a.213.213,0,0,1,.258.154.211.211,0,0,1-.154.257l-18.295,4.606A.218.218,0,0,1,969.48,273.033Z" transform="translate(-959.716 -268.005)" fill="#fff"/></g><g transform="translate(30.185)"><g transform="translate(0 0.447)"><path d="M1021.143,256.383a.826.826,0,0,1-.082.168,1.705,1.705,0,1,1,.189-1.293l.312,1.227a.281.281,0,0,0,.386.229q.8-.2.411-1.736a2.858,2.858,0,0,0-3.471-2.061,2.846,2.846,0,1,0,1.4,5.518,2.982,2.982,0,0,0,.575-.208,2.683,2.683,0,0,0,.5-.317.268.268,0,0,1,.094-.046.185.185,0,0,1,.143.02.18.18,0,0,1,.088.117.17.17,0,0,1-.022.143.255.255,0,0,1-.054.065,3.187,3.187,0,0,1-1.234.6,3.218,3.218,0,1,1,2.348-3.92q.482,1.9-.689,2.2a.617.617,0,0,1-.848-.5Zm-1.883-2a1.337,1.337,0,1,0,1.012.149A1.288,1.288,0,0,0,1019.26,254.386Z" transform="translate(-1016.339 -252.442)" fill="#fff"/></g><path d="M1033.215,256.449a.212.212,0,0,1-.052-.417l18.3-4.606a.212.212,0,1,1,.1.41l-18.3,4.606A.214.214,0,0,1,1033.215,256.449Z" transform="translate(-1025.699 -251.419)" fill="#fff"/></g></g></g><g transform="translate(-52.855 34.798)"><path d="M950.692,309.235l-7.27,36.978A5.642,5.642,0,0,0,947.8,352.9l66.582,12.983a5.664,5.664,0,0,0,6.583-4.547l7.283-37.045Z" transform="translate(-943.311 -302.286)" fill="#fff"/><g transform="translate(2.754 15.342)"><g transform="translate(2.953)"><g transform="translate(1.476)"><path d="M969.964,338.189l-.02,0-10.159-1.972a.106.106,0,0,1-.084-.124l1.476-7.544a.107.107,0,0,1,.125-.084l10.159,1.972a.106.106,0,0,1,.068.045.107.107,0,0,1,.016.079l-1.477,7.544a.106.106,0,0,1-.045.068A.108.108,0,0,1,969.964,338.189Zm-10.034-2.162,9.951,1.932,1.436-7.336-9.951-1.932Z" transform="translate(-959.698 -328.462)" fill="#152f8c"/><path d="M993.141,342.705l-.021,0-10.159-1.971a.106.106,0,0,1-.084-.124l1.476-7.544A.109.109,0,0,1,984.4,333a.107.107,0,0,1,.08-.016l10.159,1.972a.106.106,0,0,1,.084.124l-1.477,7.543A.106.106,0,0,1,993.141,342.705Zm-10.035-2.161,9.951,1.931,1.436-7.335-9.95-1.932Z" transform="translate(-972.717 -331.007)" fill="#152f8c"/><path d="M1016.318,347.224l-.02,0-10.159-1.972a.106.106,0,0,1-.084-.124l1.476-7.543a.108.108,0,0,1,.125-.084l10.159,1.972a.107.107,0,0,1,.084.124l-1.476,7.543a.107.107,0,0,1-.045.068A.109.109,0,0,1,1016.318,347.224Zm-10.035-2.162,9.951,1.932,1.435-7.336-9.95-1.931Z" transform="translate(-985.735 -333.553)" fill="#152f8c"/><path d="M1039.5,351.74l-.021,0-10.159-1.972a.107.107,0,0,1-.084-.124l1.476-7.543a.106.106,0,0,1,.125-.084l10.159,1.972a.105.105,0,0,1,.084.124l-1.476,7.543A.105.105,0,0,1,1039.5,351.74Zm-10.035-2.161,9.951,1.932,1.436-7.336-9.951-1.932Z" transform="translate(-998.753 -336.098)" fill="#152f8c"/><path d="M1062.673,356.258l-.021,0-10.159-1.971a.106.106,0,0,1-.084-.124l1.476-7.543a.107.107,0,0,1,.125-.084l10.159,1.972a.106.106,0,0,1,.084.124l-1.477,7.544A.106.106,0,0,1,1062.673,356.258Zm-10.035-2.161,9.95,1.931,1.436-7.336-9.95-1.931Z" transform="translate(-1011.771 -338.644)" fill="#152f8c"/><path d="M1085.851,360.774l-.021,0-10.159-1.972a.106.106,0,0,1-.084-.124l1.477-7.544a.107.107,0,0,1,.125-.083l10.159,1.972a.106.106,0,0,1,.084.124l-1.476,7.543A.106.106,0,0,1,1085.851,360.774Zm-10.035-2.162,9.951,1.932,1.436-7.335-9.95-1.932Z" transform="translate(-1024.789 -341.189)" fill="#152f8c"/><path d="M1109.028,365.292l-.02,0-10.159-1.972a.106.106,0,0,1-.084-.124l1.476-7.543a.108.108,0,0,1,.125-.084l10.159,1.972a.106.106,0,0,1,.084.124l-1.476,7.543a.106.106,0,0,1-.1.086Zm-10.035-2.161,9.951,1.932,1.436-7.336-9.95-1.932Z" transform="translate(-1037.808 -343.735)" fill="#152f8c"/></g><g transform="translate(0 7.543)"><path d="M966.6,355.47l-.02,0L956.416,353.5a.105.105,0,0,1-.084-.124l1.476-7.543a.1.1,0,0,1,.045-.068.106.106,0,0,1,.079-.016l10.159,1.972a.106.106,0,0,1,.084.124l-1.476,7.543a.107.107,0,0,1-.045.068A.109.109,0,0,1,966.6,355.47Zm-10.034-2.161,9.95,1.931,1.436-7.336L958,345.973Z" transform="translate(-956.33 -345.744)" fill="#152f8c"/><path d="M989.773,359.987l-.021,0-10.159-1.971a.106.106,0,0,1-.068-.045.108.108,0,0,1-.016-.079l1.476-7.543a.108.108,0,0,1,.125-.084l10.159,1.972a.105.105,0,0,1,.084.124l-1.476,7.543A.106.106,0,0,1,989.773,359.987Zm-10.035-2.161,9.951,1.931,1.435-7.335-9.95-1.931Z" transform="translate(-969.349 -348.289)" fill="#152f8c"/><path d="M1012.951,364.5l-.02,0-10.159-1.972a.106.106,0,0,1-.084-.124l1.476-7.543a.107.107,0,0,1,.125-.084l10.159,1.972a.106.106,0,0,1,.084.124l-1.476,7.543a.106.106,0,0,1-.045.068A.109.109,0,0,1,1012.951,364.5Zm-10.034-2.162,9.95,1.932,1.436-7.336-9.951-1.931Z" transform="translate(-982.367 -350.834)" fill="#152f8c"/><path d="M1036.128,369.022l-.021,0-10.159-1.972a.108.108,0,0,1-.068-.045.107.107,0,0,1-.016-.079l1.476-7.543a.108.108,0,0,1,.125-.084l10.159,1.972a.106.106,0,0,1,.084.124l-1.476,7.543a.108.108,0,0,1-.045.068A.106.106,0,0,1,1036.128,369.022Zm-10.035-2.161,9.951,1.932,1.436-7.336-9.95-1.931Z" transform="translate(-995.385 -353.38)" fill="#152f8c"/><path d="M1059.305,373.539l-.02,0-10.159-1.972a.107.107,0,0,1-.084-.124l1.476-7.543a.107.107,0,0,1,.125-.083l10.159,1.971a.106.106,0,0,1,.084.124l-1.476,7.543a.106.106,0,0,1-.1.086Zm-10.035-2.161,9.95,1.932,1.436-7.336-9.95-1.931Z" transform="translate(-1008.403 -355.926)" fill="#152f8c"/><path d="M1082.483,378.055l-.02,0-10.159-1.972a.106.106,0,0,1-.084-.124l1.476-7.543a.105.105,0,0,1,.045-.068.107.107,0,0,1,.08-.016l10.159,1.972a.106.106,0,0,1,.084.124l-1.476,7.543a.106.106,0,0,1-.1.086Zm-10.034-2.161,9.951,1.932,1.436-7.336-9.951-1.932Z" transform="translate(-1021.422 -358.47)" fill="#152f8c"/><path d="M1105.66,382.572l-.021,0-10.159-1.972a.106.106,0,0,1-.084-.124l1.476-7.544a.107.107,0,0,1,.125-.084l10.159,1.972a.106.106,0,0,1,.084.124l-1.476,7.544A.106.106,0,0,1,1105.66,382.572Zm-10.035-2.161,9.951,1.932,1.436-7.336-9.951-1.931Z" transform="translate(-1034.44 -361.016)" fill="#152f8c"/></g></g><g transform="translate(0 15.087)"><g transform="translate(1.476)"><path d="M963.228,372.751l-.02,0-10.159-1.972a.106.106,0,0,1-.084-.124l1.476-7.543a.106.106,0,0,1,.125-.084L964.724,365a.106.106,0,0,1,.084.124l-1.476,7.543a.1.1,0,0,1-.045.068A.106.106,0,0,1,963.228,372.751Zm-10.034-2.161,9.95,1.931,1.436-7.335-9.951-1.932Z" transform="translate(-952.962 -363.025)" fill="#152f8c"/><path d="M986.405,377.269l-.021,0L976.226,375.3a.106.106,0,0,1-.084-.124l1.476-7.544a.108.108,0,0,1,.125-.083l10.159,1.971a.105.105,0,0,1,.068.045.107.107,0,0,1,.016.079l-1.476,7.544A.106.106,0,0,1,986.405,377.269Zm-10.035-2.161,9.951,1.932,1.436-7.336-9.951-1.931Z" transform="translate(-965.981 -365.571)" fill="#152f8c"/><path d="M1009.582,381.785l-.02,0L999.4,379.812a.106.106,0,0,1-.068-.045.108.108,0,0,1-.016-.079l1.477-7.544a.106.106,0,0,1,.125-.084l10.159,1.972a.106.106,0,0,1,.084.124l-1.476,7.543A.106.106,0,0,1,1009.582,381.785Zm-10.034-2.161,9.95,1.931,1.436-7.336-9.951-1.932Z" transform="translate(-978.999 -368.115)" fill="#152f8c"/><path d="M1032.76,386.3l-.02,0-10.159-1.972a.106.106,0,0,1-.084-.124l1.476-7.544a.108.108,0,0,1,.125-.084l10.159,1.972a.106.106,0,0,1,.084.124l-1.477,7.543A.106.106,0,0,1,1032.76,386.3Zm-10.034-2.161,9.95,1.932,1.436-7.336-9.95-1.931Z" transform="translate(-992.017 -370.661)" fill="#152f8c"/><path d="M1055.937,390.82l-.021,0-10.159-1.972a.106.106,0,0,1-.084-.124l1.476-7.544a.108.108,0,0,1,.125-.084l10.159,1.972a.109.109,0,0,1,.068.045.106.106,0,0,1,.016.079l-1.476,7.543A.106.106,0,0,1,1055.937,390.82Zm-10.035-2.161,9.951,1.931,1.436-7.336-9.951-1.931Z" transform="translate(-1005.035 -373.206)" fill="#152f8c"/><path d="M1079.115,395.337l-.02,0-10.159-1.972a.106.106,0,0,1-.084-.124l1.476-7.544a.1.1,0,0,1,.045-.068.108.108,0,0,1,.079-.016l10.159,1.972a.106.106,0,0,1,.084.124l-1.477,7.544a.106.106,0,0,1-.045.068A.108.108,0,0,1,1079.115,395.337Zm-10.035-2.162,9.951,1.932,1.435-7.336-9.95-1.932Z" transform="translate(-1018.054 -375.752)" fill="#152f8c"/><path d="M1102.292,399.855l-.021,0-10.159-1.972a.106.106,0,0,1-.084-.124l1.476-7.543a.108.108,0,0,1,.125-.084l10.159,1.972a.105.105,0,0,1,.068.045.108.108,0,0,1,.016.079l-1.477,7.543A.106.106,0,0,1,1102.292,399.855Zm-10.035-2.161,9.951,1.932,1.436-7.336-9.95-1.932Z" transform="translate(-1031.072 -378.297)" fill="#152f8c"/></g><g transform="translate(0 7.543)"><path d="M959.86,390.033l-.021,0-10.159-1.972a.106.106,0,0,1-.084-.124l1.476-7.543a.106.106,0,0,1,.045-.068.107.107,0,0,1,.08-.016l10.159,1.972a.106.106,0,0,1,.084.124l-1.476,7.544a.1.1,0,0,1-.045.067A.107.107,0,0,1,959.86,390.033Zm-10.035-2.162,9.951,1.931,1.436-7.335-9.951-1.932Z" transform="translate(-949.594 -380.306)" fill="#152f8c"/><path d="M983.038,394.55l-.021,0-10.159-1.972a.106.106,0,0,1-.084-.124l1.476-7.543a.106.106,0,0,1,.124-.084l10.159,1.972a.106.106,0,0,1,.084.124l-1.476,7.544a.1.1,0,0,1-.045.068A.106.106,0,0,1,983.038,394.55ZM973,392.389l9.95,1.931,1.435-7.335-9.95-1.932Z" transform="translate(-962.613 -382.851)" fill="#152f8c"/><path d="M1006.215,399.067l-.02,0-10.159-1.972a.106.106,0,0,1-.084-.124l1.476-7.543a.109.109,0,0,1,.045-.068.107.107,0,0,1,.08-.016l10.159,1.972a.106.106,0,0,1,.084.124l-1.476,7.544a.106.106,0,0,1-.045.068A.109.109,0,0,1,1006.215,399.067Zm-10.034-2.161,9.951,1.932,1.435-7.336-9.951-1.932Z" transform="translate(-975.631 -385.397)" fill="#152f8c"/><path d="M1029.392,403.584l-.021,0-10.159-1.971a.105.105,0,0,1-.068-.045.108.108,0,0,1-.016-.079l1.476-7.543a.106.106,0,0,1,.125-.084l10.159,1.972a.106.106,0,0,1,.084.124L1029.5,403.5A.106.106,0,0,1,1029.392,403.584Zm-10.035-2.161,9.951,1.931,1.435-7.335-9.95-1.932Z" transform="translate(-988.649 -387.942)" fill="#152f8c"/><path d="M1052.569,408.1l-.021,0-10.159-1.972a.106.106,0,0,1-.084-.124l1.476-7.543a.1.1,0,0,1,.045-.068.106.106,0,0,1,.079-.016l10.159,1.972a.106.106,0,0,1,.084.124l-1.476,7.543A.107.107,0,0,1,1052.569,408.1Zm-10.035-2.161,9.951,1.932,1.436-7.335-9.951-1.932Z" transform="translate(-1001.667 -390.488)" fill="#152f8c"/><path d="M1075.747,412.618l-.02,0-10.159-1.972a.106.106,0,0,1-.084-.124l1.476-7.543a.106.106,0,0,1,.045-.068.107.107,0,0,1,.08-.016l10.159,1.972a.106.106,0,0,1,.084.124l-1.476,7.543a.106.106,0,0,1-.045.068A.108.108,0,0,1,1075.747,412.618Zm-10.034-2.161,9.95,1.932,1.436-7.336-9.95-1.932Z" transform="translate(-1014.686 -393.033)" fill="#152f8c"/><path d="M1098.924,417.136l-.02,0-10.159-1.972a.109.109,0,0,1-.068-.045.106.106,0,0,1-.016-.079l1.476-7.543a.108.108,0,0,1,.125-.084l10.159,1.972a.106.106,0,0,1,.084.124l-1.476,7.543a.106.106,0,0,1-.045.068A.108.108,0,0,1,1098.924,417.136Zm-10.034-2.161,9.95,1.932,1.435-7.336-9.95-1.931Z" transform="translate(-1027.704 -395.578)" fill="#152f8c"/></g></g></g><g transform="translate(37.71 16.355)"><g transform="translate(2.613 0.063)"><path d="M1037.924,331.346l-.451,2.306-.3-.059.352-1.8-1,1.108-.039-.008-.513-1.4-.352,1.8-.308-.06.451-2.306.348.067.5,1.362.973-1.076Z" transform="translate(-1035.306 -330.926)" fill="#152f8c"/><path d="M1042.814,335.432a.9.9,0,0,1-1.235-.24.893.893,0,0,1,.241-1.232.9.9,0,0,1,1.235.24.889.889,0,0,1-.241,1.232Zm-.613-.15a.6.6,0,1,0,.23-1.172.573.573,0,0,0-.446.088.614.614,0,0,0-.164.836A.572.572,0,0,0,1042.2,335.282Z" transform="translate(-1038.744 -332.552)" fill="#152f8c"/><path d="M1047.01,334.608a.625.625,0,0,1,.43.273.7.7,0,0,1,.078.53l-.2,1.011-.288-.055.195-.995a.431.431,0,0,0-.048-.333.412.412,0,0,0-.279-.169.476.476,0,0,0-.373.066.571.571,0,0,0-.213.384l-.171.873-.288-.056.322-1.647.288.056-.046.237A.6.6,0,0,1,1047.01,334.608Z" transform="translate(-1041.232 -332.935)" fill="#152f8c"/><path d="M1051.424,335.291l-.44-.085-.175.893a.256.256,0,0,0,.014.182.2.2,0,0,0,.137.081c.065.014.148.028.245.043l-.05.257a.868.868,0,0,1-.54-.168.462.462,0,0,1-.094-.45l.175-.893-.327-.064.054-.277.327.064.074-.375.3-.03-.09.461.44.086Z" transform="translate(-1043.767 -332.922)" fill="#152f8c"/><path d="M1054.1,335.139a.627.627,0,0,1,.43.273.7.7,0,0,1,.078.53l-.2,1.011-.288-.056.195-.994a.431.431,0,0,0-.048-.333.413.413,0,0,0-.279-.169.478.478,0,0,0-.374.066.57.57,0,0,0-.212.384l-.171.873-.288-.056.451-2.306.287.056-.175.9A.6.6,0,0,1,1054.1,335.139Z" transform="translate(-1045.211 -332.863)" fill="#152f8c"/></g><path d="M1030.508,330.782l-1.163.78.777,1.232" transform="translate(-1029.345 -330.782)" fill="#152f8c"/><path d="M1059.751,336.292l.783,1.158-1.185.851" transform="translate(-1046.198 -333.886)" fill="#152f8c"/></g><g transform="translate(10.47 22.408)"><g transform="translate(4.705)"><path d="M978.835,345.649a.416.416,0,0,1-.526.321.446.446,0,0,1-.378-.345l.269-.093a.179.179,0,0,0,.162.165c.116.022.178-.029.193-.1s-.024-.146-.14-.168l-.057-.011-.075-.179.277-.237-.448-.087.051-.261.788.153-.044.227-.265.227A.366.366,0,0,1,978.835,345.649Z" transform="translate(-977.931 -344.65)" fill="#152f8c"/><path d="M980.984,345.228l-.238,1.22-.28-.054.181-.925-.229.017-.021-.252.343-.053Z" transform="translate(-979.316 -344.949)" fill="#152f8c"/><g transform="translate(11.048 2.166)"><path d="M1003.725,349.66l-.239,1.22-.28-.055.181-.925-.228.017-.021-.252.343-.053Z" transform="translate(-1003.137 -349.612)" fill="#152f8c"/></g><g transform="translate(21.003 4.122)"><path d="M1025.887,355.067l.494-.345a.355.355,0,0,0,.167-.192.124.124,0,0,0-.106-.155.2.2,0,0,0-.206.1l-.209-.183a.446.446,0,0,1,.465-.187.4.4,0,0,1,.339.47.56.56,0,0,1-.266.346l-.243.165.412.08-.053.268-.833-.162Z" transform="translate(-1025.847 -354.093)" fill="#152f8c"/></g><g transform="translate(30.969 6.01)"><path d="M1049.488,359.418a.416.416,0,0,1-.526.321.446.446,0,0,1-.378-.344l.269-.093a.179.179,0,0,0,.162.165c.115.023.178-.029.192-.1s-.024-.146-.139-.168l-.058-.011-.076-.179.277-.237-.448-.087.051-.261.788.153-.044.227-.264.227A.365.365,0,0,1,1049.488,359.418Z" transform="translate(-1048.584 -358.419)" fill="#152f8c"/></g><g transform="translate(41.208 8.067)"><path d="M1072.906,364.268l-.122-.024-.039.2-.283-.055.038-.2-.557-.108.05-.258.54-.691.3.058-.541.691.256.05.051-.261.283.055-.051.261.122.024Z" transform="translate(-1071.944 -363.132)" fill="#152f8c"/></g><g transform="translate(51.301 9.971)"><path d="M1095.883,368.479a.416.416,0,0,1-.526.321.45.45,0,0,1-.386-.346l.269-.093a.183.183,0,0,0,.171.167c.116.023.178-.028.193-.1s-.024-.146-.131-.167l-.383-.074.188-.691.709.138-.051.261-.446-.086-.045.165.1.019A.4.4,0,0,1,1095.883,368.479Z" transform="translate(-1094.971 -367.493)" fill="#152f8c"/></g><g transform="translate(61.41 11.993)"><path d="M1118.953,373.03a.464.464,0,0,1-.91-.177.452.452,0,0,1,.12-.234l.485-.494.323.062-.342.333A.426.426,0,0,1,1118.953,373.03Zm-.28-.055a.178.178,0,1,0-.208.135A.168.168,0,0,0,1118.673,372.975Z" transform="translate(-1118.034 -372.126)" fill="#152f8c"/></g></g><g transform="translate(1.655 14.948)"><path d="M971.562,378.944l-.239,1.22-.28-.055.181-.925L971,379.2l-.021-.252.343-.053Z" transform="translate(-970.974 -378.896)" fill="#152f8c"/><path d="M973.181,380.384l-.123-.024-.038.2-.283-.055.038-.2-.557-.108.051-.258.54-.691.3.059-.54.691.256.049.051-.261.283.055-.051.261.122.024Z" transform="translate(-971.673 -379.094)" fill="#152f8c"/><g transform="translate(10.344 2.007)"><path d="M995.162,383.543l-.238,1.22-.281-.054.181-.925-.229.017-.021-.252.343-.053Z" transform="translate(-994.574 -383.495)" fill="#152f8c"/><path d="M996.749,384.711a.416.416,0,0,1-.526.321.45.45,0,0,1-.386-.346l.269-.093a.183.183,0,0,0,.171.167c.116.022.178-.029.193-.1s-.025-.146-.132-.167l-.383-.074.188-.691.709.138-.051.261-.446-.086-.045.165.1.02A.4.4,0,0,1,996.749,384.711Z" transform="translate(-995.283 -383.625)" fill="#152f8c"/></g><g transform="translate(20.623 4.003)"><path d="M1018.613,388.114l-.239,1.22-.28-.055.181-.925-.228.017-.022-.252.343-.053Z" transform="translate(-1018.025 -388.066)" fill="#152f8c"/><path d="M1020.262,389.347a.464.464,0,0,1-.91-.176.453.453,0,0,1,.12-.234l.485-.494.322.062-.341.333A.426.426,0,0,1,1020.262,389.347Zm-.28-.054a.179.179,0,0,0-.35-.068.167.167,0,0,0,.142.2A.17.17,0,0,0,1019.982,389.293Z" transform="translate(-1018.765 -388.278)" fill="#152f8c"/></g><g transform="translate(30.985 6.014)"><path d="M1042.253,392.721l-.239,1.22-.28-.055.181-.925-.229.017-.021-.252.343-.053Z" transform="translate(-1041.665 -392.673)" fill="#152f8c"/><path d="M1043.964,393l-.046.234-.592.909-.3-.058.571-.877-.493-.1.052-.268Z" transform="translate(-1042.431 -392.769)" fill="#152f8c"/></g><g transform="translate(40.981 7.953)"><path d="M1065.057,397.165l-.239,1.22-.28-.055.181-.925-.229.017-.021-.252.343-.053Z" transform="translate(-1064.469 -397.117)" fill="#152f8c"/><path d="M1066.708,398.423c-.043.223-.233.337-.522.28s-.421-.232-.378-.455a.346.346,0,0,1,.217-.262.3.3,0,0,1-.07-.268.418.418,0,0,1,.816.158.3.3,0,0,1-.165.223A.345.345,0,0,1,1066.708,398.423Zm-.272-.094a.175.175,0,1,0-.2.113A.153.153,0,0,0,1066.436,398.329Zm-.2-.539a.131.131,0,1,0,.151-.094A.12.12,0,0,0,1066.232,397.79Z" transform="translate(-1065.217 -397.29)" fill="#152f8c"/></g><g transform="translate(51.204 9.938)"><path d="M1088.38,401.711l-.239,1.22-.28-.054.181-.926-.229.017-.021-.252.343-.053Z" transform="translate(-1087.792 -401.663)" fill="#152f8c"/><path d="M1090.079,402.727l-.485.494-.322-.062.341-.333a.426.426,0,0,1-.323-.508.464.464,0,0,1,.91.177A.451.451,0,0,1,1090.079,402.727Zm-.368-.153a.172.172,0,1,0-.142-.2A.168.168,0,0,0,1089.711,402.574Z" transform="translate(-1088.623 -401.832)" fill="#152f8c"/></g><g transform="translate(60.712 11.807)"><path d="M1109.525,406.919l.494-.345a.355.355,0,0,0,.167-.192.124.124,0,0,0-.106-.155.2.2,0,0,0-.207.1l-.21-.184a.446.446,0,0,1,.466-.186.4.4,0,0,1,.339.469.558.558,0,0,1-.266.346l-.243.165.411.08-.052.268-.834-.162Z" transform="translate(-1109.485 -405.946)" fill="#152f8c"/><path d="M1111.854,406.948c.074-.376.306-.6.623-.537s.448.355.375.731-.307.6-.623.538S1111.78,407.325,1111.854,406.948Zm.718.139c.046-.235,0-.376-.148-.4s-.244.085-.289.32,0,.376.148.405S1112.526,407.323,1112.572,407.087Z" transform="translate(-1110.804 -406.202)" fill="#152f8c"/></g></g><g transform="translate(0 22.394)"><path d="M967.237,396.927l.495-.345a.353.353,0,0,0,.167-.192.123.123,0,0,0-.106-.155.2.2,0,0,0-.206.1l-.21-.183a.445.445,0,0,1,.465-.186.4.4,0,0,1,.339.469.559.559,0,0,1-.266.346l-.243.165.411.08-.053.268-.833-.162Z" transform="translate(-967.198 -395.954)" fill="#152f8c"/><path d="M970.281,396.433l-.239,1.22-.28-.054.181-.926-.229.017-.021-.252.343-.053Z" transform="translate(-968.6 -396.197)" fill="#152f8c"/><g transform="translate(10.344 2.008)"><path d="M990.837,401.527l.495-.346a.353.353,0,0,0,.167-.192.124.124,0,0,0-.106-.155.2.2,0,0,0-.206.1l-.209-.184a.445.445,0,0,1,.465-.186.4.4,0,0,1,.339.469.563.563,0,0,1-.266.346l-.243.165.412.079-.053.268-.833-.162Z" transform="translate(-990.798 -400.553)" fill="#152f8c"/><path d="M992.967,401.942l.494-.346a.352.352,0,0,0,.167-.192.124.124,0,0,0-.106-.155.2.2,0,0,0-.206.1l-.21-.183a.445.445,0,0,1,.465-.187.4.4,0,0,1,.339.469.564.564,0,0,1-.266.347l-.243.164.412.08-.053.268-.833-.162Z" transform="translate(-991.994 -400.786)" fill="#152f8c"/></g><g transform="translate(20.348 3.949)"><path d="M1013.66,405.975l.494-.345a.357.357,0,0,0,.167-.193.124.124,0,0,0-.106-.155.2.2,0,0,0-.206.1l-.21-.184a.447.447,0,0,1,.465-.186.4.4,0,0,1,.338.469.558.558,0,0,1-.266.346l-.243.165.412.079-.053.268-.833-.161Z" transform="translate(-1013.621 -405.001)" fill="#152f8c"/><path d="M1016.712,406.322a.416.416,0,0,1-.526.321.446.446,0,0,1-.378-.344l.269-.093a.178.178,0,0,0,.162.165c.116.023.178-.029.193-.1s-.024-.146-.14-.168l-.057-.011-.076-.179.277-.237-.448-.087.051-.261.788.153-.044.227-.265.227A.365.365,0,0,1,1016.712,406.322Z" transform="translate(-1014.849 -405.182)" fill="#152f8c"/></g><g transform="translate(30.709 5.96)"><path d="M1037.3,410.582l.495-.345a.356.356,0,0,0,.167-.193.124.124,0,0,0-.106-.155.2.2,0,0,0-.206.1l-.209-.184a.446.446,0,0,1,.465-.186.4.4,0,0,1,.339.469.559.559,0,0,1-.266.346l-.243.165.412.079-.053.268-.833-.161Z" transform="translate(-1037.259 -409.608)" fill="#152f8c"/><path d="M1040.391,411.222l-.122-.024-.039.2-.284-.055.038-.2-.556-.107.05-.258.54-.691.3.058-.54.691.256.05.051-.261.284.055-.051.262.122.024Z" transform="translate(-1038.477 -409.877)" fill="#152f8c"/></g><g transform="translate(40.705 7.9)"><path d="M1060.1,415.027l.495-.346a.353.353,0,0,0,.167-.192.124.124,0,0,0-.106-.155.2.2,0,0,0-.206.1l-.21-.184a.446.446,0,0,1,.465-.186.4.4,0,0,1,.339.469.561.561,0,0,1-.266.346l-.243.165.411.08-.052.268-.833-.162Z" transform="translate(-1060.064 -414.053)" fill="#152f8c"/><path d="M1063.145,415.39a.416.416,0,0,1-.526.321.45.45,0,0,1-.386-.346l.269-.093a.183.183,0,0,0,.171.167c.115.023.178-.029.193-.1s-.024-.146-.131-.167l-.384-.074.188-.691.709.138-.051.261-.446-.086-.045.165.1.02A.4.4,0,0,1,1063.145,415.39Z" transform="translate(-1061.282 -414.251)" fill="#152f8c"/></g><g transform="translate(50.928 9.884)"><path d="M1083.427,419.572l.495-.346a.353.353,0,0,0,.167-.192.124.124,0,0,0-.106-.155.2.2,0,0,0-.206.1l-.209-.184a.445.445,0,0,1,.465-.186.4.4,0,0,1,.339.469.56.56,0,0,1-.266.346l-.243.165.412.079-.053.268-.833-.161Z" transform="translate(-1083.387 -418.598)" fill="#152f8c"/><path d="M1086.548,420.005a.464.464,0,0,1-.91-.177.454.454,0,0,1,.12-.233l.485-.494.322.062-.341.333A.426.426,0,0,1,1086.548,420.005Zm-.28-.055a.178.178,0,0,0-.35-.068.167.167,0,0,0,.141.2A.17.17,0,0,0,1086.268,419.95Z" transform="translate(-1084.646 -418.881)" fill="#152f8c"/></g><g transform="translate(60.908 11.821)"><path d="M1106.194,424.009l.495-.345a.354.354,0,0,0,.167-.192.124.124,0,0,0-.106-.155.2.2,0,0,0-.206.1l-.209-.184a.445.445,0,0,1,.465-.186.4.4,0,0,1,.339.469.561.561,0,0,1-.266.346l-.243.165.411.08-.052.268-.833-.161Z" transform="translate(-1106.155 -423.036)" fill="#152f8c"/><path d="M1109.339,423.481l-.046.234-.592.909-.3-.058.571-.877-.493-.1.052-.269Z" transform="translate(-1107.418 -423.198)" fill="#152f8c"/></g></g><g transform="translate(3.885 7.33)"><path d="M977,361.6l-.046.234-.592.909-.3-.058.571-.877-.493-.1.052-.268Z" transform="translate(-976.061 -361.443)" fill="#152f8c"/><g transform="translate(10.184 2.038)"><path d="M1000.2,367.111c-.043.223-.233.337-.522.281s-.421-.232-.378-.455a.347.347,0,0,1,.217-.262.3.3,0,0,1-.07-.269.418.418,0,0,1,.816.159.3.3,0,0,1-.165.223A.347.347,0,0,1,1000.2,367.111Zm-.272-.095a.175.175,0,1,0-.2.114A.153.153,0,0,0,999.93,367.017Zm-.2-.539a.13.13,0,1,0,.151-.094A.119.119,0,0,0,999.727,366.478Z" transform="translate(-999.294 -366.112)" fill="#152f8c"/></g><g transform="translate(20.545 4.034)"><path d="M1023.74,371.448l-.485.494-.322-.062.341-.334a.426.426,0,0,1-.324-.508.464.464,0,0,1,.91.177A.455.455,0,0,1,1023.74,371.448Zm-.368-.153a.172.172,0,1,0,.066-.338.172.172,0,1,0-.066.338Z" transform="translate(-1022.933 -370.684)" fill="#152f8c"/></g><g transform="translate(29.974 5.858)"><path d="M1045.032,374.912l-.239,1.22-.28-.055.182-.926-.229.017-.022-.252.343-.053Z" transform="translate(-1044.444 -374.864)" fill="#152f8c"/><path d="M1045.887,375.742c.074-.377.306-.6.623-.538s.448.355.374.731-.306.6-.623.538S1045.813,376.118,1045.887,375.742Zm.718.139c.046-.235,0-.377-.148-.405s-.243.085-.289.32,0,.376.148.405S1046.558,376.116,1046.6,375.881Z" transform="translate(-1045.243 -375.05)" fill="#152f8c"/></g><g transform="translate(40.496 7.901)"><path d="M1069.039,379.591l-.238,1.22-.28-.055.181-.926-.229.017-.021-.252.343-.053Z" transform="translate(-1068.451 -379.543)" fill="#152f8c"/><path d="M1070.649,379.9l-.238,1.22-.28-.055.181-.925-.228.017-.022-.252.343-.053Z" transform="translate(-1069.355 -379.72)" fill="#152f8c"/></g><g transform="translate(50.306 9.805)"><path d="M1091.419,383.953l-.239,1.22-.28-.055.181-.925-.229.017-.021-.252.343-.053Z" transform="translate(-1090.831 -383.905)" fill="#152f8c"/><path d="M1092.035,385.16l.494-.345a.353.353,0,0,0,.167-.192.124.124,0,0,0-.106-.155.2.2,0,0,0-.207.1l-.209-.183a.446.446,0,0,1,.465-.186.4.4,0,0,1,.339.469.561.561,0,0,1-.266.346l-.243.165.412.08-.053.268-.833-.162Z" transform="translate(-1091.485 -384.064)" fill="#152f8c"/></g><g transform="translate(60.391 11.762)"><path d="M1114.427,388.437l-.239,1.22-.28-.055.181-.925-.229.017-.021-.252.343-.053Z" transform="translate(-1113.839 -388.389)" fill="#152f8c"/><path d="M1116,389.584a.416.416,0,0,1-.526.321.445.445,0,0,1-.378-.344l.269-.093a.178.178,0,0,0,.162.165c.116.023.178-.028.193-.1s-.024-.146-.14-.168l-.057-.011-.076-.179.277-.237-.448-.087.051-.262.787.153-.044.227-.264.227A.365.365,0,0,1,1116,389.584Z" transform="translate(-1114.548 -388.499)" fill="#152f8c"/></g></g></g><path d="M1038.145,313.082a5.642,5.642,0,0,0-4.376-6.683l-66.581-12.982a5.663,5.663,0,0,0-6.584,4.546l-.453,2.3,77.555,15.052Z" transform="translate(-952.77 -293.314)" fill="#dba7cb"/><g transform="translate(70.613 14.332)"><path d="M1126.079,331.524a1.44,1.44,0,1,1-1.138-1.682A1.44,1.44,0,0,1,1126.079,331.524Z" transform="translate(-1114.978 -328.215)" fill="#fff"/><path d="M1116.671,329.691a1.44,1.44,0,1,1-1.138-1.682A1.439,1.439,0,0,1,1116.671,329.691Z" transform="translate(-1109.694 -327.182)" fill="#fff"/><path d="M1107.263,327.857a1.44,1.44,0,1,1-1.137-1.682A1.439,1.439,0,0,1,1107.263,327.857Z" transform="translate(-1104.41 -326.149)" fill="#fff"/></g></g><g transform="translate(36.674 46.263)"><g transform="translate(45.615 25.952)"><path d="M1082.035,474.589q-1.525,16.037-3.05,32.076c-1.4-.214-20.79-3.5-22.228-3.745-9.089-1.526-17.156-3.63-26.147-5.141a5.229,5.229,0,0,0-2.015-.135c-.987.286-1.908.722-2.889.983-7.647,2.035-17.2-.644-25.3-2.5a3.19,3.19,0,0,1,1.1-.606c2.857-1.421,5.708-2.787,8.566-4.214,3.078-1.537,7.279-2.863,7.207-7.78a9.16,9.16,0,0,0-1.2-4.1c-.218-.427-.371-.871-.592-1.256-1.864-3.243-3.611-6.189-5.418-9.3-2.742-4.715-5.292-9.212-8.044-13.966-.866-1.5-1.793-3.179-2.738-4.626a17.949,17.949,0,0,0-3.276-4.183,11.73,11.73,0,0,0-2.384-1.426,4.484,4.484,0,0,0-3.076-.508c-3.57.558-8.671,2.142-12.648.444a6.788,6.788,0,0,1-3.81-3.743,11.441,11.441,0,0,1,2.856-1.2,78.894,78.894,0,0,0,8.762-3.377c1.69-.845,3.621-1.783,5.561-2.586a9.735,9.735,0,0,1,3.1-.908,9.034,9.034,0,0,1,3.712.732c1.05.4,2.075.854,3.113,1.275,1.059.432,2.135.8,3.231,1.179,4.355,1.5,9.369,2.613,12.925,4.712a18.831,18.831,0,0,1,2.4,1.863,27.268,27.268,0,0,1,2.214,2.065c1.355,1.422,2.505,3.04,3.848,4.511s2.625,2.953,3.9,4.461c1.213,1.432,2.631,2.927,3.906,4.462a27.553,27.553,0,0,0,4.079,4.368,23.1,23.1,0,0,0,5.868,2.846C1050.032,467.657,1075.418,472.627,1082.035,474.589Z" transform="translate(-972.951 -432.786)" fill="#dba7cb" fill-rule="evenodd"/><g transform="translate(0 5.136)"><g transform="translate(22.788 7.985)"><path d="M1028.944,466.644a14.732,14.732,0,0,0-1.985-1.605c-.705-.509-1.477-.951-2.223-1.41-.417-.257-.833-.523-1.254-.784.089.066.183.13.268.2a17.948,17.948,0,0,1,3.276,4.183c.945,1.446,1.872,3.13,2.738,4.626.962,1.66,1.9,3.29,2.826,4.908-.209-.9-.4-1.818-.621-2.736C1031.314,471.348,1030.719,468.485,1028.944,466.644Z" transform="translate(-1023.482 -462.845)" fill="#c18ab3"/><path d="M1035.221,570.928a3.188,3.188,0,0,0-1.1.606c8.1,1.851,17.655,4.53,25.3,2.495.981-.261,1.9-.7,2.889-.983a5.229,5.229,0,0,1,2.015.135c8.991,1.51,46.729,11.3,48.125,11.519.065-.685.381-4,.446-4.689-7.3-1.5-32.5-6.465-39.386-8.31-2.324-.623-4.636-1.337-6.944-1.91a14.7,14.7,0,0,0-3.781-.575c-1.188.018-2.31.241-3.543.375a21.936,21.936,0,0,1-7.581-.388,51.187,51.187,0,0,1-7.636-2.607l-.24.118C1040.929,568.142,1038.079,569.507,1035.221,570.928Z" transform="translate(-1029.458 -521.308)" fill="#c18ab3"/><g transform="translate(13.116 16.316)"><path d="M1113.971,500.224l.164.015c1.1,3.031,2.025,8.372.506,12.546-.183.5-.367,1.141-.888,1.28a30.039,30.039,0,0,1,.55-3.495A25.1,25.1,0,0,0,1113.971,500.224Z" transform="translate(-1087.301 -500.224)" fill="#c18ab3" fill-rule="evenodd"/><path d="M1135.007,545.529a96.622,96.622,0,0,1-14.127-3.025c-1.151-.346-2.732-.809-4.046-1.255-.748-.254.706.047.924.087,2.889.535,5.789.932,8.57,1.518A85.613,85.613,0,0,1,1135.007,545.529Z" transform="translate(-1088.913 -523.285)" fill="#c18ab3" fill-rule="evenodd"/><path d="M1053.406,508.965c1.812,1.5,3.48,3.4,5.564,4.891,1.554,1.109,3.16,2.154,4.789,3.235.444.295,1.268.57,1.3,1.268a2.9,2.9,0,0,1-2.027-.573C1058.961,515.659,1056.075,512.265,1053.406,508.965Z" transform="translate(-1053.406 -505.15)" fill="#c18ab3" fill-rule="evenodd"/><path d="M1104.333,549.113a2.707,2.707,0,0,1-.079,1.412,17.21,17.21,0,0,1-3.526,7.69c-.06-.016-.024-.057,0-.054a30.631,30.631,0,0,0,3.069-8.062C1103.873,549.771,1103.814,549.147,1104.333,549.113Z" transform="translate(-1079.967 -527.773)" fill="#c18ab3" fill-rule="evenodd"/></g></g><path d="M980.956,444.686a1.711,1.711,0,0,1-.9,1.443c-1.448,1-8.174,3.183-8.553,1.759-.207-.779,4.76-2.008,6.63-2.645a21.013,21.013,0,0,1,2.289-.662A.535.535,0,0,1,980.956,444.686Z" transform="translate(-971.492 -444.553)" fill="#c18ab3" fill-rule="evenodd"/></g></g><g transform="translate(0 6.811)"><g transform="translate(12.886)"><path d="M906.209,390.053s-.8.5-1.132.67c-1.669.868-3.421,1.857-5.153,2.761-.693.361-1.4.74-2.122,1.031a2.763,2.763,0,0,1-.618-1.179,3.562,3.562,0,0,1-.131-2.755,3.66,3.66,0,0,1,3.3-1.648A19.61,19.61,0,0,1,906.209,390.053Z" transform="translate(-896.821 -388.934)" fill="#dba7cb" fill-rule="evenodd"/><path d="M898.438,395.158c.726-.291,1.429-.67,2.122-1.031,1.732-.9,3.484-1.893,5.153-2.761.329-.172,1.132-.67,1.132-.67a18.083,18.083,0,0,0-2.126-.621l-6.765,4.269A1.876,1.876,0,0,0,898.438,395.158Z" transform="translate(-897.457 -389.577)" fill="#c18ab3"/></g><g transform="translate(0 21.076)"><path d="M882.235,451.5a3.568,3.568,0,0,1-1.251-.49,42.587,42.587,0,0,1-7.505-4.45,21.3,21.3,0,0,1-5.109-4.931,5.005,5.005,0,0,1-.944-2.255c-.136-2.848,4.208-2.236,6.481-1.725.217.074.164.308.243.467.2.4.523.845.8,1.292,2.252,3.7,4.512,7.577,6.909,11.222C882.007,450.865,882.375,451.153,882.235,451.5Z" transform="translate(-867.423 -437.218)" fill="#dba7cb" fill-rule="evenodd"/><path d="M887.039,450.689c-2.4-3.645-4.658-7.524-6.909-11.222-.273-.447-.6-.891-.8-1.293-.079-.159-.027-.393-.243-.467a18.576,18.576,0,0,0-2.438-.392,26.826,26.826,0,0,1,3.157,7.647,17.285,17.285,0,0,1,.628,2.894,40.9,40.9,0,0,0,5.731,3.211,3.57,3.57,0,0,0,1.251.49C887.559,451.209,887.191,450.92,887.039,450.689Z" transform="translate(-872.607 -437.273)" fill="#c18ab3"/><g transform="translate(16.616 49.742)"><path d="M926.433,551.173c.159.285-.157.446-.432.406.441.788.97,1.519,1.47,2.266,1.235,1.84,2.489,3.712,3.738,5.615a2.7,2.7,0,0,1,.619,1.177,31.671,31.671,0,0,1-3.5.174c-3.5.115-7.154.056-10.892-.131-4.064-.206-7.547-.962-9.986-2.566a5.3,5.3,0,0,1-2.009-1.924,1.553,1.553,0,0,1,.326-1.649c.873-.9,2.95-1.208,4.625-1.354a50.09,50.09,0,0,1,5.685-.08,12.041,12.041,0,0,0,2.766-.13c.79-.158,1.591-.435,2.363-.616,1.23-.289,2.456-.529,3.621-.835A10.82,10.82,0,0,1,926.433,551.173Z" transform="translate(-905.332 -551.173)" fill="#dba7cb" fill-rule="evenodd"/><path d="M954.458,560.637c-.036-.456-5.237-9.179-5.4-9.464a10.823,10.823,0,0,0-1.608.351c-.6.157-1.211.3-1.834.434a18.829,18.829,0,0,1,2.216,3.241,16.772,16.772,0,0,1,2.052,5.641c.357-.009.714-.017,1.068-.029A31.673,31.673,0,0,0,954.458,560.637Z" transform="translate(-927.961 -551.173)" fill="#c18ab3"/></g><g transform="translate(10.602 16.048)"><path d="M909.6,494.227a5.821,5.821,0,0,1-1.619-.712,38.055,38.055,0,0,1-4.063-2.791c-1.668-1.268-3.4-2.516-5.071-4a34.249,34.249,0,0,1-4.279-4.657c-1.231-1.584-2.736-3.681-2.937-5.764-.133-1.375.448-2.287,1.571-2.314,2.375-.06,4.264,1.287,5.762,2.055,3.354,5.633,6.744,11.351,10.13,17.02C909.291,493.394,909.649,493.8,909.6,494.227Z" transform="translate(-891.611 -473.984)" fill="#dba7cb" fill-rule="evenodd"/><path d="M911.441,493.065c-3.385-5.669-6.776-11.387-10.13-17.02-1.446-.741-3.258-2.018-5.518-2.052a21.572,21.572,0,0,1,4.133,5.616,22.224,22.224,0,0,1,2.322,7.5q.034.285.068.578c1.316,1.086,2.652,2.06,3.95,3.048a38.06,38.06,0,0,0,4.063,2.791,5.821,5.821,0,0,0,1.619.712C912,493.808,911.64,493.4,911.441,493.065Z" transform="translate(-893.96 -473.989)" fill="#c18ab3"/></g></g></g><g transform="translate(2.453)"><g transform="translate(0 2.858)"><path d="M903.62,379.878a16.227,16.227,0,0,1-2.909,1.629q-9.975,4.928-20.117,9.97a11.7,11.7,0,0,0-1.532.751,4.615,4.615,0,0,0-1.707,2.582,6.09,6.09,0,0,0,.875,4.393c4.938,7.876,9.829,15.869,14.725,23.668,5.671,9.033,11.111,17.912,16.764,27.049,2.8,4.527,5.645,8.971,8.439,13.5,1.353,2.193,2.676,4.532,4.252,6.726a6.474,6.474,0,0,0,7.686,2.516c.622-.234,1.212-.6,1.828-.891,8.537-4.045,17.045-8.347,25.582-12.477a16.361,16.361,0,0,0,1.771-.9,6.764,6.764,0,0,0,2.729-3.27,16.163,16.163,0,0,0-.083-2.84c.529.493.6,2.62.425,3.377a6.068,6.068,0,0,1-3.536,4.088c-4.785,2.4-10.08,4.844-14.786,7.114-4.954,2.389-9.709,4.646-14.786,7.114-1.611.783-3.338,1.842-5.5,1.664a6.67,6.67,0,0,1-4.9-2.869c-1.085-1.456-1.987-3.047-2.892-4.472-5.737-9.034-11.412-18.371-16.97-27.238-5.737-9.15-11.3-18.121-17.027-27.242-2.386-3.8-4.71-7.544-7.071-11.359-.86-1.392-2.188-3.084-1.792-5.375a5.224,5.224,0,0,1,1.311-2.563c1.109-1.319,2.909-2.05,4.546-2.874C887.061,387.572,895.229,383.866,903.62,379.878Z" transform="translate(-873.019 -379.878)" fill="#152f8c" fill-rule="evenodd"/><g transform="translate(4.11 22.759)"><path d="M905.993,470.037a.907.907,0,0,1-.7-.438l-3.954-6.581a.9.9,0,0,1,.314-1.246.915.915,0,0,1,1.251.314l3.954,6.58a.909.909,0,0,1-.868,1.371Z" transform="translate(-892.964 -448.711)" fill="#fff"/><path d="M893.5,450.042a.908.908,0,0,1-.7-.438l-1.977-3.29a.911.911,0,0,1,1.566-.934l1.977,3.291a.91.91,0,0,1-.869,1.371Z" transform="translate(-887.058 -439.298)" fill="#fff"/><path d="M885.2,437.121a.915.915,0,0,1-.7-.438l-1.977-3.291a.912.912,0,0,1,1.567-.933l1.977,3.29a.909.909,0,0,1-.868,1.371Z" transform="translate(-882.396 -432.017)" fill="#fff"/></g></g><g transform="translate(4.094)"><path d="M916.781,373.353a8.72,8.72,0,0,1,4.109,1.115,6.859,6.859,0,0,1,2.408,2.466c8.634,13.874,17.143,27.6,25.677,41.494,5.458,8.888,11.022,17.743,16.516,26.69a16.649,16.649,0,0,1,1.737,3.019,5.667,5.667,0,0,1-.106,4.076c-1.03,2.312-3.482,3.009-5.614,4.061-7.367,3.634-14.768,7.184-22.288,10.94-1.043.52-2.105,1.047-3.188,1.6a6.724,6.724,0,0,1-3.787.818c-2.91-.275-4.188-2.019-5.6-4.334-9.648-15.781-19.562-31.5-29.388-47.384-4.437-7.172-9.235-14.848-13.8-22.182a8.872,8.872,0,0,1-.81-1.532,5.321,5.321,0,0,1,1.186-5.374,9.269,9.269,0,0,1,2.2-1.3c8.558-4.262,16.808-8.38,25.427-12.6,1.554-.762,3.322-1.706,5.208-1.579C916.707,373.344,916.743,373.352,916.781,373.353Z" transform="translate(-882.359 -373.331)" fill="#fff" fill-rule="evenodd"/><g transform="translate(13.527 5.839)"><path d="M913.676,393.632a.5.5,0,0,1-.175-.945l8.55-4.214a.5.5,0,1,1,.445.9l-8.55,4.214A.5.5,0,0,1,913.676,393.632Z" transform="translate(-913.221 -387.674)" fill="#152f8c"/><path d="M937.013,387.278a.524.524,0,1,1-.472-.567A.524.524,0,0,1,937.013,387.278Z" transform="translate(-925.998 -386.709)" fill="#152f8c"/></g><path d="M959.917,437.538c-1-1.581-1.925-3.129-2.871-4.693-3.913-6.468-7.745-12.412-11.546-18.665-1.928-3.173-3.921-6.232-5.806-9.281-3.8-6.148-7.717-12.409-11.552-18.61-.467-.755-.977-1.519-1.465-2.322-.461-.758-.861-1.592-1.4-2.371a6.267,6.267,0,0,0-5.127-2.834c-.036,0-.074-.008-.111-.01a6.547,6.547,0,0,0-3.413,1.021c-1.149.56-2.054.964-3.238,1.542-.53.258-1.319.523-1.493.922s.128,1.008-.209,1.6c-.2.355-.781.57-1.316.827-3.005,1.445-5.678,2.813-8.607,4.226a4.036,4.036,0,0,1-1.573.58c-.79-.047-.981-.869-1.659-.884a4.072,4.072,0,0,0-1.056.46c-1.09.521-2.152,1.034-3.121,1.5a15.258,15.258,0,0,0-3.981,2.255,3.821,3.821,0,0,0-.972,3.715,12.451,12.451,0,0,0,1.4,2.427c1.453,2.3,3.22,5.049,4.5,7.085,2.044,3.261,3.943,6.465,5.892,9.569,3.9,6.214,7.91,12.5,11.91,18.98,5.422,8.789,11.333,18.264,17.022,27.349l34.3-17.19C962.9,442.295,961.411,439.908,959.917,437.538Z" transform="translate(-886.229 -376.38)" fill="#f7af31"/><g transform="translate(43.887 68.355)"><path d="M1020.906,536.7a17.128,17.128,0,0,0-1.35-2.367c-.47-.775-1-1.577-1.465-2.321-.439-.7-.873-1.392-1.3-2.082l-34.3,17.19,2.24,3.576c.482.768.963,1.6,1.516,2.383a5.257,5.257,0,0,0,5.6,1.984,11.178,11.178,0,0,0,1.706-.791c7.41-3.581,14.929-7.32,22.278-10.83a26.961,26.961,0,0,0,3.422-1.692A4.4,4.4,0,0,0,1020.906,536.7Z" transform="translate(-982.484 -529.929)" fill="#fff"/><path d="M1024.768,561a3.625,3.625,0,0,1-3.277-3.946,3.512,3.512,0,0,1,.068-.422,3.571,3.571,0,0,0-.541,1.578,3.635,3.635,0,0,0,7.172,1.106A3.637,3.637,0,0,1,1024.768,561Z" transform="translate(-1004.119 -544.976)" fill="#152f8c"/></g></g></g><g transform="translate(10.616 21.604)"><g transform="translate(0 1.572)"><path d="M944.185,531.235H902.154c-2.814-7.56-5.344-15.258-7.642-23.279-.594-2.075-1.132-4.056-1.685-6.044a25.386,25.386,0,0,1-1.18-6.547c-.087-4.376,1.393-7.827,2.7-10.856.189-.44.492-.945.618-1.343a8.669,8.669,0,0,0-.056-2.574c-.162-2.727-.478-5.907.618-7.834a14.64,14.64,0,0,1,2.7-3.078,29.426,29.426,0,0,1,2.529-1.846c.38-.268.586-.423.674-.784a12.364,12.364,0,0,0,.112-1.287c.374-2.746,1.128-5.486,2.529-7.274a5.3,5.3,0,0,1,3.709-1.9c1.6-.211,3.417-.279,5.282-.336-.042-5.152-.492-9.7-.225-14.381.2-3.472.441-7.2.787-10.632.2-1.983.267-5.638,2.866-4.644a5.625,5.625,0,0,1,2.36,2.742,22.968,22.968,0,0,1,1.293,3.861,48.881,48.881,0,0,1,1.292,8.953,38.492,38.492,0,0,0,.394,4.7c.272,1.467.56,2.889.842,4.309a63.2,63.2,0,0,1,1.124,9.122,70.92,70.92,0,0,0,1.068,9.177c1.1,5.9,1.959,11.466,3.147,17.347.413,2.046.847,4.362,1.4,6.323.338,1.189.629,2.4,1.686,2.63.577.127,1-.523,1.18-1.119a25.9,25.9,0,0,0,.731-4.812,53.175,53.175,0,0,0,.281-5.317c0-3.7-.358-7.24-.393-10.8a20.233,20.233,0,0,1,1.8-9.289,20.766,20.766,0,0,1,2.135-3.47,14.871,14.871,0,0,1,2.584-3.022,1.791,1.791,0,0,1,1.967-.279c1.218.648,1.349,2.72,1.349,4.756a73.147,73.147,0,0,0,1.293,14.214c.591,2.934,1.114,5.843,1.742,8.674.64,2.884,1.273,5.75,1.8,8.673,1.157,6.443.5,13.319-.113,19.53A112.242,112.242,0,0,1,944.185,531.235Z" transform="translate(-891.643 -426.424)" fill="#dba7cb" fill-rule="evenodd"/></g><g transform="translate(0)"><path d="M941.387,431.01s.182-2.765.451-4.1a13.193,13.193,0,0,1,1.067-3.525c.057-.1.418-.618.618-.56,1.038.3,1.167,3.313,1.068,5.093C944.471,430.084,943.72,431.366,941.387,431.01Z" transform="translate(-919.583 -422.824)" fill="#c18ab3" fill-rule="evenodd"/><path d="M1003.065,493.982c1.492-.093,1.461,3.55,1.461,5.316,0,1.675.132,4.4-.9,4.589a1.982,1.982,0,0,1-1.574-.9c-1.1-1.514-1.02-7.067.113-8.505A1.374,1.374,0,0,1,1003.065,493.982Z" transform="translate(-953.22 -462.92)" fill="#c18ab3" fill-rule="evenodd"/><path d="M937.84,521.119a112.133,112.133,0,0,1-1.574-12.367c-.177-2.079-.371-4.417-.337-6.659s.162-4.537.9-6.043a4.519,4.519,0,0,1,1.124-1.343C937.958,503.33,937.922,512.4,937.84,521.119Z" transform="translate(-916.515 -463.33)" fill="#c18ab3" fill-rule="evenodd"/><path d="M912.439,519.765c.678,5.872,1.143,11.956,1.742,17.907a52.568,52.568,0,0,1-2.754-12.479,9.775,9.775,0,0,1,.394-4.533A7.887,7.887,0,0,1,912.439,519.765Z" transform="translate(-902.715 -477.45)" fill="#c18ab3" fill-rule="evenodd"/><path d="M898.144,556.177c.048-.01.053.021.056.056.337,3.918.664,8.078,1.18,11.639a33.108,33.108,0,0,1-1.8-5.428c-.465-2.083-.56-4.448.45-6.1C898.065,556.291,898.077,556.2,898.144,556.177Z" transform="translate(-894.79 -497.967)" fill="#c18ab3" fill-rule="evenodd"/><path d="M970.231,547.745a6.9,6.9,0,0,0,2.528,2.686,3.865,3.865,0,0,0,2.641.168,4.286,4.286,0,0,0,2.023-2.238c1.212-2.676,1.035-6.469.506-9.681-.983-5.96-2.846-12.7-2.079-19.529.014-.124.033-.244.049-.367a22.406,22.406,0,0,0-.891,6.97c.035,3.56.393,7.1.393,10.8a53.158,53.158,0,0,1-.281,5.317,25.892,25.892,0,0,1-.731,4.812c-.181.6-.6,1.247-1.18,1.119-1.056-.233-1.348-1.441-1.686-2.63-.558-1.962-.992-4.277-1.4-6.323-1.188-5.881-2.047-11.444-3.147-17.347q-.189-1.013-.346-2.052c.165,5.091.476,10.259.908,15.426C967.923,539.525,968.307,544.511,970.231,547.745Z" transform="translate(-933.76 -476.897)" fill="#c18ab3"/><path d="M1008.91,574.962c-.29-1.614-.614-3.209-.953-4.8.118,3.121.131,6.41-.058,9.445a101.379,101.379,0,0,1-1.574,11.583,156.029,156.029,0,0,1-4.664,18.411c-.274.891-.512,1.808-.787,2.63h4.664a112.261,112.261,0,0,0,3.259-17.739C1009.414,588.281,1010.067,581.4,1008.91,574.962Z" transform="translate(-952.997 -505.848)" fill="#c18ab3"/><path d="M891.7,580.255c-.045.581-.067,1.177-.054,1.794a25.385,25.385,0,0,0,1.18,6.547c.554,1.987,1.091,3.969,1.685,6.044,2.3,8.021,4.829,15.718,7.642,23.279h4.664a207.25,207.25,0,0,1-12.25-27.308A56.891,56.891,0,0,1,891.7,580.255Z" transform="translate(-891.643 -511.536)" fill="#c18ab3"/><g transform="translate(46.846 51.768)"><path d="M998.519,542.578a14.766,14.766,0,0,1,4.282-.795c.213-.009.706-.027.679-.2-.03-.192-.589-.158-.859-.156A6.749,6.749,0,0,0,998.519,542.578Z" transform="translate(-998.519 -541.421)" fill="#c18ab3" fill-rule="evenodd"/><path d="M1002.629,546.374a13.374,13.374,0,0,0,4.22-.208l-.082-.42C1005.136,546.034,1003.566,546.17,1002.629,546.374Z" transform="translate(-1000.827 -543.857)" fill="#c18ab3"/><path d="M1001.761,550.113a7.489,7.489,0,0,0,4.722.074l.215-.054c-.026-.131-.053-.262-.078-.394l-.057.013A16.285,16.285,0,0,1,1001.761,550.113Z" transform="translate(-1000.34 -546.109)" fill="#c18ab3"/></g><g transform="translate(21.349 26.122)"><path d="M946.743,483.136a14.777,14.777,0,0,0-4.354.137c-.21.037-.7.124-.707-.053-.012-.194.541-.28.805-.336A6.758,6.758,0,0,1,946.743,483.136Z" transform="translate(-941.097 -482.668)" fill="#c18ab3" fill-rule="evenodd"/><path d="M944.527,487.662a13.369,13.369,0,0,1-4.167.7c0-.143-.007-.285-.011-.428C942.005,487.865,943.568,487.662,944.527,487.662Z" transform="translate(-940.349 -485.482)" fill="#c18ab3"/><path d="M945.275,490.807a7.483,7.483,0,0,1-4.6,1.079l-.221-.007c0-.134,0-.267-.008-.4h.057A16.291,16.291,0,0,0,945.275,490.807Z" transform="translate(-940.405 -487.254)" fill="#c18ab3"/></g></g></g></g></g></g></g></g></svg>