<svg xmlns="http://www.w3.org/2000/svg" width="237.294" height="212.016" viewBox="0 0 237.294 212.016">
  <g id="Groupe_212" data-name="Groupe 212" transform="translate(-0.002 -0.001)">
    <path id="Tracé_292" data-name="Tracé 292" d="M412.6,203.8l-169.83,72.656a4.761,4.761,0,0,1-6.243-2.5l-44.8-104.72a3.488,3.488,0,0,1,1.833-4.574L365.674,91.028a3.549,3.549,0,0,1,4.653,1.865l44.777,104.665A4.761,4.761,0,0,1,412.6,203.8Z" transform="translate(-190.562 -88.289)" fill="#f2f2f2"/>
    <path id="Tracé_293" data-name="Tracé 293" d="M429.139,228.023,270.862,295.736a4.443,4.443,0,0,1-5.893-2.14L225.955,202.4a3.294,3.294,0,0,1,1.868-4.256l160.4-68.624a3.348,3.348,0,0,1,4.44,1.614l38.993,91.144A4.443,4.443,0,0,1,429.139,228.023Z" transform="translate(-214.951 -115.682)" fill="#fff"/>
    <path id="Tracé_294" data-name="Tracé 294" d="M368.294,87.35l-178.576,76.4-.952-2.226a4.777,4.777,0,0,1,2.512-6.263l169.8-72.643a4.777,4.777,0,0,1,6.265,2.508Z" transform="translate(-188.38 -82.23)" fill="#6c63ff"/>
    <circle id="Ellipse_113" data-name="Ellipse 113" cx="1.235" cy="1.235" r="1.235" transform="translate(6.668 73.571)" fill="#fff"/>
    <circle id="Ellipse_114" data-name="Ellipse 114" cx="1.235" cy="1.235" r="1.235" transform="translate(10.976 71.728)" fill="#fff"/>
    <circle id="Ellipse_115" data-name="Ellipse 115" cx="1.235" cy="1.235" r="1.235" transform="translate(15.285 69.885)" fill="#fff"/>
    <path id="Tracé_295" data-name="Tracé 295" d="M395.014,356.215l-21.108,9.03a4.761,4.761,0,0,1-6.243-2.5L356.01,335.508a4.762,4.762,0,0,1,2.5-6.243l21.108-9.03a4.761,4.761,0,0,1,6.243,2.5l11.652,27.236A4.762,4.762,0,0,1,395.014,356.215Z" transform="translate(-307.418 -251.357)" fill="#f2f2f2"/>
    <path id="Tracé_296" data-name="Tracé 296" d="M518.922,303.2l-21.108,9.03a4.762,4.762,0,0,1-6.243-2.5L479.919,282.5a4.762,4.762,0,0,1,2.5-6.243l21.108-9.03a4.762,4.762,0,0,1,6.243,2.5l11.652,27.236A4.762,4.762,0,0,1,518.922,303.2Z" transform="translate(-395.61 -213.627)" fill="#f2f2f2"/>
    <path id="Tracé_297" data-name="Tracé 297" d="M642.831,250.195l-21.108,9.03a4.761,4.761,0,0,1-6.243-2.5l-11.652-27.236a4.761,4.761,0,0,1,2.5-6.243l21.108-9.03a4.761,4.761,0,0,1,6.243,2.5l11.652,27.236A4.762,4.762,0,0,1,642.831,250.195Z" transform="translate(-483.803 -175.897)" fill="#f2f2f2"/>
    <path id="Tracé_298" data-name="Tracé 298" d="M457.554,502.4l-21.108,9.03a4.762,4.762,0,0,1-6.243-2.5L418.55,481.692a4.761,4.761,0,0,1,2.5-6.243l21.108-9.03a4.762,4.762,0,0,1,6.243,2.5l11.652,27.236A4.762,4.762,0,0,1,457.554,502.4Z" transform="translate(-351.931 -355.405)" fill="#f2f2f2"/>
    <path id="Tracé_299" data-name="Tracé 299" d="M581.462,449.389l-21.108,9.03a4.762,4.762,0,0,1-6.243-2.5l-11.652-27.236a4.761,4.761,0,0,1,2.5-6.243l21.108-9.03a4.761,4.761,0,0,1,6.243,2.5l11.652,27.236a4.761,4.761,0,0,1-2.5,6.243Z" transform="translate(-440.123 -317.674)" fill="#f2f2f2"/>
    <path id="Tracé_300" data-name="Tracé 300" d="M705.371,396.379l-21.108,9.03a4.761,4.761,0,0,1-6.243-2.5l-11.652-27.236a4.762,4.762,0,0,1,2.5-6.243l21.108-9.03a4.761,4.761,0,0,1,6.243,2.5l11.652,27.236A4.761,4.761,0,0,1,705.371,396.379Z" transform="translate(-528.316 -279.944)" fill="#f2f2f2"/>
    <path id="Tracé_301" data-name="Tracé 301" d="M527.256,516.17H342.537a4.761,4.761,0,0,1-4.756-4.756v-113.9a3.488,3.488,0,0,1,3.484-3.484h187.2a3.549,3.549,0,0,1,3.545,3.545V511.414A4.761,4.761,0,0,1,527.256,516.17Z" transform="translate(-294.715 -304.153)" fill="#e6e6e6"/>
    <path id="Tracé_302" data-name="Tracé 302" d="M538.007,533.589H365.854a4.443,4.443,0,0,1-4.577-4.286V430.116a3.294,3.294,0,0,1,3.391-3.178H539.136a3.348,3.348,0,0,1,3.448,3.231V529.3A4.443,4.443,0,0,1,538.007,533.589Z" transform="translate(-311.439 -327.577)" fill="#fff"/>
    <path id="Tracé_303" data-name="Tracé 303" d="M531.781,390.414H337.55v-2.421a4.777,4.777,0,0,1,4.773-4.77H527.008a4.777,4.777,0,0,1,4.773,4.77Z" transform="translate(-294.551 -296.462)" fill="#6c63ff"/>
    <circle id="Ellipse_116" data-name="Ellipse 116" cx="1.235" cy="1.235" r="1.235" transform="translate(50.439 89.129)" fill="#fff"/>
    <circle id="Ellipse_117" data-name="Ellipse 117" cx="1.235" cy="1.235" r="1.235" transform="translate(55.126 89.129)" fill="#fff"/>
    <circle id="Ellipse_118" data-name="Ellipse 118" cx="1.235" cy="1.235" r="1.235" transform="translate(59.812 89.129)" fill="#fff"/>
    <rect id="Rectangle_338" data-name="Rectangle 338" width="93.391" height="11.826" rx="5.913" transform="translate(129.77 127.205)" fill="#e6e6e6"/>
    <rect id="Rectangle_339" data-name="Rectangle 339" width="93.391" height="11.826" rx="5.913" transform="translate(129.77 146.773)" fill="#e6e6e6"/>
    <rect id="Rectangle_340" data-name="Rectangle 340" width="93.391" height="11.826" rx="5.913" transform="translate(129.77 166.342)" fill="#e6e6e6"/>
    <path id="Tracé_304" data-name="Tracé 304" d="M455.386,533.645a31.707,31.707,0,1,1-31.707-31.707A31.707,31.707,0,0,1,455.386,533.645Z" transform="translate(-333.286 -380.959)" fill="#fff"/>
    <path id="Tracé_305" data-name="Tracé 305" d="M476.627,593.208c-.346,20.278-30.51,20.275-30.853,0C446.12,572.93,476.284,572.933,476.627,593.208Z" transform="translate(-371.58 -435.097)" fill="#6c63ff"/>
    <path id="Tracé_306" data-name="Tracé 306" d="M497.129,628.363l-.016-.576c3.973.531,4.829-4.394.822-2.553l.915-6.685.571.078-.778,5.686C502.862,623.685,501.3,628.939,497.129,628.363Z" transform="translate(-408.121 -463.957)" fill="#2f2e41"/>
    <rect id="Rectangle_341" data-name="Rectangle 341" width="3.105" height="0.576" transform="translate(94.125 155.161)" fill="#2f2e41"/>
    <rect id="Rectangle_342" data-name="Rectangle 342" width="3.105" height="0.576" transform="translate(84.325 155.161)" fill="#2f2e41"/>
    <path id="Tracé_307" data-name="Tracé 307" d="M480.314,697.3c.605-4.084-4.177-3.277-6.707-3.318a2.744,2.744,0,0,0-2.675,3.315,15,15,0,0,0-5.33,2.94,31.844,31.844,0,0,0,20.3.225A14.924,14.924,0,0,0,480.314,697.3Z" transform="translate(-385.693 -517.617)" fill="#2f2e41"/>
    <path id="Tracé_308" data-name="Tracé 308" d="M448.7,557.425c2.859-1.652,6.326-.385,9.279.308,5.6,1.722,13.46-.434,14.142-7.109.709-6.207-7.782-9.667-10.5-3.489l.79-.1c-8.8-13.081-24.113-12.585-24.012,5.4-.033.556.832.554.865,0-.324-10.6,6.69-17.842,16.6-11.032a29.211,29.211,0,0,1,5.8,6.069c1.033,1.157,1.257-3.826,6.2-2.521,5.439,2.107,3.664,9.9-1.2,11.6-6.007,3.069-12.512-2.881-18.406.125a.433.433,0,0,0,.436.747Z" transform="translate(-366.333 -406.61)" fill="#2f2e41"/>
    <path id="Tracé_309" data-name="Tracé 309" d="M421.676,564.208a32.544,32.544,0,1,1,10.085-1.593A32.544,32.544,0,0,1,421.676,564.208Zm0-63.414a30.847,30.847,0,1,0,30.842,30.844,30.848,30.848,0,0,0-30.842-30.844Z" transform="translate(-331.283 -378.949)" fill="#3f3d56"/>
  </g>
</svg>
