<svg xmlns="http://www.w3.org/2000/svg" xmlns:xlink="http://www.w3.org/1999/xlink" width="679.426" height="563.46" viewBox="0 0 679.426 563.46">
  <defs>
    <linearGradient id="linear-gradient" x1="0.5" y1="1" x2="0.5" gradientUnits="objectBoundingBox">
      <stop offset="0" stop-color="gray" stop-opacity="0.251"/>
      <stop offset="0.54" stop-color="gray" stop-opacity="0.122"/>
      <stop offset="1" stop-color="gray" stop-opacity="0.102"/>
    </linearGradient>
    <linearGradient id="linear-gradient-2" x1="6.341" y1="1" x2="6.341" y2="0" xlink:href="#linear-gradient"/>
  </defs>
  <g id="Groupe_201" data-name="Groupe 201" transform="translate(0.003 -0.005)">
    <path id="Tracé_24" data-name="Tracé 24" d="M751.724,360.926c-26.1,42.215-21.206,99.725-9.745,145.071,3.835,15.183,8.253,31.211,4.974,48.2-4.01,20.777-18.631,37.093-33.427,46.436-26.975,16.991-57.778,16.52-80.208-1.245-19.37-15.345-32.125-42.109-51.9-56.631-33.068-24.309-78.477-9.576-117.906,13.143-27.883,16.034-58.573,36.438-84.345,24.886-18.131-8.112-29.438-31-34.715-55.906-2.547-12.024-4.088-25.16-9.927-34.321-3.476-5.446-8.253-9.09-13.206-12.08-45.205-27.257-106.367-4.468-149.961-35.334-29.445-20.84-46.183-63.885-51.685-109.913s-.978-95.279,4.686-143.77c4.032-34.475,9.484-71.357,27.58-99.395,19.144-29.656,49.321-42.918,75.55-40.1s49,19.433,68.634,39.745c24.534,25.385,46.661,57.806,78.414,66,21.628,5.579,45.247-.879,68.247-4.531,38.4-6.107,76.268-4.355,113.867-2.061,36,2.2,72.208,4.925,105.748,17.59,23.732,8.971,41.947,27.644,64.1,39.787,14.438,7.915,30.725,8.921,44.178,19.475,16.569,13,30.908,37,24.273,67.34C788.62,322.165,765.57,338.524,751.724,360.926Z" transform="translate(-117.18 -49.59)" fill="#6c63ff" opacity="0.1"/>
    <path id="Tracé_25" data-name="Tracé 25" d="M781.67,295.188s71.062-59.544,86.864-89.566,35.918-55.892,35.918-55.892" transform="translate(-314.149 -79.272)" fill="none" stroke="#535461" stroke-miterlimit="10" stroke-width="2"/>
    <path id="Tracé_26" data-name="Tracé 26" d="M929.95,242.2l-30.739-6.93S906.464,267.691,929.95,242.2Z" transform="translate(-348.99 -104.628)" fill="#6c63ff"/>
    <path id="Tracé_27" data-name="Tracé 27" d="M874.182,198.08l17.688,26.49S857.289,227.068,874.182,198.08Z" transform="translate(-340.193 -93.604)" fill="#6c63ff"/>
    <path id="Tracé_28" data-name="Tracé 28" d="M948.254,207.655,920.16,202.73S937.806,229.572,948.254,207.655Z" transform="translate(-355.2 -94.982)" fill="#6c63ff"/>
    <path id="Tracé_29" data-name="Tracé 29" d="M899.868,176.08,913.708,194.2S889.209,196.526,899.868,176.08Z" transform="translate(-348.389 -87.083)" fill="#6c63ff"/>
    <path id="Tracé_30" data-name="Tracé 30" d="M940.81,170.95s23.922,1.14,26.736,3.426-3.567,15.69-12.665,13.5S940.81,170.95,940.81,170.95Z" transform="translate(-361.321 -85.562)" fill="#6c63ff"/>
    <path id="Tracé_31" data-name="Tracé 31" d="M923.468,140.56s9.773,17.808,9.407,21.2-14.895,7.2-17.829-5.629S923.468,140.56,923.468,140.56Z" transform="translate(-353.541 -76.554)" fill="#6c63ff"/>
    <circle id="Ellipse_19" data-name="Ellipse 19" cx="6.652" cy="6.652" r="6.652" transform="translate(585.629 79.944) rotate(-72.474)" fill="#ffd037"/>
    <circle id="Ellipse_20" data-name="Ellipse 20" cx="6.652" cy="6.652" r="6.652" transform="translate(575.215 73.098) rotate(-72.474)" fill="#ffd037"/>
    <path id="Tracé_32" data-name="Tracé 32" d="M393.314,616.7s11.405-33.927-60.895-74.826c0,0-73.412-21.41-65.9-94.934,0,0-84.627,62-27.362,140.976s106.691,61.739,106.691,61.739Z" transform="translate(-147.442 -167.371)" fill="#6c63ff"/>
    <path id="Tracé_33" data-name="Tracé 33" d="M387.1,632.024s-35.278-38.127-69.092-52.867a67.34,67.34,0,0,1-18.37-12.235c-21.558-19.7-30.958-49.427-25.4-78.1l8.126-41.884" transform="translate(-163.272 -167.371)" fill="none" stroke="#535461" stroke-miterlimit="10" stroke-width="2"/>
    <rect id="Rectangle_279" data-name="Rectangle 279" width="401.47" height="466.143" transform="translate(135.839 23.36)" fill="url(#linear-gradient)"/>
    <rect id="Rectangle_280" data-name="Rectangle 280" width="392.119" height="455.28" transform="translate(140.518 28.785)" fill="#f7f7fd"/>
    <rect id="Rectangle_281" data-name="Rectangle 281" width="99.127" height="7.894" transform="translate(164.201 80.104)" fill="#e2e2ec"/>
    <rect id="Rectangle_282" data-name="Rectangle 282" width="169.303" height="7.894" transform="translate(164.201 99.403)" fill="#e2e2ec"/>
    <rect id="Rectangle_283" data-name="Rectangle 283" width="70.351" height="60.705" transform="translate(443.508 72.562)" fill="#fff"/>
    <path id="Tracé_34" data-name="Tracé 34" d="M817.358,152.924v60H747.7v-60h69.654m.7-.7H747v61.408h71.062Z" transform="translate(-303.872 -80.01)" fill="#e2e2ec"/>
    <rect id="Rectangle_284" data-name="Rectangle 284" width="70.351" height="60.705" transform="translate(372.453 72.562)" fill="#fff"/>
    <path id="Tracé_35" data-name="Tracé 35" d="M716.358,152.924v60H646.7v-60h69.654m.7-.7H646v61.408h71.062Z" transform="translate(-273.934 -80.01)" fill="#e2e2ec"/>
    <rect id="Rectangle_285" data-name="Rectangle 285" width="70.351" height="60.705" transform="translate(443.508 133.97)" fill="#fff"/>
    <path id="Tracé_36" data-name="Tracé 36" d="M817.358,240.2v60H747.7v-60h69.654m.7-.7H747v61.408h71.062Z" transform="translate(-303.872 -105.882)" fill="#e2e2ec"/>
    <rect id="Rectangle_286" data-name="Rectangle 286" width="70.351" height="60.705" transform="translate(372.453 133.97)" fill="#fff"/>
    <path id="Tracé_37" data-name="Tracé 37" d="M716.358,240.2v60H646.7v-60h69.654m.7-.7H646v61.408h71.062Z" transform="translate(-273.934 -105.882)" fill="#e2e2ec"/>
    <rect id="Rectangle_287" data-name="Rectangle 287" width="70.351" height="60.705" transform="translate(301.399 133.97)" fill="#fff"/>
    <path id="Tracé_38" data-name="Tracé 38" d="M615.408,240.2v60H545.754v-60h69.655m.7-.7H545.05v61.408h71.062Z" transform="translate(-244.01 -105.882)" fill="#e2e2ec"/>
    <rect id="Rectangle_288" data-name="Rectangle 288" width="70.351" height="60.705" transform="translate(230.344 133.97)" fill="#fff"/>
    <path id="Tracé_39" data-name="Tracé 39" d="M514.418,240.2v60H444.764v-60h69.654m.7-.7H444.06v61.408h71.062Z" transform="translate(-214.075 -105.882)" fill="#e2e2ec"/>
    <rect id="Rectangle_289" data-name="Rectangle 289" width="70.351" height="60.705" transform="translate(159.29 133.97)" fill="#fff"/>
    <path id="Tracé_40" data-name="Tracé 40" d="M413.428,240.2v60H343.774v-60h69.654m.7-.7H343.07v61.408h71.062Z" transform="translate(-184.139 -105.882)" fill="#e2e2ec"/>
    <rect id="Rectangle_290" data-name="Rectangle 290" width="70.351" height="60.705" transform="translate(443.508 195.372)" fill="#fff"/>
    <path id="Tracé_41" data-name="Tracé 41" d="M817.358,327.484v60H747.7v-60h69.654m.7-.7H747v61.409h71.062Z" transform="translate(-303.872 -131.753)" fill="#e2e2ec"/>
    <rect id="Rectangle_291" data-name="Rectangle 291" width="70.351" height="60.705" transform="translate(372.453 195.372)" fill="#fff"/>
    <path id="Tracé_42" data-name="Tracé 42" d="M716.358,327.484v60H646.7v-60h69.654m.7-.7H646v61.409h71.062Z" transform="translate(-273.934 -131.753)" fill="#e2e2ec"/>
    <rect id="Rectangle_292" data-name="Rectangle 292" width="70.351" height="60.705" transform="translate(301.399 195.372)" fill="#fff"/>
    <path id="Tracé_43" data-name="Tracé 43" d="M615.408,327.484v60H545.754v-60h69.655m.7-.7H545.05v61.409h71.062Z" transform="translate(-244.01 -131.753)" fill="#e2e2ec"/>
    <rect id="Rectangle_293" data-name="Rectangle 293" width="70.351" height="60.705" transform="translate(230.344 195.372)" fill="#fff"/>
    <path id="Tracé_44" data-name="Tracé 44" d="M514.418,327.484v60H444.764v-60h69.654m.7-.7H444.06v61.409h71.062Z" transform="translate(-214.075 -131.753)" fill="#e2e2ec"/>
    <rect id="Rectangle_294" data-name="Rectangle 294" width="70.351" height="60.705" transform="translate(159.29 195.372)" fill="#fff"/>
    <path id="Tracé_45" data-name="Tracé 45" d="M413.428,327.484v60H343.774v-60h69.654m.7-.7H343.07v61.409h71.062Z" transform="translate(-184.139 -131.753)" fill="#e2e2ec"/>
    <rect id="Rectangle_295" data-name="Rectangle 295" width="70.351" height="60.705" transform="translate(443.508 256.78)" fill="#fff"/>
    <path id="Tracé_46" data-name="Tracé 46" d="M817.358,414.754v60H747.7v-60h69.654m.7-.7H747v61.408h71.062Z" transform="translate(-303.872 -157.622)" fill="#e2e2ec"/>
    <rect id="Rectangle_296" data-name="Rectangle 296" width="70.351" height="60.705" transform="translate(372.453 256.78)" fill="#fff"/>
    <path id="Tracé_47" data-name="Tracé 47" d="M716.358,414.754v60H646.7v-60h69.654m.7-.7H646v61.408h71.062Z" transform="translate(-273.934 -157.622)" fill="#e2e2ec"/>
    <rect id="Rectangle_297" data-name="Rectangle 297" width="70.351" height="60.705" transform="translate(301.399 256.78)" fill="#fff"/>
    <path id="Tracé_48" data-name="Tracé 48" d="M615.408,414.754v60H545.754v-60h69.655m.7-.7H545.05v61.408h71.062Z" transform="translate(-244.01 -157.622)" fill="#e2e2ec"/>
    <rect id="Rectangle_298" data-name="Rectangle 298" width="70.351" height="60.705" transform="translate(230.344 256.78)" fill="#fff"/>
    <path id="Tracé_49" data-name="Tracé 49" d="M514.418,414.754v60H444.764v-60h69.654m.7-.7H444.06v61.408h71.062Z" transform="translate(-214.075 -157.622)" fill="#e2e2ec"/>
    <rect id="Rectangle_299" data-name="Rectangle 299" width="70.351" height="60.705" transform="translate(159.29 256.78)" fill="#fff"/>
    <path id="Tracé_50" data-name="Tracé 50" d="M413.428,414.754v60H343.774v-60h69.654m.7-.7H343.07v61.408h71.062Z" transform="translate(-184.139 -157.622)" fill="#e2e2ec"/>
    <rect id="Rectangle_300" data-name="Rectangle 300" width="70.351" height="60.705" transform="translate(443.508 318.182)" fill="#fff"/>
    <path id="Tracé_51" data-name="Tracé 51" d="M817.358,502.034v59.994H747.7V502.034h69.654m.7-.7H747v61.4h71.062Z" transform="translate(-303.872 -183.493)" fill="#e2e2ec"/>
    <rect id="Rectangle_301" data-name="Rectangle 301" width="70.351" height="60.705" transform="translate(372.453 318.182)" fill="#fff"/>
    <path id="Tracé_52" data-name="Tracé 52" d="M716.358,502.034v59.994H646.7V502.034h69.654m.7-.7H646v61.4h71.062Z" transform="translate(-273.934 -183.493)" fill="#e2e2ec"/>
    <rect id="Rectangle_302" data-name="Rectangle 302" width="70.351" height="60.705" transform="translate(301.399 318.182)" fill="#fff"/>
    <path id="Tracé_53" data-name="Tracé 53" d="M615.408,502.034v59.994H545.754V502.034h69.655m.7-.7H545.05v61.4h71.062Z" transform="translate(-244.01 -183.493)" fill="#e2e2ec"/>
    <rect id="Rectangle_303" data-name="Rectangle 303" width="70.351" height="60.705" transform="translate(230.344 318.182)" fill="#fff"/>
    <path id="Tracé_54" data-name="Tracé 54" d="M514.418,502.034v59.994H444.764V502.034h69.654m.7-.7H444.06v61.4h71.062Z" transform="translate(-214.075 -183.493)" fill="#e2e2ec"/>
    <rect id="Rectangle_304" data-name="Rectangle 304" width="70.351" height="60.705" transform="translate(159.29 318.182)" fill="#fff"/>
    <path id="Tracé_55" data-name="Tracé 55" d="M413.428,502.034v59.994H343.774V502.034h69.654m.7-.7H343.07v61.4h71.062Z" transform="translate(-184.139 -183.493)" fill="#e2e2ec"/>
    <rect id="Rectangle_305" data-name="Rectangle 305" width="70.351" height="60.705" transform="translate(443.508 379.59)" fill="#fff"/>
    <path id="Tracé_56" data-name="Tracé 56" d="M817.358,589.3v60H747.7v-60h69.654m.7-.7H747v61.408h71.062Z" transform="translate(-303.872 -209.362)" fill="#e2e2ec"/>
    <rect id="Rectangle_306" data-name="Rectangle 306" width="70.351" height="60.705" transform="translate(372.453 379.59)" fill="#fff"/>
    <path id="Tracé_57" data-name="Tracé 57" d="M716.358,589.3v60H646.7v-60h69.654m.7-.7H646v61.408h71.062Z" transform="translate(-273.934 -209.362)" fill="#e2e2ec"/>
    <rect id="Rectangle_307" data-name="Rectangle 307" width="70.351" height="60.705" transform="translate(301.399 379.59)" fill="#fff"/>
    <path id="Tracé_58" data-name="Tracé 58" d="M615.408,589.3v60H545.754v-60h69.655m.7-.7H545.05v61.408h71.062Z" transform="translate(-244.01 -209.362)" fill="#e2e2ec"/>
    <rect id="Rectangle_308" data-name="Rectangle 308" width="70.351" height="60.705" transform="translate(230.344 379.59)" fill="#fff"/>
    <path id="Tracé_59" data-name="Tracé 59" d="M514.418,589.3v60H444.764v-60h69.654m.7-.7H444.06v61.408h71.062Z" transform="translate(-214.075 -209.362)" fill="#e2e2ec"/>
    <rect id="Rectangle_309" data-name="Rectangle 309" width="70.351" height="60.705" transform="translate(159.29 379.59)" fill="#fff"/>
    <path id="Tracé_60" data-name="Tracé 60" d="M413.428,589.3v60H343.774v-60h69.654m.7-.7H343.07v61.408h71.062Z" transform="translate(-184.139 -209.362)" fill="#e2e2ec"/>
    <path id="Tracé_61" data-name="Tracé 61" d="M535.256,747.027c2.012-1.527,3.9-3.328,4.489-5.523a4.672,4.672,0,0,0-3.138-5.629c-2.878-.9-5.952.7-8.288,2.371s-5,3.518-8.056,3.173a8.979,8.979,0,0,0,3.792-9.365,3.631,3.631,0,0,0-1.055-1.9c-1.6-1.407-4.5-.795-6.41.3-6.086,3.518-7.782,10.237-7.817,16.309-.612-2.188-.1-4.468-.113-6.719s-.767-4.735-3.089-5.945a11.055,11.055,0,0,0-4.714-.908c-2.737-.084-5.783.141-7.648,1.773-2.322,2.026-1.717,5.432.3,7.662s5.094,3.63,7.915,5.171a16.154,16.154,0,0,1,5.629,4.4,4,4,0,0,1,.422.788h17.146A49.3,49.3,0,0,0,535.256,747.027Z" transform="translate(-228.201 -251.079)" fill="#6c63ff"/>
    <circle id="Ellipse_21" data-name="Ellipse 21" cx="4.01" cy="4.01" r="4.01" transform="translate(164.559 139.191)" fill="#fc6681"/>
    <circle id="Ellipse_22" data-name="Ellipse 22" cx="4.01" cy="4.01" r="4.01" transform="translate(174.578 139.191)" fill="#ffd037"/>
    <circle id="Ellipse_23" data-name="Ellipse 23" cx="4.01" cy="4.01" r="4.01" transform="translate(306.176 198.643)" fill="#6c63ff"/>
    <circle id="Ellipse_24" data-name="Ellipse 24" cx="4.01" cy="4.01" r="4.01" transform="translate(316.202 198.643)" fill="#6c63ff"/>
    <circle id="Ellipse_25" data-name="Ellipse 25" cx="4.01" cy="4.01" r="4.01" transform="translate(520.606 313.538)" fill="#6c63ff"/>
    <circle id="Ellipse_26" data-name="Ellipse 26" cx="4.01" cy="4.01" r="4.01" transform="translate(522.611 308.866)" fill="#6c63ff"/>
    <circle id="Ellipse_27" data-name="Ellipse 27" cx="4.01" cy="4.01" r="4.01" transform="translate(524.617 304.856)" fill="#6c63ff"/>
    <circle id="Ellipse_28" data-name="Ellipse 28" cx="4.01" cy="4.01" r="4.01" transform="translate(449.798 139.191)" fill="#6c63ff"/>
    <circle id="Ellipse_29" data-name="Ellipse 29" cx="4.01" cy="4.01" r="4.01" transform="translate(459.817 139.191)" fill="#6c63ff"/>
    <circle id="Ellipse_30" data-name="Ellipse 30" cx="4.01" cy="4.01" r="4.01" transform="translate(469.843 139.191)" fill="#6c63ff"/>
    <circle id="Ellipse_31" data-name="Ellipse 31" cx="4.01" cy="4.01" r="4.01" transform="translate(479.862 139.191)" fill="#6c63ff"/>
    <circle id="Ellipse_32" data-name="Ellipse 32" cx="4.01" cy="4.01" r="4.01" transform="translate(449.798 263.436)" fill="#6c63ff"/>
    <circle id="Ellipse_33" data-name="Ellipse 33" cx="4.01" cy="4.01" r="4.01" transform="translate(459.817 263.436)" fill="#6c63ff"/>
    <circle id="Ellipse_34" data-name="Ellipse 34" cx="4.01" cy="4.01" r="4.01" transform="translate(469.843 263.436)" fill="#6c63ff"/>
    <circle id="Ellipse_35" data-name="Ellipse 35" cx="4.01" cy="4.01" r="4.01" transform="translate(479.862 263.436)" fill="#6c63ff"/>
    <circle id="Ellipse_36" data-name="Ellipse 36" cx="4.01" cy="4.01" r="4.01" transform="translate(235.368 198.643)" fill="#ffd037"/>
    <circle id="Ellipse_37" data-name="Ellipse 37" cx="4.01" cy="4.01" r="4.01" transform="translate(164.559 259.433)" fill="#fc6681"/>
    <path id="Tracé_62" data-name="Tracé 62" d="M856.9,420.3c4.4,2.6,11.257,4.285,19.946-1.295l-.084,12.355c.619,8.443,11.1,39.337,11.1,39.337l7.388,25.4a198.74,198.74,0,0,1,8.119,55.252c0,6.2.577,12.587,2.357,17.392,3.933,10.631-1.548,24.33-3.926,29.431A123.6,123.6,0,0,1,889.6,601.6a8.328,8.328,0,0,0-1.091.331l-.049-.07s-11.088,4.4-16.013,3.792c-3.673-.45-5.973,4.13-3.1,7.5a22.516,22.516,0,0,1-7.38.971c-4.925-.605-7.395,7.866,1.85,10.286s61.626,0,61.626,0a7.43,7.43,0,0,0,3.94-8.2c4.024-.155,6.536-.275,6.536-.275s9.245-4.221,0-15.739l-.492.373-1.977-5.819V586.89s11.708-56.286,8.014-62.942-5.544-40.547-5.544-40.547l1.252-36.917c3.342-6.9,5.052-17.7,5.917-26.152a55.49,55.49,0,0,0,2.364-12.4c.148-1.984.267-4.067.345-6.227a41.745,41.745,0,0,0-2.294-13.924c3.518-5.066,9.238-12.9,13.959-17.526a17.984,17.984,0,0,0,5.544-15.739l-3.082-20.58-7.395-35.1c.929-9.738-1.1-15.345-3.349-18.511.535-3.145,1.034-6.29,1.407-9.449a120.927,120.927,0,0,0-2.16-41.145c-1.069-4.707-2.526-9.534-5.826-13.1-3.736-4.039-9.8-6.5-11.194-11.792a34.218,34.218,0,0,0-.858-3.982c-1.351-3.462-5.629-4.721-9.372-5.171-6.67-.809-16.316-1.407-22.726,1.2-4.475,1.829-10.638,6.867-13.086,12.27a9.225,9.225,0,0,0-.4,10.132,23.219,23.219,0,0,0-1.435,8.084,23.612,23.612,0,0,0,15.071,21.9c.148.464.281.922.394,1.372a23.507,23.507,0,0,1,.605,3.3c-.12,2.111-.253,4.285-.352,6.431q-.106.443-.225.872a158.561,158.561,0,0,0-15.479,7.894c3.7,5.446-.619,28.446-.619,28.446-9.245,5.446-18.49,19.37-8.626,33.891s4.313,30.254,4.313,30.254l-1.541,23.661h0v.042l-.31,4.735h.12l-.12,1.794.267.049v1.928c-4.327,1.59-10.652,4.8-14.423,10.73a37.86,37.86,0,0,1-6.452,7.915,4.756,4.756,0,0,0,.739,7.718Zm74.411-62.872a22.515,22.515,0,0,1,2.188-11.9q2.174.042,4.355.049c.148,1.02.324,1.991.535,2.878,1.252,5.333-3.75,7.887-7.085,8.971Z" transform="translate(-335.741 -92.687)" fill="url(#linear-gradient-2)"/>
    <path id="Tracé_63" data-name="Tracé 63" d="M944.641,757.264l2.371,7.113-7.739,7.739-25.5,5.931-18.385-1.78,1.189-6.522h0a7.866,7.866,0,0,1,5.84-5.748c7.556-1.773,21.966-5.826,24.991-11.447Z" transform="translate(-347.858 -257.96)" fill="#db8b8b"/>
    <path id="Tracé_64" data-name="Tracé 64" d="M944.641,757.264l2.371,7.113-7.739,7.739-25.5,5.931-18.385-1.78,1.189-6.522h0a7.866,7.866,0,0,1,5.84-5.748c7.556-1.773,21.966-5.826,24.991-11.447Z" transform="translate(-347.858 -257.96)" opacity="0.1"/>
    <path id="Tracé_65" data-name="Tracé 65" d="M895.585,778.7l3.56-4.742-3.56-5.495s-10.673,4.306-15.415,3.715-7.113,7.739,1.78,10.082,59.3,0,59.3,0,8.893-4.151,0-15.415l-7.739,5.931s-13.044,7.113-19.567,5.931Z" transform="translate(-342.094 -262.196)" fill="#2e3037"/>
    <path id="Tracé_66" data-name="Tracé 66" d="M881.1,788l18.385,1.78,25.5-5.931,7.739-7.739-.626-1.886-.886-2.645L930.323,769l-17.2-4.742a10.652,10.652,0,0,1-3.518,3.518c-5.586,3.82-15.62,6.579-21.508,7.958a6.17,6.17,0,0,0-.7.218,7.838,7.838,0,0,0-5.108,5.53Z" transform="translate(-343.622 -261.431)" fill="#db8b8b"/>
    <path id="Tracé_67" data-name="Tracé 67" d="M881.1,792.2l18.385,1.78,25.5-5.931,7.739-7.739-.626-1.886-7.078,5.446s-13.044,7.113-19.567,5.931h-18.42l3.56-4.742L887.4,780.13a7.838,7.838,0,0,0-5.108,5.53Z" transform="translate(-343.622 -265.628)" opacity="0.1"/>
    <path id="Tracé_68" data-name="Tracé 68" d="M881.255,790.5l3.56-4.742-3.56-5.495s-10.673,4.306-15.415,3.715-7.113,7.739,1.78,10.082,59.3,0,59.3,0,8.893-4.151,0-15.415l-7.74,5.931s-13.044,7.113-19.566,5.931Z" transform="translate(-337.846 -265.693)" fill="#2e3037"/>
    <path id="Tracé_69" data-name="Tracé 69" d="M910.6,293.422s28.467,2.962,24.316-8.893a21.347,21.347,0,0,1-.879-10.469A29.022,29.022,0,0,1,939.067,262l-26.687,4.151a33.424,33.424,0,0,1,3.616,8.57C919.177,287.294,910.6,293.422,910.6,293.422Z" transform="translate(-352.366 -112.551)" fill="#db8b8b"/>
    <path id="Tracé_70" data-name="Tracé 70" d="M965.206,498.82s-.591,25.5-6.522,37.951l-1.189,36.171s1.78,33.209,5.34,39.731-7.74,61.669-7.74,61.669v9.491s-19,7.113-24.316-1.189l5.34-70.569-2.371-97.84Z" transform="translate(-358.348 -182.749)" fill="#474463"/>
    <path id="Tracé_71" data-name="Tracé 71" d="M965.206,498.82s-.591,25.5-6.522,37.951l-1.189,36.171s1.78,33.209,5.34,39.731-7.74,61.669-7.74,61.669v9.491s-19,7.113-24.316-1.189l5.34-70.569-2.371-97.84Z" transform="translate(-358.348 -182.749)" opacity="0.1"/>
    <path id="Tracé_72" data-name="Tracé 72" d="M985.33,382.51,988.89,392l2.962,20.165a17.836,17.836,0,0,1-5.34,15.415c-7.113,7.113-16.6,21.938-16.6,21.938L958.65,415.747s11.257-1.78,9.491-9.491-1.2-21.994-1.2-21.994Z" transform="translate(-366.609 -148.273)" fill="#fc6681"/>
    <path id="Tracé_73" data-name="Tracé 73" d="M985.33,382.51,988.89,392l2.962,20.165a17.836,17.836,0,0,1-5.34,15.415c-7.113,7.113-16.6,21.938-16.6,21.938L958.65,415.747s11.257-1.78,9.491-9.491-1.2-21.994-1.2-21.994Z" transform="translate(-366.609 -148.273)" opacity="0.05"/>
    <path id="Tracé_74" data-name="Tracé 74" d="M921.66,767.785c7.606,11.961,19.447,5.185,21.544,3.835L942.345,769l-17.2-4.742A10.655,10.655,0,0,1,921.66,767.785Z" transform="translate(-355.645 -261.431)" opacity="0.1"/>
    <path id="Tracé_75" data-name="Tracé 75" d="M887.85,503.948c.591,8.3,10.673,38.542,10.673,38.542l7.113,24.886a198.014,198.014,0,0,1,7.817,54.133c0,6.072.556,12.334,2.273,17.041,4.742,13.044-4.742,30.838-4.742,30.838,8.3,14.824,22.515,4.742,22.515,4.742v-9.484s11.257-51.594,8.3-61.669-4.151-37.36-4.151-37.36V516.366a55.851,55.851,0,0,0,16.274-35.4c.141-1.942.253-3.982.331-6.1.478-13.368-8.668-29.065-12.242-34.651-.858-1.351-1.407-2.111-1.407-2.111l-52.36,20.77-.12.049v6.508Z" transform="translate(-345.623 -164.751)" fill="#474463"/>
    <path id="Tracé_76" data-name="Tracé 76" d="M913.13,266.144a33.414,33.414,0,0,1,3.616,8.57,23.218,23.218,0,0,0,18.04-.661A29.023,29.023,0,0,1,939.817,262Z" transform="translate(-353.116 -112.551)" opacity="0.1"/>
    <circle id="Ellipse_38" data-name="Ellipse 38" cx="23.127" cy="23.127" r="23.127" transform="translate(548.749 116.226)" fill="#db8b8b"/>
    <path id="Tracé_77" data-name="Tracé 77" d="M887.85,465.418l.253.049c24.864,5.115,56.082-20.8,56.082-20.8a30.724,30.724,0,0,1-2.16-4.411c-.858-1.351-1.407-2.111-1.407-2.111l-52.36,20.77-.134,2.076Z" transform="translate(-345.623 -164.762)" opacity="0.1"/>
    <path id="Tracé_78" data-name="Tracé 78" d="M891.657,299.968s33.209-20.165,43.882-11.862l14.824,19s9.491,2.962,7.739,21.938l7.085,34.384-21.347,5.34s-12.453,11.862-2.371,29.058c0,0-31.429,26.089-56.336,20.756l1.78-27.869s5.34-15.415-4.151-29.649-.591-27.869,8.3-33.209C891.066,327.843,895.21,305.308,891.657,299.968Z" transform="translate(-342.908 -119.695)" fill="#fc6681"/>
    <path id="Tracé_79" data-name="Tracé 79" d="M883.579,477.75s-12.453,2.371-18.385,11.862a36.959,36.959,0,0,1-6.206,7.739,4.707,4.707,0,0,0,.7,7.5c4.707,2.814,12.383,4.566,22.078-3.4C898.4,487.832,883.579,477.75,883.579,477.75Z" transform="translate(-336.61 -176.504)" fill="#db8b8b"/>
    <path id="Tracé_80" data-name="Tracé 80" d="M912.239,321.642s11.862-1.189,14.824,29.649,7.739,37.951,7.739,37.951,2.962,16.013-4.151,25.5S909.9,444.389,909.9,444.389s-14.824,4.151-17.787-10.673l18.385-34.391s2.962-11.862-4.151-20.165S893.855,315.711,912.239,321.642Z" transform="translate(-346.886 -130.098)" opacity="0.1"/>
    <path id="Tracé_81" data-name="Tracé 81" d="M910.519,319.112s11.862-1.189,14.824,29.649,7.739,37.951,7.739,37.951,2.962,16.013-4.151,25.5-20.756,29.649-20.756,29.649-14.824,4.151-17.787-10.673l18.385-34.391s2.962-11.862-4.151-20.165S892.156,313.181,910.519,319.112Z" transform="translate(-346.376 -129.348)" fill="#fc6681"/>
    <path id="Tracé_82" data-name="Tracé 82" d="M905.073,350.9s-1.182,18.363,4.137,28.467,5.34,23.127,0,30.254" transform="translate(-350.695 -138.903)" opacity="0.1"/>
    <path id="Tracé_83" data-name="Tracé 83" d="M900.91,314.632s4.742-4.742,18.384-5.34,19.567-4.742,19.567-4.742" transform="translate(-349.494 -125.164)" opacity="0.1"/>
    <path id="Tracé_84" data-name="Tracé 84" d="M932.875,204.893c3.6.443,7.74,1.682,9.02,5.066a34.673,34.673,0,0,1,.823,3.9c1.344,5.178,7.177,7.592,10.772,11.553,3.173,3.518,4.573,8.225,5.629,12.833a120.6,120.6,0,0,1,2.111,40.287c-1.154,9.85-3.518,19.517-4.179,29.4s.549,20.27,5.945,28.572c2.322,3.567,5.389,6.705,7.036,10.631-3.4,2.758-8.091,3.152-12.474,3.3q-7.648.26-15.3,0c-2.674-.091-5.467-.267-7.775-1.618a12,12,0,0,1-4.081-4.383c-2.92-4.925-3.652-10.905-3.518-16.647s1.034-11.454,1.14-17.2c.056-3.131-.19-6.459-1.991-9.02-1.3-1.85-3.279-3.1-4.967-4.594-6.332-5.629-8.527-14.649-8.738-23.127s1.189-16.97.471-25.42c-.281-3.307-1.52-7.282-4.77-7.922a16.786,16.786,0,0,1-3.1-.394c-2.61-1.006-2.357-4.686-3.1-7.381-.837-3.025-3.419-5.361-4.144-8.443-1.71-7.177,7.423-15.739,13.41-18.237C917.178,203.5,926.458,204.1,932.875,204.893Z" transform="translate(-348.475 -95.421)" opacity="0.1"/>
    <path id="Tracé_85" data-name="Tracé 85" d="M933.715,203.21c3.6.443,7.739,1.682,9.02,5.066a34.672,34.672,0,0,1,.823,3.9c1.344,5.178,7.177,7.592,10.772,11.553,3.173,3.518,4.573,8.225,5.629,12.833a120.593,120.593,0,0,1,2.111,40.287c-1.154,9.85-3.518,19.517-4.179,29.4s.549,20.27,5.945,28.572c2.322,3.567,5.389,6.705,7.036,10.631-3.4,2.758-8.091,3.152-12.474,3.3q-7.648.26-15.3,0c-2.674-.091-5.467-.267-7.775-1.618a12,12,0,0,1-4.081-4.383c-2.92-4.925-3.652-10.905-3.518-16.647s1.034-11.454,1.14-17.2c.056-3.131-.19-6.459-1.991-9.02-1.3-1.85-3.279-3.1-4.967-4.594-6.332-5.629-8.527-14.649-8.738-23.127s1.189-16.97.471-25.42c-.281-3.307-1.52-7.282-4.77-7.922a16.791,16.791,0,0,1-3.1-.394c-2.61-1.006-2.357-4.686-3.1-7.381-.837-3.025-3.419-5.361-4.144-8.443-1.71-7.177,7.423-15.739,13.41-18.237C918.018,201.81,927.3,202.415,933.715,203.21Z" transform="translate(-348.724 -94.921)" fill="#472727"/>
  </g>
</svg>
