<svg xmlns="http://www.w3.org/2000/svg" width="271.523" height="215.38" viewBox="0 0 271.523 215.38">
  <g id="Groupe_211" data-name="Groupe 211" transform="translate(-8.987 -5.109)">
    <path id="Tracé_170" data-name="Tracé 170" d="M362.7,551.7h-.921a.461.461,0,0,1-.46-.46v-.921a.461.461,0,0,1,.46-.46h.921a.461.461,0,0,1,.46.46v.921a.461.461,0,0,1-.46.461Z" transform="translate(-312.393 -392.839)" fill="#ccc"/>
    <path id="Tracé_171" data-name="Tracé 171" d="M363.2,524.672a.3.3,0,0,1-.052,0,.307.307,0,0,1-.25-.354l3.035-17.663a.307.307,0,0,1,.605.1L363.5,524.418A.307.307,0,0,1,363.2,524.672Z" transform="translate(-313.333 -366.823)" fill="#ccc"/>
    <path id="Tracé_172" data-name="Tracé 172" d="M358.674,524.672a.307.307,0,0,1-.3-.255l-3.035-17.663a.307.307,0,0,1,.6-.1l3.035,17.663a.307.307,0,0,1-.25.354A.289.289,0,0,1,358.674,524.672Z" transform="translate(-308.808 -366.823)" fill="#ccc"/>
    <path id="Tracé_173" data-name="Tracé 173" d="M370.811,493.166c.3-2.1-.824-3.987-2.5-4.224s-3.276,1.271-3.572,3.367A3.776,3.776,0,0,0,366.5,496.3l-.071.5,1.518.214.071-.5A3.776,3.776,0,0,0,370.811,493.166Z" transform="translate(-314.409 -356.362)" fill="#ff6584"/>
    <path id="Tracé_174" data-name="Tracé 174" d="M353.262,492.224c-.363-2.085-2.01-3.54-3.679-3.25s-2.726,2.217-2.363,4.3a3.776,3.776,0,0,0,2.9,3.258l.087.5,1.51-.263-.087-.5A3.776,3.776,0,0,0,353.262,492.224Z" transform="translate(-303.91 -356.373)" fill="#ccc"/>
    <path id="Tracé_175" data-name="Tracé 175" d="M363.158,523.022a.307.307,0,0,1-.307-.307V504.558a.307.307,0,1,1,.614,0v18.157a.307.307,0,0,1-.307.307Z" transform="translate(-313.308 -365.539)" fill="#ccc"/>
    <path id="Tracé_176" data-name="Tracé 176" d="M361.636,490.614c0-2.117-1.373-3.833-3.066-3.833s-3.066,1.716-3.066,3.833a3.776,3.776,0,0,0,2.3,3.707v.509h1.533v-.509A3.776,3.776,0,0,0,361.636,490.614Z" transform="translate(-308.91 -355.083)" fill="#6c63ff"/>
    <path id="Tracé_178" data-name="Tracé 178" d="M896.518,261.4c0-5.9-4.789-19.912-10.7-19.912s-10.7,14.009-10.7,19.912a10.7,10.7,0,1,0,21.393,0Z" transform="translate(-619.925 -208.262)" fill="#3f3d56"/>
    <path id="Tracé_179" data-name="Tracé 179" d="M901.587,312.491a.122.122,0,0,1-.122-.122V287.4a.122.122,0,1,1,.245,0v24.97A.122.122,0,0,1,901.587,312.491Z" transform="translate(-635.69 -235.671)" fill="#ccc"/>
    <path id="Tracé_180" data-name="Tracé 180" d="M892.415,288.259a.122.122,0,0,1-.093-.042l-6.152-7.095a.122.122,0,0,1,.185-.16l6.152,7.095a.122.122,0,0,1-.092.2Z" transform="translate(-626.518 -231.867)" fill="#ccc"/>
    <path id="Tracé_181" data-name="Tracé 181" d="M901.587,303.824a.122.122,0,0,1-.086-.209l3.5-3.5a.122.122,0,0,1,.173.173l-3.5,3.5a.122.122,0,0,1-.086.036Z" transform="translate(-635.69 -243.337)" fill="#ccc"/>
    <path id="Tracé_182" data-name="Tracé 182" d="M872.911,343.022a4.466,4.466,0,0,1,8.931,0" transform="translate(-618.6 -266.365)" fill="#f2f2f2"/>
    <path id="Tracé_183" data-name="Tracé 183" d="M883.854,345.811a.121.121,0,0,1-.121-.121v-2.353a.121.121,0,1,1,.241,0v2.353A.121.121,0,0,1,883.854,345.811Z" transform="translate(-625.078 -269.154)" fill="#ccc"/>
    <path id="Tracé_184" data-name="Tracé 184" d="M881.7,345.453a.121.121,0,0,1-.079-.029l-1.448-1.243a.121.121,0,0,1,.157-.183l1.448,1.243a.121.121,0,0,1-.079.212Z" transform="translate(-622.918 -269.604)" fill="#ccc"/>
    <path id="Tracé_185" data-name="Tracé 185" d="M907.183,343.022a4.466,4.466,0,0,1,8.931,0" transform="translate(-639.113 -266.365)" fill="#f2f2f2"/>
    <path id="Tracé_186" data-name="Tracé 186" d="M918.126,345.811a.121.121,0,0,1-.121-.121v-2.353a.121.121,0,0,1,.241,0v2.353A.121.121,0,0,1,918.126,345.811Z" transform="translate(-645.591 -269.154)" fill="#ccc"/>
    <path id="Tracé_187" data-name="Tracé 187" d="M915.967,345.453a.121.121,0,0,1-.078-.029l-1.448-1.243A.121.121,0,0,1,914.6,344l1.448,1.243a.121.121,0,0,1-.079.212Z" transform="translate(-643.431 -269.604)" fill="#ccc"/>
    <path id="Tracé_188" data-name="Tracé 188" d="M552.773,218.941c2.934-4.2,6.489-16.544,2.287-19.48s-14.57,4.649-17.5,8.849a9.282,9.282,0,0,0,15.218,10.631Z" transform="translate(-416.874 -182.716)" fill="#f2f2f2"/>
    <path id="Tracé_189" data-name="Tracé 189" d="M529.616,250.924a.106.106,0,0,1-.026-.148L542,233.014a.106.106,0,1,1,.174.122L529.763,250.9A.106.106,0,0,1,529.616,250.924Z" transform="translate(-413.096 -203.166)" fill="#ccc"/>
    <path id="Tracé_190" data-name="Tracé 190" d="M553.634,229.13a.106.106,0,0,1-.045-.076l-.85-8.1a.106.106,0,1,1,.211-.022l.85,8.1a.106.106,0,0,1-.166.1Z" transform="translate(-426.963 -195.902)" fill="#ccc"/>
    <path id="Tracé_191" data-name="Tracé 191" d="M549.833,247.349a.106.106,0,0,1,.042-.192l4.224-.749a.106.106,0,1,1,.037.209l-4.224.749a.106.106,0,0,1-.079-.018Z" transform="translate(-425.197 -211.209)" fill="#ccc"/>
    <path id="Tracé_192" data-name="Tracé 192" d="M509.356,260.6a3.875,3.875,0,0,1,6.353,4.438" transform="translate(-400.997 -218.711)" fill="#f2f2f2"/>
    <path id="Tracé_193" data-name="Tracé 193" d="M517.2,265.814a.1.1,0,0,1-.026-.146l1.17-1.674a.1.1,0,0,1,.172.12l-1.17,1.674A.1.1,0,0,1,517.2,265.814Z" transform="translate(-405.667 -221.709)" fill="#ccc"/>
    <path id="Tracé_194" data-name="Tracé 194" d="M517.588,264.485a.1.1,0,0,1-.042-.06l-.412-1.6a.1.1,0,1,1,.2-.052l.413,1.6a.1.1,0,0,1-.161.112Z" transform="translate(-405.651 -220.956)" fill="#ccc"/>
    <path id="Tracé_195" data-name="Tracé 195" d="M533.735,277.628a3.875,3.875,0,1,1,6.353,4.438" transform="translate(-415.589 -228.905)" fill="#f2f2f2"/>
    <path id="Tracé_196" data-name="Tracé 196" d="M541.58,282.845a.1.1,0,0,1-.026-.146l1.169-1.674a.1.1,0,0,1,.172.12l-1.17,1.674a.1.1,0,0,1-.146.026Z" transform="translate(-420.258 -231.903)" fill="#ccc"/>
    <path id="Tracé_197" data-name="Tracé 197" d="M541.966,281.516a.1.1,0,0,1-.042-.06l-.412-1.6a.1.1,0,1,1,.2-.052l.413,1.6a.1.1,0,0,1-.161.112Z" transform="translate(-420.242 -231.15)" fill="#ccc"/>
    <path id="Tracé_198" data-name="Tracé 198" d="M547.9,467.289q3.54,3.251,7.034,6.549c-.6.033-1.218.06-1.856.08-.9.03-1.836.043-2.818.043a60.341,60.341,0,0,1-21.533-3.482,61.754,61.754,0,0,0-38.983,0,68.343,68.343,0,0,1-43.073,0,53.667,53.667,0,0,0-18.828-3.154c-.219,0-.438,0-.664,0v-6.639c.222,0,.445,0,.664,0a60.1,60.1,0,0,1,20.872,3.475,61.693,61.693,0,0,0,38.983,0,68.394,68.394,0,0,1,43.07,0,52.721,52.721,0,0,0,15.07,3.041C546.5,467.243,547.187,467.269,547.9,467.289Z" transform="translate(-351.813 -339.462)" fill="#6c63ff"/>
    <path id="Tracé_199" data-name="Tracé 199" d="M836.345,467.322v6.639a60.359,60.359,0,0,1-21.536-3.482,61.767,61.767,0,0,0-38.987,0c-.272.09-.548.176-.823.266-.471.153-.949.305-1.434.455q-2.749-2.694-5.517-5.341c.514-.126,1.012-.259,1.5-.395,1.464-.4,2.835-.85,4.229-1.3a68.4,68.4,0,0,1,43.073,0A54.009,54.009,0,0,0,836.345,467.322Z" transform="translate(-555.835 -339.462)" fill="#6c63ff"/>
    <path id="Tracé_200" data-name="Tracé 200" d="M386.658,250.753c-18.582-13.533-38.134-26.366-58.107-38.14l-1-.591v39.933h60.759Zm-57.781-.126V214.349c19,11.24,37.606,23.435,55.348,36.278ZM480.7,332.819q-12.054-12.533-24.733-24.494-3.5-3.3-7.034-6.549-21.595-19.837-44.61-37.732l-.179-.139h-76.6v70.04H481.783Zm-151.824-.2V265.232H403.69q22.192,17.263,43.183,36.457,3.645,3.331,7.24,6.715,12.567,11.81,24.547,24.212Zm151.824.2q-12.054-12.533-24.733-24.494-3.5-3.3-7.034-6.549-21.595-19.837-44.61-37.732l-.179-.139h-76.6v70.04H481.783Zm-151.824-.2V265.232H403.69q22.192,17.263,43.183,36.457,3.645,3.331,7.24,6.715,12.567,11.81,24.547,24.212Zm57.781-81.864c-18.582-13.533-38.134-26.366-58.107-38.14l-1-.591v39.933h60.759Zm-57.781-.126V214.349c19,11.24,37.606,23.435,55.348,36.278Zm57.781.126c-18.582-13.533-38.134-26.366-58.107-38.14l-1-.591v39.933h60.759Zm-57.781-.126V214.349c19,11.24,37.606,23.435,55.348,36.278ZM480.7,332.819q-12.054-12.533-24.733-24.494-3.5-3.3-7.034-6.549-21.595-19.837-44.61-37.732l-.179-.139h-76.6v70.04H481.783Zm-151.824-.2V265.232H403.69q22.192,17.263,43.183,36.457,3.645,3.331,7.24,6.715,12.567,11.81,24.547,24.212Zm-67.046,13.278v1.328h52.44v19.253h-52.44V367.8H315.6V345.894Zm65.718,33.858v13.454l1.328-.123v-12H533.354v-1.328Zm205.8-32.53v-1.328h-205.8V367.8h205.8v-1.328H328.877V347.222Zm-124-96.6a647.876,647.876,0,0,0-80.48-53.028V184.155l-1.328.123v13.548l1.022,1.124a646.537,646.537,0,0,1,80.154,52.865l.179.139H533.354v-1.328Zm-95.085,0h-52.44v1.328H315.6V185.387l-1.328.123ZM533.354,263.9H423.949l1.431,1.175q20.205,16.625,39.677,35.266,2.768,2.649,5.517,5.341Q484.256,319.055,497.4,333.3l1.095.647h34.855v-1.328H498.583q-13.006-14.1-26.575-27.385-2.713-2.659-5.447-5.281-19.05-18.278-38.914-34.718H533.354ZM261.831,379.752v1.328h52.44v13.357l1.328-.123V379.752Zm0-115.848v1.328h52.44v67.384h-52.44v1.328H315.6V263.9Zm124.827-13.152c-18.582-13.533-38.134-26.366-58.107-38.14l-1-.591v39.933h60.759Zm-57.781-.126V214.349c19,11.24,37.606,23.435,55.348,36.278ZM480.7,332.819q-12.054-12.533-24.733-24.494-3.5-3.3-7.034-6.549-21.595-19.837-44.61-37.732l-.179-.139h-76.6v70.04H481.783Zm-151.824-.2V265.232H403.69q22.192,17.263,43.183,36.457,3.645,3.331,7.24,6.715,12.567,11.81,24.547,24.212Zm57.781-81.864c-18.582-13.533-38.134-26.366-58.107-38.14l-1-.591v39.933h60.759Zm-57.781-.126V214.349c19,11.24,37.606,23.435,55.348,36.278ZM480.7,332.819q-12.054-12.533-24.733-24.494-3.5-3.3-7.034-6.549-21.595-19.837-44.61-37.732l-.179-.139h-76.6v70.04H481.783Zm-151.824-.2V265.232H403.69q22.192,17.263,43.183,36.457,3.645,3.331,7.24,6.715,12.567,11.81,24.547,24.212Z" transform="translate(-252.844 -173.949)" fill="#b9b6b6"/>
    <path id="Tracé_201" data-name="Tracé 201" d="M659.267,433.115c0-5.846,4.739-19.718,10.585-19.718s10.585,13.872,10.585,19.718a10.585,10.585,0,1,1-21.17,0Z" transform="translate(-490.725 -311.159)" fill="#f2f2f2"/>
    <path id="Tracé_202" data-name="Tracé 202" d="M685.5,471.992a.087.087,0,0,1-.087-.087V435.41a.087.087,0,1,1,.174,0V471.9A.087.087,0,0,1,685.5,471.992Z" transform="translate(-506.377 -324.283)" fill="#3f3d56"/>
    <path id="Tracé_203" data-name="Tracé 203" d="M679.258,446.584a.087.087,0,0,1-.062-.026l-4.19-4.19a.087.087,0,1,1,.123-.123l4.19,4.19a.087.087,0,0,1-.061.149Z" transform="translate(-500.131 -328.411)" fill="#3f3d56"/>
    <path id="Tracé_204" data-name="Tracé 204" d="M685.5,460.436a.087.087,0,0,1-.062-.149l7.016-7.016a.087.087,0,1,1,.123.123l-7.016,7.016A.086.086,0,0,1,685.5,460.436Z" transform="translate(-506.377 -335.011)" fill="#3f3d56"/>
    <path id="Tracé_205" data-name="Tracé 205" d="M807.107,358.7c0-5.846,4.739-19.718,10.585-19.718s10.585,13.872,10.585,19.718a10.585,10.585,0,1,1-21.17,0Z" transform="translate(-579.213 -266.618)" fill="#6c63ff"/>
    <path id="Tracé_206" data-name="Tracé 206" d="M833.344,397.576a.087.087,0,0,1-.087-.087V360.995a.087.087,0,1,1,.174,0v36.494a.087.087,0,0,1-.087.087Z" transform="translate(-594.865 -279.743)" fill="#3f3d56"/>
    <path id="Tracé_207" data-name="Tracé 207" d="M827.1,372.168a.087.087,0,0,1-.062-.025l-4.19-4.19a.087.087,0,0,1,.123-.123l4.19,4.19a.087.087,0,0,1-.062.149Z" transform="translate(-588.619 -283.871)" fill="#3f3d56"/>
    <path id="Tracé_208" data-name="Tracé 208" d="M833.344,386.021a.087.087,0,0,1-.062-.149l7.016-7.016a.087.087,0,0,1,.123.123L833.405,386a.087.087,0,0,1-.061.025Z" transform="translate(-594.865 -290.47)" fill="#3f3d56"/>
    <path id="Tracé_209" data-name="Tracé 209" d="M483.392,366.141c0-5.846,4.739-19.719,10.585-19.719s10.585,13.872,10.585,19.719a10.585,10.585,0,0,1-21.17,0Z" transform="translate(-385.457 -271.073)" fill="#46e395"/>
    <path id="Tracé_210" data-name="Tracé 210" d="M509.629,405.018a.087.087,0,0,1-.087-.087V368.436a.087.087,0,1,1,.174,0v36.494a.087.087,0,0,1-.087.087Z" transform="translate(-401.109 -284.197)" fill="#3f3d56"/>
    <path id="Tracé_211" data-name="Tracé 211" d="M503.383,379.61a.087.087,0,0,1-.062-.025l-4.19-4.19a.087.087,0,1,1,.123-.123l4.19,4.19a.087.087,0,0,1-.062.149Z" transform="translate(-394.863 -288.325)" fill="#3f3d56"/>
    <path id="Tracé_212" data-name="Tracé 212" d="M509.629,393.462a.087.087,0,0,1-.062-.149l7.016-7.016a.087.087,0,1,1,.123.123l-7.016,7.016A.087.087,0,0,1,509.629,393.462Z" transform="translate(-401.109 -294.924)" fill="#3f3d56"/>
    <path id="Tracé_213" data-name="Tracé 213" d="M681.335,232.254a30.4,30.4,0,1,1,30.4-30.4A30.4,30.4,0,0,1,681.335,232.254Zm0-60.387a29.99,29.99,0,1,0,29.99,29.99A29.99,29.99,0,0,0,681.335,171.867Z" transform="translate(-485.74 -166.35)" fill="#ccc"/>
    <path id="Tracé_214" data-name="Tracé 214" d="M726.351,199.612a.2.2,0,0,1-.2-.2V171.663a.2.2,0,0,1,.408,0v27.745A.2.2,0,0,1,726.351,199.612Z" transform="translate(-530.756 -166.35)" fill="#ccc"/>
    <path id="Tracé_215" data-name="Tracé 215" d="M760.195,247.076H732.449a.2.2,0,1,1,0-.408h27.745a.2.2,0,1,1,0,.408Z" transform="translate(-534.406 -211.366)" fill="#ccc"/>
    <path id="Tracé_216" data-name="Tracé 216" d="M678.907,247.076H651.174a.2.2,0,0,1,0-.408h27.732a.2.2,0,1,1,0,.408Z" transform="translate(-485.759 -211.366)" fill="#ccc"/>
    <path id="Tracé_217" data-name="Tracé 217" d="M726.351,280.92a.2.2,0,0,1-.2-.2V252.97a.2.2,0,0,1,.408,0v27.745A.2.2,0,0,1,726.351,280.92Z" transform="translate(-530.756 -215.016)" fill="#ccc"/>
    <path id="Tracé_218" data-name="Tracé 218" d="M730.832,213.825a.2.2,0,0,1-.144-.348l19.533-19.533a.2.2,0,1,1,.288.288l-19.533,19.533A.2.2,0,0,1,730.832,213.825Z" transform="translate(-533.437 -179.772)" fill="#ccc"/>
    <path id="Tracé_219" data-name="Tracé 219" d="M692.749,213.825a.2.2,0,0,1-.144-.06l-19.533-19.533a.2.2,0,0,1,.288-.288l19.533,19.533a.2.2,0,0,1-.144.348Z" transform="translate(-498.952 -179.772)" fill="#ccc"/>
    <path id="Tracé_220" data-name="Tracé 220" d="M750.365,270.738a.2.2,0,0,1-.144-.06l-19.533-19.533a.2.2,0,1,1,.288-.288l19.533,19.533a.2.2,0,0,1-.144.348Z" transform="translate(-533.437 -213.837)" fill="#ccc"/>
    <path id="Tracé_221" data-name="Tracé 221" d="M673.217,270.738a.2.2,0,0,1-.144-.348l19.533-19.533a.2.2,0,0,1,.288.288l-19.533,19.533A.2.2,0,0,1,673.217,270.738Z" transform="translate(-498.952 -213.837)" fill="#ccc"/>
    <path id="Tracé_222" data-name="Tracé 222" d="M695.479,236.911A20.911,20.911,0,1,1,716.39,216,20.911,20.911,0,0,1,695.479,236.911Zm0-41.414a20.5,20.5,0,1,0,20.5,20.5A20.5,20.5,0,0,0,695.479,195.5Z" transform="translate(-499.883 -180.493)" fill="#ccc"/>
    <circle id="Ellipse_112" data-name="Ellipse 112" cx="2.448" cy="2.448" r="2.448" transform="translate(193.147 33.058)" fill="#3f3d56"/>
    <path id="Tracé_223" data-name="Tracé 223" d="M460.4,128.368l-2.151.062,10.5-42.372,1.951.6Z" transform="translate(-274.279 -51.509)" fill="#3f3d56"/>
    <path id="Tracé_224" data-name="Tracé 224" d="M495.466,128.368l2.151.062-10.5-42.372-1.951.6Z" transform="translate(-290.393 -51.509)" fill="#3f3d56"/>
    <rect id="Rectangle_314" data-name="Rectangle 314" width="6.732" height="3.672" transform="translate(192.127 11.433)" fill="#ccc"/>
    <rect id="Rectangle_315" data-name="Rectangle 315" width="2.652" height="2.856" transform="translate(192.535 12.249)" fill="#fff"/>
    <rect id="Rectangle_316" data-name="Rectangle 316" width="2.652" height="2.856" transform="translate(195.8 12.249)" fill="#fff"/>
    <path id="Tracé_225" data-name="Tracé 225" d="M720.622,198.969a3.881,3.881,0,0,1-3.876-3.876v-.1a.919.919,0,0,1,.918-.918h5.916a.919.919,0,0,1,.918.918v.1A3.881,3.881,0,0,1,720.622,198.969Z" transform="translate(-525.129 -179.885)" fill="#ccc"/>
    <path id="Tracé_226" data-name="Tracé 226" d="M724.112,184.328h-6.228a.51.51,0,0,1-.456-.738l1.224-2.448a.507.507,0,0,1,.456-.282h3.78a.507.507,0,0,1,.456.282l1.224,2.448a.51.51,0,0,1-.456.738Z" transform="translate(-525.505 -171.977)" fill="#6c63ff"/>
    <rect id="Rectangle_317" data-name="Rectangle 317" width="6.732" height="3.672" transform="translate(210.284 19.594)" fill="#ccc"/>
    <rect id="Rectangle_318" data-name="Rectangle 318" width="2.652" height="2.856" transform="translate(210.692 20.41)" fill="#fff"/>
    <rect id="Rectangle_319" data-name="Rectangle 319" width="2.652" height="2.856" transform="translate(213.957 20.41)" fill="#fff"/>
    <path id="Tracé_227" data-name="Tracé 227" d="M765.85,219.3a3.881,3.881,0,0,1-3.876-3.876v-.1a.919.919,0,0,1,.918-.918h5.916a.919.919,0,0,1,.918.918v.1A3.88,3.88,0,0,1,765.85,219.3Z" transform="translate(-552.199 -192.051)" fill="#ccc"/>
    <path id="Tracé_228" data-name="Tracé 228" d="M764.64,201.695a.3.3,0,0,0-.274.169l-1.224,2.448a.306.306,0,0,0,.274.443h6.228a.306.306,0,0,0,.274-.443l-1.224-2.448a.3.3,0,0,0-.274-.169Z" transform="translate(-552.879 -184.447)" fill="#6c63ff"/>
    <rect id="Rectangle_320" data-name="Rectangle 320" width="6.732" height="3.672" transform="translate(217.425 37.955)" fill="#ccc"/>
    <rect id="Rectangle_321" data-name="Rectangle 321" width="2.652" height="2.856" transform="translate(217.833 38.771)" fill="#fff"/>
    <rect id="Rectangle_322" data-name="Rectangle 322" width="2.652" height="2.856" transform="translate(221.097 38.771)" fill="#fff"/>
    <path id="Tracé_229" data-name="Tracé 229" d="M783.636,265.031a3.881,3.881,0,0,1-3.876-3.876v-.1a.919.919,0,0,1,.918-.918h5.916a.919.919,0,0,1,.918.918v.1A3.881,3.881,0,0,1,783.636,265.031Z" transform="translate(-562.845 -219.426)" fill="#ccc"/>
    <path id="Tracé_230" data-name="Tracé 230" d="M787.126,250.39H780.9a.51.51,0,0,1-.456-.738l1.224-2.448a.507.507,0,0,1,.456-.282h3.78a.507.507,0,0,1,.456.282l1.224,2.448a.51.51,0,0,1-.456.738Z" transform="translate(-563.221 -211.518)" fill="#6c63ff"/>
    <rect id="Rectangle_323" data-name="Rectangle 323" width="6.732" height="3.672" transform="translate(209.876 55.092)" fill="#ccc"/>
    <rect id="Rectangle_324" data-name="Rectangle 324" width="2.652" height="2.856" transform="translate(210.284 55.908)" fill="#fff"/>
    <rect id="Rectangle_325" data-name="Rectangle 325" width="2.652" height="2.856" transform="translate(213.549 55.908)" fill="#fff"/>
    <path id="Tracé_231" data-name="Tracé 231" d="M764.833,307.717a3.881,3.881,0,0,1-3.876-3.876v-.1a.919.919,0,0,1,.918-.918h5.916a.919.919,0,0,1,.918.918v.1A3.881,3.881,0,0,1,764.833,307.717Z" transform="translate(-551.591 -244.975)" fill="#ccc"/>
    <path id="Tracé_232" data-name="Tracé 232" d="M768.323,293.077H762.1a.51.51,0,0,1-.456-.738l1.224-2.448a.507.507,0,0,1,.456-.282h3.78a.507.507,0,0,1,.456.282l1.224,2.448a.51.51,0,0,1-.456.738Z" transform="translate(-551.967 -237.067)" fill="#46e395"/>
    <rect id="Rectangle_326" data-name="Rectangle 326" width="6.732" height="3.672" transform="translate(180.907 23.266) rotate(180)" fill="#ccc"/>
    <rect id="Rectangle_327" data-name="Rectangle 327" width="2.652" height="2.856" transform="translate(180.499 23.266) rotate(180)" fill="#fff"/>
    <rect id="Rectangle_328" data-name="Rectangle 328" width="2.652" height="2.856" transform="translate(177.235 23.266) rotate(180)" fill="#fff"/>
    <path id="Tracé_233" data-name="Tracé 233" d="M675.9,219.3a3.881,3.881,0,0,1-3.876-3.876v-.1a.919.919,0,0,1,.918-.918h5.916a.919.919,0,0,1,.918.918v.1A3.88,3.88,0,0,1,675.9,219.3Z" transform="translate(-498.362 -192.051)" fill="#ccc"/>
    <path id="Tracé_234" data-name="Tracé 234" d="M679.393,204.655h-6.228a.51.51,0,0,1-.456-.738l1.224-2.448a.507.507,0,0,1,.456-.282h3.78a.507.507,0,0,1,.456.282l1.224,2.448a.51.51,0,0,1-.456.738Z" transform="translate(-498.738 -184.143)" fill="#6c63ff"/>
    <rect id="Rectangle_329" data-name="Rectangle 329" width="6.732" height="3.672" transform="translate(173.766 41.627) rotate(180)" fill="#ccc"/>
    <rect id="Rectangle_330" data-name="Rectangle 330" width="2.652" height="2.856" transform="translate(173.358 41.627) rotate(180)" fill="#fff"/>
    <rect id="Rectangle_331" data-name="Rectangle 331" width="2.652" height="2.856" transform="translate(170.094 41.627) rotate(180)" fill="#fff"/>
    <path id="Tracé_235" data-name="Tracé 235" d="M658.117,265.031a3.881,3.881,0,0,1-3.876-3.876v-.1a.919.919,0,0,1,.918-.918h5.916a.919.919,0,0,1,.918.918v.1A3.881,3.881,0,0,1,658.117,265.031Z" transform="translate(-487.717 -219.426)" fill="#ccc"/>
    <path id="Tracé_236" data-name="Tracé 236" d="M661.607,250.39h-6.228a.51.51,0,0,1-.456-.738l1.224-2.448a.507.507,0,0,1,.456-.282h3.78a.507.507,0,0,1,.456.282l1.224,2.448a.51.51,0,0,1-.456.738Z" transform="translate(-488.093 -211.518)" fill="#46e395"/>
    <rect id="Rectangle_332" data-name="Rectangle 332" width="6.732" height="3.672" transform="translate(181.315 58.764) rotate(180)" fill="#ccc"/>
    <rect id="Rectangle_333" data-name="Rectangle 333" width="2.652" height="2.856" transform="translate(180.907 58.764) rotate(180)" fill="#fff"/>
    <rect id="Rectangle_334" data-name="Rectangle 334" width="2.652" height="2.856" transform="translate(177.643 58.764) rotate(180)" fill="#fff"/>
    <path id="Tracé_237" data-name="Tracé 237" d="M676.919,307.717a3.881,3.881,0,0,1-3.876-3.876v-.1a.919.919,0,0,1,.918-.918h5.916a.919.919,0,0,1,.918.918v.1A3.881,3.881,0,0,1,676.919,307.717Z" transform="translate(-498.971 -244.975)" fill="#ccc"/>
    <path id="Tracé_238" data-name="Tracé 238" d="M680.409,293.077h-6.228a.51.51,0,0,1-.456-.738l1.224-2.448a.507.507,0,0,1,.456-.282h3.78a.507.507,0,0,1,.456.282l1.224,2.448a.51.51,0,0,1-.456.738Z" transform="translate(-499.347 -237.067)" fill="#6c63ff"/>
    <rect id="Rectangle_335" data-name="Rectangle 335" width="6.732" height="3.672" transform="translate(192.127 62.844)" fill="#ccc"/>
    <rect id="Rectangle_336" data-name="Rectangle 336" width="2.652" height="2.856" transform="translate(192.535 63.66)" fill="#fff"/>
    <rect id="Rectangle_337" data-name="Rectangle 337" width="2.652" height="2.856" transform="translate(195.8 63.66)" fill="#fff"/>
    <path id="Tracé_239" data-name="Tracé 239" d="M717.968,322.64a.715.715,0,0,0-.714.714v.1a3.672,3.672,0,1,0,7.344,0v-.1a.715.715,0,0,0-.714-.714Z" transform="translate(-525.433 -256.838)" fill="#ccc"/>
    <path id="Tracé_240" data-name="Tracé 240" d="M719.412,309.427a.3.3,0,0,0-.274.169l-1.224,2.448a.306.306,0,0,0,.274.443h6.228a.306.306,0,0,0,.274-.443l-1.224-2.448a.3.3,0,0,0-.274-.169Z" transform="translate(-525.809 -248.93)" fill="#6c63ff"/>
    <path id="Tracé_241" data-name="Tracé 241" d="M474.536,439.344a.23.23,0,1,0,0-.46h-2.187v-.921h2.187a.23.23,0,1,0,0-.46H455.89a.23.23,0,1,0,0,.46h2.187v.921H455.89a.23.23,0,1,0,0,.46h2.187v.921H455.89a.23.23,0,1,0,0,.46h2.187v.921H456.12a.46.46,0,1,0,0,.921h1.863a.343.343,0,0,0-.021.115V445.9a.345.345,0,0,0,.691,0v-3.223a.342.342,0,0,0-.021-.115h13.163a.341.341,0,0,0-.021.115V445.9a.345.345,0,0,0,.691,0v-3.223a.342.342,0,0,0-.021-.115h1.863a.46.46,0,0,0,0-.921h-1.957v-.921h2.187a.23.23,0,1,0,0-.46h-2.187v-.921Zm-16-1.381h13.351v.921H458.537Zm13.351,3.683H458.537v-.921h13.351Zm0-1.381H458.537v-.921h13.351Z" transform="translate(-368.858 -325.588)" fill="#3f3d56"/>
    <path id="Tracé_242" data-name="Tracé 242" d="M653.718,507.972a.23.23,0,1,0,0-.46h-2.187v-.921h2.187a.23.23,0,1,0,0-.46H635.072a.23.23,0,1,0,0,.46h2.187v.921h-2.187a.23.23,0,1,0,0,.46h2.187v.921h-2.187a.23.23,0,1,0,0,.46h2.187v.921H635.3a.46.46,0,1,0,0,.921h1.863a.34.34,0,0,0-.021.115v3.223a.345.345,0,0,0,.691,0V511.31a.346.346,0,0,0-.021-.115h13.164a.34.34,0,0,0-.021.115v3.223a.345.345,0,0,0,.691,0V511.31a.343.343,0,0,0-.021-.115h1.863a.46.46,0,1,0,0-.921h-1.957v-.921h2.187a.23.23,0,1,0,0-.46h-2.187v-.921Zm-16-1.381H651.07v.921H637.719Zm13.351,3.683H637.719v-.921H651.07Zm0-1.381H637.719v-.921H651.07Z" transform="translate(-476.105 -366.664)" fill="#3f3d56"/>
    <path id="Tracé_243" data-name="Tracé 243" d="M798.25,432.73a.23.23,0,1,0,0-.46h-2.187v-.921h2.187a.23.23,0,1,0,0-.46H779.6a.23.23,0,1,0,0,.46h2.187v.921H779.6a.23.23,0,1,0,0,.46h2.187v.921H779.6a.23.23,0,1,0,0,.46h2.187v.921h-1.957a.46.46,0,1,0,0,.921H781.7a.344.344,0,0,0-.021.115v3.223a.345.345,0,0,0,.691,0v-3.223a.345.345,0,0,0-.021-.115h13.164a.343.343,0,0,0-.021.115v3.223a.345.345,0,0,0,.691,0v-3.223a.344.344,0,0,0-.021-.115h1.863a.46.46,0,1,0,0-.921h-1.957v-.921h2.187a.23.23,0,1,0,0-.46h-2.187v-.921Zm-16-1.381H795.6v.921H782.252Zm13.351,3.683H782.252v-.921H795.6Zm0-1.381H782.252v-.921H795.6Z" transform="translate(-562.614 -321.629)" fill="#3f3d56"/>
    <path id="Tracé_244" data-name="Tracé 244" d="M576.821,549.963c0-5.9-4.789-19.912-10.7-19.912s-10.7,14.009-10.7,19.912a10.7,10.7,0,1,0,21.393,0Z" transform="translate(-428.573 -380.981)" fill="#f2f2f2"/>
    <path id="Tracé_245" data-name="Tracé 245" d="M581.89,601.058a.122.122,0,0,1-.122-.122v-24.97a.122.122,0,1,1,.245,0v24.97A.122.122,0,0,1,581.89,601.058Z" transform="translate(-444.339 -408.39)" fill="#ccc"/>
    <path id="Tracé_246" data-name="Tracé 246" d="M572.718,576.827a.122.122,0,0,1-.092-.042l-6.152-7.095a.122.122,0,0,1,.185-.16l6.152,7.094a.122.122,0,0,1-.092.2Z" transform="translate(-435.167 -404.586)" fill="#ccc"/>
    <path id="Tracé_247" data-name="Tracé 247" d="M581.89,592.391a.122.122,0,0,1-.086-.209l3.5-3.5a.122.122,0,0,1,.173.173l-3.5,3.5A.122.122,0,0,1,581.89,592.391Z" transform="translate(-444.339 -416.056)" fill="#ccc"/>
    <path id="Tracé_248" data-name="Tracé 248" d="M322.691,261.4c0-5.9-4.789-19.912-10.7-19.912s-10.7,14.009-10.7,19.912a10.7,10.7,0,1,0,21.393,0Z" transform="translate(-276.466 -208.262)" fill="#3f3d56"/>
    <path id="Tracé_249" data-name="Tracé 249" d="M327.76,312.491a.122.122,0,0,1-.122-.122V287.4a.122.122,0,0,1,.245,0v24.97a.122.122,0,0,1-.122.122Z" transform="translate(-292.232 -235.671)" fill="#ccc"/>
    <path id="Tracé_250" data-name="Tracé 250" d="M318.588,288.259a.122.122,0,0,1-.092-.042l-6.152-7.095a.122.122,0,0,1,.185-.16l6.152,7.095a.122.122,0,0,1-.092.2Z" transform="translate(-283.06 -231.867)" fill="#ccc"/>
    <path id="Tracé_251" data-name="Tracé 251" d="M327.76,303.824a.122.122,0,0,1-.086-.209l3.5-3.5a.122.122,0,1,1,.173.173l-3.5,3.5a.122.122,0,0,1-.086.036Z" transform="translate(-292.232 -243.337)" fill="#ccc"/>
    <path id="Tracé_252" data-name="Tracé 252" d="M299.084,343.022a4.466,4.466,0,0,1,8.931,0" transform="translate(-275.141 -266.365)" fill="#f2f2f2"/>
    <path id="Tracé_253" data-name="Tracé 253" d="M310.028,345.811a.121.121,0,0,1-.121-.121v-2.353a.121.121,0,1,1,.241,0v2.353A.121.121,0,0,1,310.028,345.811Z" transform="translate(-281.619 -269.154)" fill="#ccc"/>
    <path id="Tracé_254" data-name="Tracé 254" d="M307.868,345.453a.12.12,0,0,1-.079-.029l-1.448-1.243A.121.121,0,0,1,306.5,344l1.448,1.243a.121.121,0,0,1-.079.212Z" transform="translate(-279.46 -269.604)" fill="#ccc"/>
    <path id="Tracé_255" data-name="Tracé 255" d="M333.356,343.022a4.466,4.466,0,0,1,8.931,0" transform="translate(-295.654 -266.365)" fill="#f2f2f2"/>
    <path id="Tracé_256" data-name="Tracé 256" d="M344.3,345.811a.121.121,0,0,1-.121-.121v-2.353a.121.121,0,1,1,.241,0v2.353A.121.121,0,0,1,344.3,345.811Z" transform="translate(-302.132 -269.154)" fill="#ccc"/>
    <path id="Tracé_257" data-name="Tracé 257" d="M342.14,345.453a.12.12,0,0,1-.079-.029l-1.448-1.243a.121.121,0,1,1,.157-.183l1.448,1.243a.121.121,0,0,1-.079.212Z" transform="translate(-299.973 -269.604)" fill="#ccc"/>
    <path id="Tracé_258" data-name="Tracé 258" d="M882.462,549.136c0-5.9-4.789-19.912-10.7-19.912s-10.7,14.009-10.7,19.912a10.7,10.7,0,1,0,21.393,0Z" transform="translate(-611.512 -380.486)" fill="#6c63ff"/>
    <path id="Tracé_259" data-name="Tracé 259" d="M887.531,600.231a.122.122,0,0,1-.122-.122v-24.97a.122.122,0,1,1,.245,0v24.97A.122.122,0,0,1,887.531,600.231Z" transform="translate(-627.277 -407.895)" fill="#ccc"/>
    <path id="Tracé_260" data-name="Tracé 260" d="M878.359,576a.122.122,0,0,1-.092-.042l-6.152-7.094a.122.122,0,0,1,.185-.16l6.152,7.094a.122.122,0,0,1-.092.2Z" transform="translate(-618.105 -404.091)" fill="#ccc"/>
    <path id="Tracé_261" data-name="Tracé 261" d="M887.531,591.564a.122.122,0,0,1-.086-.209l3.5-3.5a.122.122,0,0,1,.173.173l-3.5,3.5A.121.121,0,0,1,887.531,591.564Z" transform="translate(-627.277 -415.561)" fill="#ccc"/>
    <path id="Tracé_262" data-name="Tracé 262" d="M492.155,577.69h-2.073a.584.584,0,0,1-.583-.583v-2.721a.584.584,0,0,1,.583-.583h2.073a.584.584,0,0,1,.583.583v2.721A.584.584,0,0,1,492.155,577.69Z" transform="translate(-389.112 -407.169)" fill="#3f3d56"/>
    <path id="Tracé_263" data-name="Tracé 263" d="M522.2,604.674H511.578a1.1,1.1,0,0,1-1.1-1.1v-20.6a1.1,1.1,0,0,1,1.1-1.1H522.2a1.1,1.1,0,0,1,1.1,1.1v20.6A1.1,1.1,0,0,1,522.2,604.674Z" transform="translate(-401.668 -411.998)" fill="#3f3d56"/>
    <path id="Tracé_264" data-name="Tracé 264" d="M494.8,604.674H476.4a1.1,1.1,0,0,1-1.1-1.1v-20.6a1.1,1.1,0,0,1,1.1-1.1h18.4a1.1,1.1,0,0,1,1.1,1.1v20.6A1.1,1.1,0,0,1,494.8,604.674Z" transform="translate(-380.613 -411.998)" fill="#6c63ff"/>
    <path id="Tracé_265" data-name="Tracé 265" d="M487.314,577.69h-2.073a.584.584,0,0,1-.583-.583v-2.721a.584.584,0,0,1,.583-.583h2.073a.584.584,0,0,1,.583.583v2.721a.584.584,0,0,1-.583.583Z" transform="translate(-386.215 -407.169)" fill="#6c63ff"/>
    <path id="Tracé_266" data-name="Tracé 266" d="M493.9,600.638h-2.462a.324.324,0,0,1-.324-.324v-3.757a.324.324,0,0,1,.324-.324H493.9a.324.324,0,0,1,.324.324v3.757a.324.324,0,0,1-.324.324Z" transform="translate(-390.078 -420.594)" fill="#fff"/>
    <path id="Tracé_267" data-name="Tracé 267" d="M505.839,600.638h-2.462a.324.324,0,0,1-.324-.324v-3.757a.324.324,0,0,1,.324-.324h2.462a.324.324,0,0,1,.324.324v3.757A.324.324,0,0,1,505.839,600.638Z" transform="translate(-397.225 -420.594)" fill="#fff"/>
    <path id="Tracé_268" data-name="Tracé 268" d="M493.9,617.742h-2.462a.324.324,0,0,1-.324-.324v-3.757a.324.324,0,0,1,.324-.324H493.9a.324.324,0,0,1,.324.324v3.757A.324.324,0,0,1,493.9,617.742Z" transform="translate(-390.078 -430.832)" fill="#fff"/>
    <path id="Tracé_269" data-name="Tracé 269" d="M505.839,617.742h-2.462a.324.324,0,0,1-.324-.324v-3.757a.324.324,0,0,1,.324-.324h2.462a.324.324,0,0,1,.324.324v3.757A.324.324,0,0,1,505.839,617.742Z" transform="translate(-397.225 -430.832)" fill="#fff"/>
    <path id="Tracé_270" data-name="Tracé 270" d="M307.761,412.158h-2.445a.688.688,0,0,1-.688-.688v-5.654a.688.688,0,0,1,.688-.688h2.445a.688.688,0,0,1,.688.688v5.654A.688.688,0,0,1,307.761,412.158Z" transform="translate(-278.46 -306.21)" fill="#3f3d56"/>
    <path id="Tracé_271" data-name="Tracé 271" d="M315.793,474.675H303.263a1.3,1.3,0,0,1-1.3-1.3V422.795a1.3,1.3,0,0,1,1.3-1.3h12.531a1.3,1.3,0,0,1,1.3,1.3v50.581A1.3,1.3,0,0,1,315.793,474.675Z" transform="translate(-276.865 -316.007)" fill="#3f3d56"/>
    <path id="Tracé_272" data-name="Tracé 272" d="M297.142,474.675H284.611a1.3,1.3,0,0,1-1.3-1.3V422.795a1.3,1.3,0,0,1,1.3-1.3h12.531a1.3,1.3,0,0,1,1.3,1.3v50.581A1.3,1.3,0,0,1,297.142,474.675Z" transform="translate(-265.701 -316.007)" fill="#6c63ff"/>
    <path id="Tracé_273" data-name="Tracé 273" d="M302.051,412.158h-2.445a.688.688,0,0,1-.688-.688v-5.654a.688.688,0,0,1,.688-.688h2.445a.688.688,0,0,1,.688.688v5.654A.688.688,0,0,1,302.051,412.158Z" transform="translate(-275.042 -306.21)" fill="#6c63ff"/>
    <path id="Tracé_274" data-name="Tracé 274" d="M293.83,442.3h-2.9a.382.382,0,0,1-.382-.382v-4.432a.382.382,0,0,1,.382-.382h2.9a.383.383,0,0,1,.382.382v4.432A.382.382,0,0,1,293.83,442.3Z" transform="translate(-270.03 -325.348)" fill="#fff"/>
    <path id="Tracé_275" data-name="Tracé 275" d="M307.914,442.3h-2.9a.382.382,0,0,1-.382-.382v-4.432a.382.382,0,0,1,.382-.382h2.9a.382.382,0,0,1,.382.382v4.432A.382.382,0,0,1,307.914,442.3Z" transform="translate(-278.46 -325.348)" fill="#fff"/>
    <path id="Tracé_276" data-name="Tracé 276" d="M293.83,462.472h-2.9a.383.383,0,0,1-.382-.382v-4.432a.382.382,0,0,1,.382-.382h2.9a.383.383,0,0,1,.382.382v4.432a.383.383,0,0,1-.382.382Z" transform="translate(-270.03 -337.423)" fill="#fff"/>
    <path id="Tracé_277" data-name="Tracé 277" d="M307.914,462.472h-2.9a.382.382,0,0,1-.382-.382v-4.432a.382.382,0,0,1,.382-.382h2.9a.382.382,0,0,1,.382.382v4.432A.382.382,0,0,1,307.914,462.472Z" transform="translate(-278.46 -337.423)" fill="#fff"/>
    <path id="Tracé_278" data-name="Tracé 278" d="M293.83,482.646h-2.9a.383.383,0,0,1-.382-.382v-4.432a.382.382,0,0,1,.382-.382h2.9a.382.382,0,0,1,.382.382v4.432A.382.382,0,0,1,293.83,482.646Z" transform="translate(-270.03 -349.498)" fill="#fff"/>
    <path id="Tracé_279" data-name="Tracé 279" d="M307.914,482.646h-2.9a.382.382,0,0,1-.382-.382v-4.432a.382.382,0,0,1,.382-.382h2.9a.382.382,0,0,1,.382.382v4.432A.383.383,0,0,1,307.914,482.646Z" transform="translate(-278.46 -349.498)" fill="#fff"/>
    <path id="Tracé_280" data-name="Tracé 280" d="M293.83,502.82h-2.9a.382.382,0,0,1-.382-.382v-4.432a.383.383,0,0,1,.382-.382h2.9a.382.382,0,0,1,.382.382v4.432a.382.382,0,0,1-.382.382Z" transform="translate(-270.03 -361.573)" fill="#fff"/>
    <path id="Tracé_281" data-name="Tracé 281" d="M307.914,502.82h-2.9a.382.382,0,0,1-.382-.382v-4.432a.383.383,0,0,1,.382-.382h2.9a.383.383,0,0,1,.382.382v4.432a.383.383,0,0,1-.382.382Z" transform="translate(-278.46 -361.573)" fill="#fff"/>
    <path id="Tracé_282" data-name="Tracé 282" d="M293.83,522.994h-2.9a.382.382,0,0,1-.382-.382V518.18a.382.382,0,0,1,.382-.382h2.9a.383.383,0,0,1,.382.382v4.431A.382.382,0,0,1,293.83,522.994Z" transform="translate(-270.03 -373.648)" fill="#fff"/>
    <path id="Tracé_283" data-name="Tracé 283" d="M307.914,522.994h-2.9a.382.382,0,0,1-.382-.382V518.18a.383.383,0,0,1,.382-.382h2.9a.383.383,0,0,1,.382.382v4.432a.383.383,0,0,1-.382.382Z" transform="translate(-278.46 -373.648)" fill="#fff"/>
    <path id="Tracé_284" data-name="Tracé 284" d="M792.874,577.864H790.8a.584.584,0,0,1-.583-.583V574.56a.584.584,0,0,1,.583-.583h2.073a.584.584,0,0,1,.583.583v2.721a.584.584,0,0,1-.583.583Z" transform="translate(-569.104 -407.273)" fill="#3f3d56"/>
    <path id="Tracé_285" data-name="Tracé 285" d="M822.92,604.848H812.3a1.1,1.1,0,0,1-1.1-1.1v-20.6a1.1,1.1,0,0,1,1.1-1.1H822.92a1.1,1.1,0,0,1,1.1,1.1v20.6A1.1,1.1,0,0,1,822.92,604.848Z" transform="translate(-581.66 -412.102)" fill="#3f3d56"/>
    <path id="Tracé_286" data-name="Tracé 286" d="M795.517,604.848h-18.4a1.1,1.1,0,0,1-1.1-1.1v-20.6a1.1,1.1,0,0,1,1.1-1.1h18.4a1.1,1.1,0,0,1,1.1,1.1v20.6a1.1,1.1,0,0,1-1.1,1.1Z" transform="translate(-560.605 -412.102)" fill="#6c63ff"/>
    <path id="Tracé_287" data-name="Tracé 287" d="M788.033,577.864H785.96a.584.584,0,0,1-.583-.583V574.56a.584.584,0,0,1,.583-.583h2.073a.584.584,0,0,1,.583.583v2.721A.584.584,0,0,1,788.033,577.864Z" transform="translate(-566.207 -407.273)" fill="#6c63ff"/>
    <path id="Tracé_288" data-name="Tracé 288" d="M794.617,600.811h-2.462a.324.324,0,0,1-.324-.324V596.73a.324.324,0,0,1,.324-.324h2.462a.324.324,0,0,1,.324.324v3.757A.324.324,0,0,1,794.617,600.811Z" transform="translate(-570.07 -420.698)" fill="#fff"/>
    <path id="Tracé_289" data-name="Tracé 289" d="M806.558,600.811H804.1a.324.324,0,0,1-.324-.324V596.73a.324.324,0,0,1,.324-.324h2.462a.324.324,0,0,1,.324.324v3.757A.324.324,0,0,1,806.558,600.811Z" transform="translate(-577.217 -420.698)" fill="#fff"/>
    <path id="Tracé_290" data-name="Tracé 290" d="M794.617,617.916h-2.462a.324.324,0,0,1-.324-.324v-3.757a.324.324,0,0,1,.324-.324h2.462a.324.324,0,0,1,.324.324v3.757a.324.324,0,0,1-.324.324Z" transform="translate(-570.07 -430.936)" fill="#fff"/>
    <path id="Tracé_291" data-name="Tracé 291" d="M806.558,617.916H804.1a.324.324,0,0,1-.324-.324v-3.757a.324.324,0,0,1,.324-.324h2.462a.324.324,0,0,1,.324.324v3.757a.324.324,0,0,1-.324.324Z" transform="translate(-577.217 -430.936)" fill="#fff"/>
  </g>
</svg>
