<?xml version="1.0" encoding="utf-8"?>
<!-- Generator: Adobe Illustrator 25.2.0, SVG Export Plug-In . SVG Version: 6.00 Build 0)  -->
<svg version="1.1" id="Calque_1" xmlns="http://www.w3.org/2000/svg" xmlns:xlink="http://www.w3.org/1999/xlink" x="0px" y="0px"
	 viewBox="0 0 309 85" style="enable-background:new 0 0 309 85;" xml:space="preserve">
<style type="text/css">
	.st0{fill:none;}
	.st1{fill:#00E7FF;}
	.st2{fill:#FFA500;}
	.st3{fill:#0404A5;}
	.st4{fill:#A900F1;}
	.st5{enable-background:new    ;}
	.st6{fill:#0E082E;}
</style>
<path class="st0" d="M30.6,29.9c-5.1,0-9.3,4.2-9.3,9.3s4.2,9.3,9.3,9.3c3.2,0,6-1.6,7.7-4.1V34C36.7,31.6,33.8,29.9,30.6,29.9z"/>
<path class="st1" d="M30.6,48.5c-5.1,0-9.3-4.2-9.3-9.3s4.2-9.3,9.3-9.3c3.2,0,6,1.6,7.7,4.1V23.2c-2.3-1.1-5-1.8-7.7-1.8
	c-0.1,0-0.2,0-0.3,0c-9.7,0.1-17.5,8-17.5,17.7c0,9.8,7.9,17.7,17.7,17.7c2.8,0,5.4-0.6,7.7-1.8V44.4C36.7,46.8,33.8,48.5,30.6,48.5
	z"/>
<path class="st2" d="M38.3,19v4.3c3,1.5,5.6,3.8,7.4,6.6c1.7,2.7,2.6,5.9,2.6,9.3c0,2.9-0.7,5.7-2,8.1c-1.5,3-3.8,5.4-6.7,7.1
	c-0.5,0.3-0.9,0.5-1.4,0.7v2H50V19H38.3z"/>
<path class="st3" d="M46.4,47.3c1.2-2.4,2-5.2,2-8.1c0-3.4-1-6.6-2.6-9.3c-1.8-2.9-4.3-5.2-7.4-6.6V34c1,1.5,1.6,3.2,1.6,5.2
	s-0.6,3.7-1.6,5.2v10.8c0.5-0.2,0.9-0.5,1.4-0.7C42.6,52.7,44.9,50.3,46.4,47.3z"/>
<path class="st4" d="M40.1,72.5H17l0,0c0-5.1,4.1-9.2,9.2-9.2h23.1l0,0C49.3,68.4,45.2,72.5,40.1,72.5z"/>
<g class="st5">
	<path class="st6" d="M91.7,30.4h5.8v24.5h-5.7l-0.3-3.6c-1.4,2.9-5.2,4.3-7.9,4.3c-7.2,0-12.6-4.4-12.6-13
		c0-8.4,5.6-12.9,12.8-12.8c3.3,0,6.4,1.5,7.8,4L91.7,30.4z M77,42.6c0,4.7,3.2,7.4,7.2,7.4c9.5,0,9.5-14.8,0-14.8
		C80.2,35.2,77,37.9,77,42.6z"/>
	<path class="st6" d="M121.8,27.9l4.5,3.4l-2.7,3.5c1.9,2.1,2.6,4.6,2.6,7.2c0,3-1.1,7.3-5.2,9.1c4.1,2,5.1,5,5.1,8.1
		c0,6.8-5.2,10.9-12.3,10.9c-7.1,0-12.4-4.3-12.4-10.9h6c0,3.2,2.9,5.3,6.4,5.3s6.2-1.9,6.2-5.3c0-3.4-3.2-4.9-6.2-4.9
		c-7.6,0-12.4-4.7-12.4-12.3c0-7.6,5.6-12.4,12.4-12.4c1.9,0,3.9,0.2,5.6,1.4L121.8,27.9z M107.4,42c0,4.3,2.9,6.8,6.4,6.8
		c3.5,0,6.4-2.6,6.4-6.8c0-4.2-2.9-6.9-6.4-6.9C110.2,35.1,107.4,37.7,107.4,42z"/>
	<path class="st6" d="M135.2,44.8c0.4,3,3,5.2,7.3,5.2c2.2,0,5.2-0.8,6.6-2.3l3.9,3.8c-2.6,2.7-6.8,4-10.5,4
		c-8.4,0-13.5-5.2-13.5-13.1c0-7.4,5.1-12.8,13-12.8c8.2,0,13.3,5.1,12.4,15.1H135.2z M148.5,39.8c-0.4-3.2-2.9-4.8-6.4-4.8
		c-3.3,0-6,1.6-6.9,4.8H148.5z"/>
	<path class="st6" d="M177,54.9V42c0-3.7-2-6.6-5.9-6.6c-3.7,0-6.3,3.1-6.3,6.9v12.5h-6V30.3h5.4l0.4,3.3c2.5-2.4,5-3.7,8-3.7
		c5.8,0,10.4,4.3,10.4,12v12.9H177z"/>
	<path class="st6" d="M213.7,20.2v34.7H208l-0.4-3.4c-1.9,2.9-4.9,3.9-7.9,3.9c-7.2,0-12.6-4.8-12.6-12.8c0-8.4,5.3-12.8,12.5-12.8
		c2.6,0,6.6,1.4,8,3.9V20.2H213.7z M193.2,42.6c0,4.3,3.1,7.2,7,7.2c3.8,0,7.1-2.8,7.1-7.2c0-4.3-3.3-7.2-7.1-7.2
		C196.3,35.4,193.2,38.2,193.2,42.6z"/>
	<path class="st6" d="M225.6,23.5c0,4.7-7.1,4.7-7.1,0S225.6,18.8,225.6,23.5z M219,30.3v24.6h6.1V30.3H219z"/>
	<path class="st6" d="M249.7,27.9l4.5,3.4l-2.7,3.5c1.9,2.1,2.6,4.6,2.6,7.2c0,3-1.1,7.3-5.2,9.1c4.1,2,5.1,5,5.1,8.1
		c0,6.8-5.2,10.9-12.3,10.9s-12.4-4.3-12.4-10.9h6c0,3.2,2.9,5.3,6.4,5.3s6.2-1.9,6.2-5.3c0-3.4-3.2-4.9-6.2-4.9
		c-7.6,0-12.4-4.7-12.4-12.3c0-7.6,5.6-12.4,12.4-12.4c1.9,0,3.9,0.2,5.6,1.4L249.7,27.9z M235.2,42c0,4.3,2.9,6.8,6.4,6.8
		c3.5,0,6.4-2.6,6.4-6.8c0-4.2-2.9-6.9-6.4-6.9C238.1,35.1,235.2,37.7,235.2,42z"/>
	<path class="st6" d="M282.2,42.6c0,7.1-4.8,12.8-12.8,12.8s-12.7-5.7-12.7-12.8c0-7,4.9-12.8,12.7-12.8S282.2,35.6,282.2,42.6z
		 M262.8,42.6c0,3.7,2.2,7.2,6.7,7.2s6.7-3.5,6.7-7.2c0-3.7-2.6-7.2-6.7-7.2C265.1,35.4,262.8,39,262.8,42.6z"/>
</g>
<circle class="st2" cx="292" cy="50.3" r="3"/>
</svg>
