<svg id="Calque_1" data-name="Calque 1" xmlns="http://www.w3.org/2000/svg" viewBox="0 0 623.85 281.99"><rect width="623.85" height="281.99" style="fill:#0404a5"/><path d="M197.51,129a8.63,8.63,0,1,0,7.17,13.42v-9.58A8.63,8.63,0,0,0,197.51,129Z" transform="translate(-0.11 0.85)" style="fill:none"/><path d="M197.51,146.29a8.63,8.63,0,1,1,7.17-13.41v-10a16.41,16.41,0,0,0-7.17-1.64h-.24a16.47,16.47,0,1,0,7.41,31.3v-10A8.62,8.62,0,0,1,197.51,146.29Z" transform="translate(-0.11 0.85)" style="fill:#00e7ff"/><path d="M204.68,118.86v4a16.62,16.62,0,0,1,6.85,6.18A16.46,16.46,0,0,1,206,151.8c-.42.26-.86.48-1.3.7v1.89h10.88V118.86Z" transform="translate(-0.11 0.85)" style="fill:orange"/><path d="M212.17,145.2a16.55,16.55,0,0,0-.64-16.19,16.62,16.62,0,0,0-6.85-6.18v10a8.64,8.64,0,0,1,0,9.58v10c.44-.22.88-.44,1.3-.7A16.53,16.53,0,0,0,212.17,145.2Z" transform="translate(-0.11 0.85)" style="fill:#0404a5"/><path d="M193.24,160.9h21.49a0,0,0,0,1,0,0v0a8.52,8.52,0,0,1-8.52,8.52H184.72a0,0,0,0,1,0,0v0A8.52,8.52,0,0,1,193.24,160.9Z" style="fill:#a900f1"/><path d="M254.22,129.47h5.4v22.74h-5.3l-.28-3.32c-1.29,2.67-4.84,4-7.38,4-6.73,0-11.72-4.1-11.72-12.08s5.22-11.95,11.86-11.9c3,0,5.95,1.43,7.24,3.69Zm-13.65,11.35a6.52,6.52,0,0,0,6.74,6.92c8.85,0,8.85-13.8,0-13.8A6.48,6.48,0,0,0,240.57,140.82Z" transform="translate(-0.11 0.85)" style="fill:#fff"/><path d="M282.22,127.16l4.16,3.14-2.54,3.23a9.69,9.69,0,0,1,2.4,6.73c0,2.82-1.06,6.78-4.8,8.49a7.66,7.66,0,0,1,4.71,7.52c0,6.27-4.8,10.15-11.4,10.15s-11.53-4-11.53-10.15h5.58c0,2.95,2.72,4.89,5.95,4.89s5.77-1.75,5.77-4.89-2.95-4.57-5.77-4.57c-7.1,0-11.53-4.33-11.53-11.44s5.17-11.53,11.53-11.53A9,9,0,0,1,280,130Zm-13.42,13.1c0,4,2.68,6.32,5.95,6.32s5.91-2.4,5.91-6.32-2.68-6.41-5.91-6.41S268.8,136.3,268.8,140.26Z" transform="translate(-0.11 0.85)" style="fill:#fff"/><path d="M294.63,142.85c.37,2.81,2.82,4.84,6.78,4.84,2.08,0,4.8-.78,6.09-2.12l3.6,3.55c-2.4,2.49-6.32,3.69-9.78,3.69-7.84,0-12.5-4.84-12.5-12.13,0-6.92,4.71-11.9,12.09-11.9,7.61,0,12.36,4.7,11.48,14.07ZM307,138.19c-.37-3-2.68-4.43-5.91-4.43-3,0-5.53,1.47-6.36,4.43Z" transform="translate(-0.11 0.85)" style="fill:#fff"/><path d="M333.47,152.21v-11.9c0-3.46-1.89-6.09-5.49-6.09s-5.81,2.91-5.81,6.37v11.62h-5.58V129.42h5l.37,3.09c2.3-2.26,4.61-3.41,7.47-3.41,5.35,0,9.64,4,9.64,11.16v12Z" transform="translate(-0.11 0.85)" style="fill:#fff"/><path d="M367.56,120v32.24H362.3l-.37-3.14a8.27,8.27,0,0,1-7.33,3.65c-6.69,0-11.72-4.43-11.72-11.9,0-7.85,4.94-11.9,11.58-11.9,2.4,0,6.14,1.29,7.47,3.64V120Zm-19.05,20.85a6.53,6.53,0,1,0,13.06,0,6.5,6.5,0,0,0-6.6-6.65A6.28,6.28,0,0,0,348.51,140.82Z" transform="translate(-0.11 0.85)" style="fill:#fff"/><path d="M378.59,123.06c0,4.38-6.64,4.38-6.64,0S378.59,118.67,378.59,123.06Zm-6.14,6.32v22.83h5.63V129.38Z" transform="translate(-0.11 0.85)" style="fill:#fff"/><path d="M401,127.16l4.16,3.14-2.54,3.23a9.69,9.69,0,0,1,2.4,6.73c0,2.82-1.06,6.78-4.8,8.49a7.66,7.66,0,0,1,4.71,7.52c0,6.27-4.8,10.15-11.4,10.15S382,162.4,382,156.27h5.58c0,2.95,2.72,4.89,5.95,4.89s5.77-1.75,5.77-4.89-2.95-4.57-5.77-4.57c-7.1,0-11.53-4.33-11.53-11.44s5.17-11.53,11.53-11.53a9.09,9.09,0,0,1,5.22,1.29Zm-13.42,13.1c0,4,2.68,6.32,5.95,6.32s5.91-2.4,5.91-6.32-2.68-6.41-5.91-6.41S387.58,136.3,387.58,140.26Z" transform="translate(-0.11 0.85)" style="fill:#fff"/><path d="M431.22,140.86c0,6.55-4.47,11.86-11.86,11.86s-11.8-5.31-11.8-11.86S412.08,129,419.32,129A11.49,11.49,0,0,1,431.22,140.86Zm-18,0c0,3.46,2.08,6.69,6.18,6.69s6.19-3.23,6.19-6.69-2.4-6.73-6.19-6.73C415.31,134.13,413.18,137.45,413.18,140.86Z" transform="translate(-0.11 0.85)" style="fill:#fff"/><circle cx="440.17" cy="148.81" r="2.75" style="fill:orange"/><rect x="225.64" y="272.02" width="43.05" height="8.73" style="fill:orange"/><rect x="268.58" y="272.02" width="43.05" height="8.73" style="fill:#a900f1"/><rect x="311.86" y="272.02" width="43.05" height="8.73" style="fill:#1000f4"/><rect x="355.15" y="272.02" width="43.05" height="8.73" style="fill:#00e7ff"/><rect x="225.64" y="0.96" width="43.05" height="8.73" style="fill:orange"/><rect x="268.58" y="0.96" width="43.05" height="8.73" style="fill:#a900f1"/><rect x="311.86" y="0.96" width="43.05" height="8.73" style="fill:#1000f4"/><rect x="355.15" y="0.96" width="43.05" height="8.73" style="fill:#00e7ff"/></svg>