<svg id="Groupe_213" data-name="Groupe 213" xmlns="http://www.w3.org/2000/svg" width="236.514" height="175.716" viewBox="0 0 236.514 175.716">
  <path id="Tracé_323" data-name="Tracé 323" d="M409.955,179.1v26.709h-.7v-.285H174.144v.285h-.7V179.1a11.609,11.609,0,0,1,11.6-11.6H398.358a11.609,11.609,0,0,1,11.6,11.6Z" transform="translate(-173.441 -167.5)" fill="#6c63ff"/>
  <path id="Tracé_324" data-name="Tracé 324" d="M398.358,167.5H185.039a11.609,11.609,0,0,0-11.6,11.6V331.619a11.609,11.609,0,0,0,11.6,11.6H398.358a11.609,11.609,0,0,0,11.6-11.6V179.1A11.609,11.609,0,0,0,398.358,167.5Zm10.894,164.119a10.908,10.908,0,0,1-10.894,10.894H185.039a10.908,10.908,0,0,1-10.894-10.894V179.1A10.908,10.908,0,0,1,185.039,168.2H398.358A10.908,10.908,0,0,1,409.252,179.1Z" transform="translate(-173.441 -167.5)" fill="#3f3d56"/>
  <circle id="Ellipse_119" data-name="Ellipse 119" cx="7.029" cy="7.029" r="7.029" transform="translate(40.766 12.124)" fill="#fff"/>
  <circle id="Ellipse_120" data-name="Ellipse 120" cx="7.029" cy="7.029" r="7.029" transform="translate(181.69 12.124)" fill="#fff"/>
  <path id="Tracé_325" data-name="Tracé 325" d="M277.732,383.871H235.919a6.689,6.689,0,0,1-6.681-6.681V357.428a6.689,6.689,0,0,1,6.681-6.681h41.812a6.689,6.689,0,0,1,6.681,6.681V377.19A6.689,6.689,0,0,1,277.732,383.871Z" transform="translate(-209.629 -286.348)" fill="#6c63ff"/>
  <path id="Tracé_326" data-name="Tracé 326" d="M480.13,383.871H438.318a6.689,6.689,0,0,1-6.681-6.681V357.428a6.689,6.689,0,0,1,6.681-6.681H480.13a6.689,6.689,0,0,1,6.681,6.681V377.19a6.689,6.689,0,0,1-6.681,6.681Z" transform="translate(-340.899 -286.348)" fill="#6c63ff"/>
  <path id="Tracé_327" data-name="Tracé 327" d="M479.756,528.415H437.944a6.891,6.891,0,0,1-6.884-6.884V501.769a6.891,6.891,0,0,1,6.884-6.884h41.812a6.891,6.891,0,0,1,6.884,6.884v19.762A6.892,6.892,0,0,1,479.756,528.415Z" transform="translate(-340.525 -379.832)" fill="#f2f2f2"/>
  <path id="Tracé_328" data-name="Tracé 328" d="M276.968,528.415H235.156a6.891,6.891,0,0,1-6.884-6.884V501.769a6.891,6.891,0,0,1,6.884-6.884h41.812a6.891,6.891,0,0,1,6.884,6.884v19.762a6.891,6.891,0,0,1-6.884,6.884Z" transform="translate(-209.003 -379.832)" fill="#f2f2f2"/>
  <path id="Tracé_329" data-name="Tracé 329" d="M682.155,528.415H640.343a6.891,6.891,0,0,1-6.884-6.884V501.769a6.891,6.891,0,0,1,6.884-6.884h41.812a6.891,6.891,0,0,1,6.884,6.884v19.762A6.891,6.891,0,0,1,682.155,528.415Z" transform="translate(-471.794 -379.832)" fill="#f2f2f2"/>
  <path id="Tracé_330" data-name="Tracé 330" d="M682.155,383.236H640.343a6.891,6.891,0,0,1-6.884-6.884V356.59a6.891,6.891,0,0,1,6.884-6.884h41.812a6.891,6.891,0,0,1,6.884,6.884v19.762A6.891,6.891,0,0,1,682.155,383.236Z" transform="translate(-471.794 -285.674)" fill="#f2f2f2"/>
  <circle id="Ellipse_121" data-name="Ellipse 121" cx="11.338" cy="11.338" r="11.338" transform="translate(35.858 69.623)" fill="#fff"/>
  <path id="Tracé_331" data-name="Tracé 331" d="M297.437,394.268a1.175,1.175,0,0,1-.707-.235l-.013-.009-2.664-2.04a1.184,1.184,0,0,1,1.44-1.879l1.726,1.323,4.078-5.319a1.184,1.184,0,0,1,1.66-.219l-.025.034.026-.034a1.185,1.185,0,0,1,.219,1.66l-4.8,6.256A1.184,1.184,0,0,1,297.437,394.268Z" transform="translate(-251.365 -308.982)" fill="#46e395"/>
  <circle id="Ellipse_122" data-name="Ellipse 122" cx="11.338" cy="11.338" r="11.338" transform="translate(107.19 69.46)" fill="#fff"/>
  <path id="Tracé_332" data-name="Tracé 332" d="M500.412,393.8a1.176,1.176,0,0,1-.708-.235l-.013-.009-2.665-2.04a1.184,1.184,0,0,1,1.44-1.879l1.726,1.323,4.078-5.319a1.184,1.184,0,0,1,1.66-.219l-.025.034.026-.034a1.185,1.185,0,0,1,.219,1.66l-4.8,6.256A1.184,1.184,0,0,1,500.412,393.8Z" transform="translate(-383.008 -308.681)" fill="#46e395"/>
</svg>
