<svg xmlns="http://www.w3.org/2000/svg" xmlns:xlink="http://www.w3.org/1999/xlink" width="392.122" height="251.604" viewBox="0 0 392.122 251.604">
  <defs>
    <filter id="Tracé_617" x="0" y="7.404" width="392.122" height="244.2" filterUnits="userSpaceOnUse">
      <feOffset dy="10" input="SourceAlpha"/>
      <feGaussianBlur stdDeviation="5" result="blur"/>
      <feFlood flood-opacity="0.078"/>
      <feComposite operator="in" in2="blur"/>
      <feComposite in="SourceGraphic"/>
    </filter>
    <linearGradient id="linear-gradient" x1="0.5" y1="1" x2="0.5" gradientUnits="objectBoundingBox">
      <stop offset="0" stop-color="gray" stop-opacity="0.251"/>
      <stop offset="0.54" stop-color="gray" stop-opacity="0.122"/>
      <stop offset="1" stop-color="gray" stop-opacity="0.102"/>
    </linearGradient>
    <linearGradient id="linear-gradient-3" x1="0.5" y1="1" x2="0.5" y2="0" xlink:href="#linear-gradient"/>
  </defs>
  <g id="Groupe_239" data-name="Groupe 239" transform="translate(-64.27 -48.88)">
    <path id="Tracé_580" data-name="Tracé 580" d="M977.241,689.651s-4.551-3-9.06-.866c0,0,1.388,2.677,7.1,2.422Z" transform="translate(-572.294 -427.083)" fill="#6c63ff"/>
    <path id="Tracé_581" data-name="Tracé 581" d="M989.036,692.87s1.385,5.273-2.085,8.86c0,0-2.088-2.177,0-7.5Z" transform="translate(-583.531 -430.138)" fill="#6c63ff"/>
    <path id="Tracé_582" data-name="Tracé 582" d="M991.7,673.585s-.337-4.488-10.46-3c0,0-.048,2.9,3.506,4.266S989.926,675.066,991.7,673.585Z" transform="translate(-580.519 -415.915)" fill="#6c63ff"/>
    <path id="Tracé_583" data-name="Tracé 583" d="M1006.128,679.11s4.284,1.377.467,10.875c0,0-2.825-.633-3.332-4.41S1004.273,680.487,1006.128,679.11Z" transform="translate(-594.324 -421.473)" fill="#6c63ff"/>
    <path id="Tracé_584" data-name="Tracé 584" d="M1010.015,650.577s.578-7.379-9.771-6.62c0,0-.741,6.665,7.942,8.394Z" transform="translate(-592.476 -399.302)" fill="#6c63ff"/>
    <path id="Tracé_585" data-name="Tracé 585" d="M1025.123,628.66s-1.422-8.361-11.763-5.869c0,0-.041,7.231,10.071,7.864Z" transform="translate(-600.746 -385.715)" fill="#6c63ff"/>
    <path id="Tracé_586" data-name="Tracé 586" d="M1037.152,605.69s-2.373-8.146-12.622-5.706c0,0,2.436,7.324,11.941,7.213Z" transform="translate(-607.78 -371.358)" fill="#6c63ff"/>
    <path id="Tracé_587" data-name="Tracé 587" d="M1050.659,582.581s-2.322-8.453-12.219-5.924c0,0,3.3,8.031,11.567,7.357Z" transform="translate(-616.539 -356.658)" fill="#6c63ff"/>
    <path id="Tracé_588" data-name="Tracé 588" d="M1061,557.633s-1.785-10.323-11-8.05c0,0,2.681,9.4,10.33,9.553Z" transform="translate(-623.819 -339.7)" fill="#6c63ff"/>
    <path id="Tracé_589" data-name="Tracé 589" d="M1067.928,532.283s-2.14-10.423-11.478-7.405c0,0,3.662,9.845,10.819,8.827Z" transform="translate(-627.881 -324.003)" fill="#6c63ff"/>
    <path id="Tracé_598" data-name="Tracé 598" d="M1024.567,661.75s7.339-.963,7.116,9.412c0,0-6.631,1.077-8.794-7.5Z" transform="translate(-606.747 -410.526)" fill="#6c63ff"/>
    <path id="Tracé_599" data-name="Tracé 599" d="M1043.182,638.68s8.483-.03,7.776,10.59c0,0-7.117,1.27-9.468-8.586Z" transform="translate(-618.46 -396.013)" fill="#6c63ff"/>
    <path id="Tracé_616" data-name="Tracé 616" d="M472.032,115.31H116.249a3.169,3.169,0,0,0-3.169,3.169v9.234H475.2v-9.234a3.169,3.169,0,0,0-3.169-3.169Z" transform="translate(-33.81 -66.43)" fill="#040ea5"/>
    <g transform="matrix(1, 0, 0, 1, 64.27, 48.88)" filter="url(#Tracé_617)">
      <path id="Tracé_617-2" data-name="Tracé 617" d="M113.08,148.81V356.619a6.391,6.391,0,0,0,6.391,6.391h349.34a6.391,6.391,0,0,0,6.391-6.391V148.81Z" transform="translate(-98.08 -136.41)" fill="#fff"/>
    </g>
    <circle id="Ellipse_190" data-name="Ellipse 190" cx="1.481" cy="1.481" r="1.481" transform="translate(83.528 53.505)" fill="#ff4646" opacity="0.8"/>
    <path id="Tracé_618" data-name="Tracé 618" d="M1.481,0A1.481,1.481,0,1,1,0,1.481,1.481,1.481,0,0,1,1.481,0Z" transform="translate(87.601 53.505)" fill="#fea500" opacity="0.8"/>
    <circle id="Ellipse_192" data-name="Ellipse 192" cx="1.481" cy="1.481" r="1.481" transform="translate(91.674 53.505)" fill="#46e395" opacity="0.8"/>
    <g id="Groupe_237" data-name="Groupe 237" transform="translate(93.155 73.869)" opacity="0.3">
      <rect id="Rectangle_396" data-name="Rectangle 396" width="334.722" height="188.836" transform="translate(0)" fill="none" stroke="#3f3d56" stroke-miterlimit="10" stroke-width="1"/>
      <rect id="Rectangle_397" data-name="Rectangle 397" width="247.339" height="188.836" transform="translate(43.692)" fill="none" stroke="#3f3d56" stroke-miterlimit="10" stroke-width="1"/>
      <rect id="Rectangle_398" data-name="Rectangle 398" width="159.956" height="188.836" transform="translate(87.383)" fill="none" stroke="#3f3d56" stroke-miterlimit="10" stroke-width="1"/>
      <rect id="Rectangle_399" data-name="Rectangle 399" width="72.572" height="188.836" transform="translate(131.075)" fill="none" stroke="#3f3d56" stroke-miterlimit="10" stroke-width="1"/>
      <line id="Ligne_58" data-name="Ligne 58" y2="188.836" transform="translate(167.361)" fill="none" stroke="#3f3d56" stroke-miterlimit="10" stroke-width="1"/>
      <rect id="Rectangle_400" data-name="Rectangle 400" width="334.722" height="134.037" transform="translate(0 27.4)" fill="none" stroke="#3f3d56" stroke-miterlimit="10" stroke-width="1"/>
      <rect id="Rectangle_401" data-name="Rectangle 401" width="334.722" height="79.978" transform="translate(0 54.429)" fill="none" stroke="#3f3d56" stroke-miterlimit="10" stroke-width="1"/>
      <rect id="Rectangle_402" data-name="Rectangle 402" width="334.722" height="25.919" transform="translate(0 81.459)" fill="none" stroke="#3f3d56" stroke-miterlimit="10" stroke-width="1"/>
    </g>
    <rect id="Rectangle_403" data-name="Rectangle 403" width="26.382" height="9.982" transform="translate(145.407 84.391)" fill="#3f3d56" opacity="0.1"/>
    <rect id="Rectangle_404" data-name="Rectangle 404" width="19.252" height="9.269" transform="translate(104.764 110.773)" fill="#3f3d56" opacity="0.1"/>
    <rect id="Rectangle_405" data-name="Rectangle 405" width="26.382" height="9.982" transform="translate(188.189 84.391)" fill="#3f3d56" opacity="0.1"/>
    <rect id="Rectangle_406" data-name="Rectangle 406" width="26.382" height="9.982" transform="translate(228.119 84.391)" fill="#3f3d56" opacity="0.1"/>
    <rect id="Rectangle_407" data-name="Rectangle 407" width="26.382" height="9.982" transform="translate(265.196 84.391)" fill="#3f3d56" opacity="0.1"/>
    <rect id="Rectangle_408" data-name="Rectangle 408" width="26.382" height="9.982" transform="translate(306.552 84.391)" fill="#3f3d56" opacity="0.1"/>
    <rect id="Rectangle_409" data-name="Rectangle 409" width="26.382" height="9.982" transform="translate(348.621 84.391)" fill="#3f3d56" opacity="0.1"/>
    <rect id="Rectangle_410" data-name="Rectangle 410" width="26.382" height="9.982" transform="translate(393.543 84.391)" fill="#3f3d56" opacity="0.1"/>
    <rect id="Rectangle_411" data-name="Rectangle 411" width="17.08" height="16.536" transform="translate(197.578 136.611)" fill="url(#linear-gradient)"/>
    <rect id="Rectangle_412" data-name="Rectangle 412" width="16.492" height="15.966" transform="translate(197.874 136.896)" fill="#6c63ff"/>
    <rect id="Rectangle_413" data-name="Rectangle 413" width="17.08" height="16.536" transform="translate(232.768 133.027)" fill="url(#linear-gradient)"/>
    <rect id="Rectangle_414" data-name="Rectangle 414" width="16.492" height="15.966" transform="translate(233.064 133.312)" fill="#fea500"/>
    <rect id="Rectangle_417" data-name="Rectangle 417" width="17.08" height="16.536" transform="translate(150.102 107.142)" fill="url(#linear-gradient-3)"/>
    <rect id="Rectangle_418" data-name="Rectangle 418" width="16.492" height="15.966" transform="translate(150.395 107.427)" fill="#fea500"/>
    <rect id="Rectangle_419" data-name="Rectangle 419" width="17.08" height="16.536" transform="translate(184.041 130.839)" fill="url(#linear-gradient-3)"/>
    <rect id="Rectangle_420" data-name="Rectangle 420" width="16.492" height="15.966" transform="translate(184.333 131.124)" fill="#46e395"/>
    <rect id="Rectangle_421" data-name="Rectangle 421" width="17.08" height="16.536" transform="translate(320.507 189.189)" fill="url(#linear-gradient)"/>
    <rect id="Rectangle_422" data-name="Rectangle 422" width="16.492" height="15.966" transform="translate(320.803 189.474)" fill="#46e395"/>
    <rect id="Rectangle_423" data-name="Rectangle 423" width="17.08" height="16.536" transform="translate(350.498 107.36)" fill="url(#linear-gradient)"/>
    <rect id="Rectangle_424" data-name="Rectangle 424" width="16.492" height="15.966" transform="translate(350.795 107.645)" fill="#46e395"/>
    <rect id="Rectangle_425" data-name="Rectangle 425" width="17.08" height="16.536" transform="translate(348.647 159.938)" fill="url(#linear-gradient)"/>
    <rect id="Rectangle_426" data-name="Rectangle 426" width="16.492" height="15.966" transform="translate(348.943 160.223)" fill="#e6e6e6"/>
    <rect id="Rectangle_427" data-name="Rectangle 427" width="17.08" height="16.536" transform="translate(361.606 163.641)" fill="url(#linear-gradient)"/>
    <rect id="Rectangle_428" data-name="Rectangle 428" width="16.492" height="15.966" transform="translate(361.903 163.926)" fill="#46e395"/>
    <rect id="Rectangle_429" data-name="Rectangle 429" width="17.08" height="16.536" transform="translate(306.97 183.417)" fill="url(#linear-gradient-3)"/>
    <rect id="Rectangle_430" data-name="Rectangle 430" width="16.492" height="15.966" transform="translate(307.262 183.702)" fill="#6c63ff"/>
    <rect id="Rectangle_431" data-name="Rectangle 431" width="17.08" height="16.536" transform="translate(308.821 133.431)" fill="url(#linear-gradient-3)"/>
    <rect id="Rectangle_432" data-name="Rectangle 432" width="16.492" height="15.966" transform="translate(309.114 133.716)" fill="#6c63ff"/>
    <rect id="Rectangle_433" data-name="Rectangle 433" width="19.252" height="9.982" transform="translate(104.764 136.442)" fill="#3f3d56" opacity="0.1"/>
    <rect id="Rectangle_434" data-name="Rectangle 434" width="19.252" height="9.982" transform="translate(104.764 163.537)" fill="#3f3d56" opacity="0.1"/>
    <rect id="Rectangle_435" data-name="Rectangle 435" width="19.252" height="9.982" transform="translate(104.764 190.633)" fill="#3f3d56" opacity="0.1"/>
    <rect id="Rectangle_436" data-name="Rectangle 436" width="19.252" height="9.269" transform="translate(104.764 217.728)" fill="#3f3d56" opacity="0.1"/>
    <rect id="Rectangle_437" data-name="Rectangle 437" width="19.252" height="9.269" transform="translate(104.764 244.823)" fill="#3f3d56" opacity="0.1"/>
  </g>
</svg>
