<svg id="Groupe_210" data-name="Groupe 210" xmlns="http://www.w3.org/2000/svg" width="300.785" height="174.323" viewBox="0 0 300.785 174.323">
  <circle id="Ellipse_50" data-name="Ellipse 50" cx="3.269" cy="3.269" r="3.269" transform="translate(80.566 0)" fill="#e6e6e6"/>
  <circle id="Ellipse_51" data-name="Ellipse 51" cx="3.269" cy="3.269" r="3.269" transform="translate(97.111 0)" fill="#e6e6e6"/>
  <circle id="Ellipse_52" data-name="Ellipse 52" cx="3.269" cy="3.269" r="3.269" transform="translate(113.656 0)" fill="#e6e6e6"/>
  <circle id="Ellipse_53" data-name="Ellipse 53" cx="3.269" cy="3.269" r="3.269" transform="translate(130.201 0)" fill="#e6e6e6"/>
  <circle id="Ellipse_54" data-name="Ellipse 54" cx="3.269" cy="3.269" r="3.269" transform="translate(146.747 0)" fill="#e6e6e6"/>
  <circle id="Ellipse_55" data-name="Ellipse 55" cx="3.269" cy="3.269" r="3.269" transform="translate(80.566 16.753)" fill="#e6e6e6"/>
  <circle id="Ellipse_56" data-name="Ellipse 56" cx="3.269" cy="3.269" r="3.269" transform="translate(97.111 16.753)" fill="#e6e6e6"/>
  <circle id="Ellipse_57" data-name="Ellipse 57" cx="3.269" cy="3.269" r="3.269" transform="translate(113.656 16.753)" fill="#e6e6e6"/>
  <circle id="Ellipse_58" data-name="Ellipse 58" cx="3.269" cy="3.269" r="3.269" transform="translate(130.201 16.753)" fill="#46e395"/>
  <circle id="Ellipse_59" data-name="Ellipse 59" cx="3.269" cy="3.269" r="3.269" transform="translate(146.747 16.753)" fill="#e6e6e6"/>
  <circle id="Ellipse_60" data-name="Ellipse 60" cx="3.269" cy="3.269" r="3.269" transform="translate(179.837 16.753)" fill="#e6e6e6"/>
  <circle id="Ellipse_61" data-name="Ellipse 61" cx="3.269" cy="3.269" r="3.269" transform="translate(80.566 33.506)" fill="#e6e6e6"/>
  <circle id="Ellipse_62" data-name="Ellipse 62" cx="3.269" cy="3.269" r="3.269" transform="translate(97.111 33.506)" fill="#e6e6e6"/>
  <circle id="Ellipse_63" data-name="Ellipse 63" cx="3.269" cy="3.269" r="3.269" transform="translate(113.656 33.506)" fill="#e6e6e6"/>
  <circle id="Ellipse_64" data-name="Ellipse 64" cx="3.269" cy="3.269" r="3.269" transform="translate(130.201 33.506)" fill="#e6e6e6"/>
  <circle id="Ellipse_65" data-name="Ellipse 65" cx="3.269" cy="3.269" r="3.269" transform="translate(146.747 33.506)" fill="#e6e6e6"/>
  <circle id="Ellipse_66" data-name="Ellipse 66" cx="3.269" cy="3.269" r="3.269" transform="translate(80.566 50.258)" fill="#e6e6e6"/>
  <circle id="Ellipse_67" data-name="Ellipse 67" cx="3.269" cy="3.269" r="3.269" transform="translate(97.111 50.258)" fill="#e6e6e6"/>
  <circle id="Ellipse_68" data-name="Ellipse 68" cx="3.269" cy="3.269" r="3.269" transform="translate(113.656 50.258)" fill="#e6e6e6"/>
  <circle id="Ellipse_69" data-name="Ellipse 69" cx="3.269" cy="3.269" r="3.269" transform="translate(130.201 50.258)" fill="#e6e6e6"/>
  <circle id="Ellipse_70" data-name="Ellipse 70" cx="3.269" cy="3.269" r="3.269" transform="translate(146.747 50.258)" fill="#e6e6e6"/>
  <circle id="Ellipse_71" data-name="Ellipse 71" cx="3.269" cy="3.269" r="3.269" transform="translate(163.292 50.258)" fill="#e6e6e6"/>
  <circle id="Ellipse_72" data-name="Ellipse 72" cx="3.269" cy="3.269" r="3.269" transform="translate(179.837 50.258)" fill="#e6e6e6"/>
  <circle id="Ellipse_73" data-name="Ellipse 73" cx="3.269" cy="3.269" r="3.269" transform="translate(196.382 50.258)" fill="#e6e6e6"/>
  <circle id="Ellipse_74" data-name="Ellipse 74" cx="3.269" cy="3.269" r="3.269" transform="translate(212.927 50.258)" fill="#e6e6e6"/>
  <circle id="Ellipse_75" data-name="Ellipse 75" cx="3.269" cy="3.269" r="3.269" transform="translate(229.472 50.258)" fill="#e6e6e6"/>
  <circle id="Ellipse_76" data-name="Ellipse 76" cx="3.269" cy="3.269" r="3.269" transform="translate(146.747 67.011)" fill="#e6e6e6"/>
  <circle id="Ellipse_77" data-name="Ellipse 77" cx="3.269" cy="3.269" r="3.269" transform="translate(163.292 67.011)" fill="#6c63ff"/>
  <circle id="Ellipse_78" data-name="Ellipse 78" cx="3.269" cy="3.269" r="3.269" transform="translate(179.837 67.011)" fill="#e6e6e6"/>
  <circle id="Ellipse_79" data-name="Ellipse 79" cx="3.269" cy="3.269" r="3.269" transform="translate(196.382 67.011)" fill="#e6e6e6"/>
  <circle id="Ellipse_80" data-name="Ellipse 80" cx="3.269" cy="3.269" r="3.269" transform="translate(212.927 67.011)" fill="#e6e6e6"/>
  <circle id="Ellipse_81" data-name="Ellipse 81" cx="3.269" cy="3.269" r="3.269" transform="translate(229.472 67.011)" fill="#e6e6e6"/>
  <circle id="Ellipse_82" data-name="Ellipse 82" cx="3.269" cy="3.269" r="3.269" transform="translate(146.747 83.764)" fill="#e6e6e6"/>
  <circle id="Ellipse_83" data-name="Ellipse 83" cx="3.269" cy="3.269" r="3.269" transform="translate(163.292 83.764)" fill="#e6e6e6"/>
  <circle id="Ellipse_84" data-name="Ellipse 84" cx="3.269" cy="3.269" r="3.269" transform="translate(179.837 83.764)" fill="#e6e6e6"/>
  <circle id="Ellipse_85" data-name="Ellipse 85" cx="3.269" cy="3.269" r="3.269" transform="translate(196.382 83.764)" fill="#e6e6e6"/>
  <circle id="Ellipse_86" data-name="Ellipse 86" cx="3.269" cy="3.269" r="3.269" transform="translate(212.927 83.764)" fill="#6c63ff"/>
  <circle id="Ellipse_87" data-name="Ellipse 87" cx="3.269" cy="3.269" r="3.269" transform="translate(229.472 83.764)" fill="#e6e6e6"/>
  <circle id="Ellipse_88" data-name="Ellipse 88" cx="3.269" cy="3.269" r="3.269" transform="translate(146.747 100.517)" fill="#e6e6e6"/>
  <circle id="Ellipse_89" data-name="Ellipse 89" cx="3.269" cy="3.269" r="3.269" transform="translate(163.292 100.517)" fill="#e6e6e6"/>
  <circle id="Ellipse_90" data-name="Ellipse 90" cx="3.269" cy="3.269" r="3.269" transform="translate(179.837 100.517)" fill="#e6e6e6"/>
  <circle id="Ellipse_91" data-name="Ellipse 91" cx="3.269" cy="3.269" r="3.269" transform="translate(196.382 100.517)" fill="#e6e6e6"/>
  <circle id="Ellipse_92" data-name="Ellipse 92" cx="3.269" cy="3.269" r="3.269" transform="translate(212.927 100.517)" fill="#e6e6e6"/>
  <circle id="Ellipse_93" data-name="Ellipse 93" cx="3.269" cy="3.269" r="3.269" transform="translate(229.472 100.517)" fill="#e6e6e6"/>
  <circle id="Ellipse_94" data-name="Ellipse 94" cx="3.269" cy="3.269" r="3.269" transform="translate(80.566 117.269)" fill="#e6e6e6"/>
  <circle id="Ellipse_95" data-name="Ellipse 95" cx="3.269" cy="3.269" r="3.269" transform="translate(97.111 117.269)" fill="#e6e6e6"/>
  <circle id="Ellipse_96" data-name="Ellipse 96" cx="3.269" cy="3.269" r="3.269" transform="translate(113.656 117.269)" fill="#e6e6e6"/>
  <circle id="Ellipse_97" data-name="Ellipse 97" cx="3.269" cy="3.269" r="3.269" transform="translate(130.201 117.269)" fill="#e6e6e6"/>
  <circle id="Ellipse_98" data-name="Ellipse 98" cx="3.269" cy="3.269" r="3.269" transform="translate(146.747 117.269)" fill="#e6e6e6"/>
  <circle id="Ellipse_99" data-name="Ellipse 99" cx="3.269" cy="3.269" r="3.269" transform="translate(163.292 117.269)" fill="#e6e6e6"/>
  <circle id="Ellipse_100" data-name="Ellipse 100" cx="3.269" cy="3.269" r="3.269" transform="translate(179.837 117.269)" fill="#e6e6e6"/>
  <circle id="Ellipse_101" data-name="Ellipse 101" cx="3.269" cy="3.269" r="3.269" transform="translate(196.382 117.269)" fill="#e6e6e6"/>
  <circle id="Ellipse_102" data-name="Ellipse 102" cx="3.269" cy="3.269" r="3.269" transform="translate(212.927 117.269)" fill="#e6e6e6"/>
  <circle id="Ellipse_103" data-name="Ellipse 103" cx="3.269" cy="3.269" r="3.269" transform="translate(229.472 117.269)" fill="#e6e6e6"/>
  <circle id="Ellipse_104" data-name="Ellipse 104" cx="3.269" cy="3.269" r="3.269" transform="translate(80.564 134.022)" fill="#e6e6e6"/>
  <circle id="Ellipse_105" data-name="Ellipse 105" cx="3.269" cy="3.269" r="3.269" transform="translate(97.111 134.022)" fill="#e6e6e6"/>
  <circle id="Ellipse_106" data-name="Ellipse 106" cx="3.269" cy="3.269" r="3.269" transform="translate(80.564 150.774)" fill="#e6e6e6"/>
  <circle id="Ellipse_107" data-name="Ellipse 107" cx="3.269" cy="3.269" r="3.269" transform="translate(97.111 150.775)" fill="#e6e6e6"/>
  <circle id="Ellipse_108" data-name="Ellipse 108" cx="3.269" cy="3.269" r="3.269" transform="translate(130.201 150.775)" fill="#e6e6e6"/>
  <path id="Tracé_161" data-name="Tracé 161" d="M694.218,228.148H564.693a2.4,2.4,0,0,1-2.4-2.4V193.62a2.4,2.4,0,0,1,2.4-2.4H694.218a2.4,2.4,0,0,1,2.4,2.4v32.13A2.4,2.4,0,0,1,694.218,228.148ZM564.693,192.18a1.441,1.441,0,0,0-1.439,1.439v32.13a1.441,1.441,0,0,0,1.439,1.439H694.218a1.441,1.441,0,0,0,1.439-1.439V193.62a1.441,1.441,0,0,0-1.439-1.439Z" transform="translate(-395.831 -189.586)" fill="#e6e6e6"/>
  <circle id="Ellipse_109" data-name="Ellipse 109" cx="10.074" cy="10.074" r="10.074" transform="translate(175.578 10.024)" fill="#6c63ff"/>
  <path id="Tracé_162" data-name="Tracé 162" d="M648.973,215.708a1.679,1.679,0,0,0,0,3.358h44.614a1.679,1.679,0,0,0,0-3.358Z" transform="translate(-440.055 -202.326)" fill="#e6e6e6"/>
  <path id="Tracé_163" data-name="Tracé 163" d="M648.973,236.708a1.679,1.679,0,0,0,0,3.358h79.154a1.679,1.679,0,1,0,0-3.358Z" transform="translate(-440.055 -213.252)" fill="#e6e6e6"/>
  <path id="Tracé_164" data-name="Tracé 164" d="M347.218,364.148H217.693a2.4,2.4,0,0,1-2.4-2.4V329.62a2.4,2.4,0,0,1,2.4-2.4H347.218a2.4,2.4,0,0,1,2.4,2.4v32.13A2.4,2.4,0,0,1,347.218,364.148ZM217.693,328.18a1.441,1.441,0,0,0-1.439,1.439v32.13a1.441,1.441,0,0,0,1.439,1.439H347.218a1.441,1.441,0,0,0,1.439-1.439V329.62a1.441,1.441,0,0,0-1.439-1.439Z" transform="translate(-215.294 -260.344)" fill="#e6e6e6"/>
  <circle id="Ellipse_110" data-name="Ellipse 110" cx="10.074" cy="10.074" r="10.074" transform="translate(9.115 75.266)" fill="#46e395"/>
  <path id="Tracé_165" data-name="Tracé 165" d="M301.973,351.708a1.679,1.679,0,0,0,0,3.358h46.533a1.679,1.679,0,1,0,0-3.358Z" transform="translate(-259.518 -273.084)" fill="#e6e6e6"/>
  <path id="Tracé_166" data-name="Tracé 166" d="M301.973,372.708a1.679,1.679,0,0,0,0,3.358h79.154a1.679,1.679,0,1,0,0-3.358Z" transform="translate(-259.518 -284.01)" fill="#e6e6e6"/>
  <path id="Tracé_167" data-name="Tracé 167" d="M591.218,511.148H461.693a2.4,2.4,0,0,1-2.4-2.4V476.62a2.4,2.4,0,0,1,2.4-2.4H591.218a2.4,2.4,0,0,1,2.4,2.4v32.13A2.4,2.4,0,0,1,591.218,511.148ZM461.693,475.18a1.441,1.441,0,0,0-1.439,1.439v32.13a1.441,1.441,0,0,0,1.439,1.439H591.218a1.441,1.441,0,0,0,1.439-1.439V476.62a1.441,1.441,0,0,0-1.439-1.439Z" transform="translate(-342.242 -336.825)" fill="#3f3d56"/>
  <circle id="Ellipse_111" data-name="Ellipse 111" cx="10.074" cy="10.074" r="10.074" transform="translate(126.167 145.785)" fill="#6c63ff"/>
  <path id="Tracé_168" data-name="Tracé 168" d="M545.973,498.708a1.679,1.679,0,0,0,0,3.358h42.7a1.679,1.679,0,1,0,0-3.358Z" transform="translate(-386.466 -349.565)" fill="#e6e6e6"/>
  <path id="Tracé_169" data-name="Tracé 169" d="M545.973,519.708a1.679,1.679,0,1,0,0,3.358h79.154a1.679,1.679,0,1,0,0-3.358Z" transform="translate(-386.466 -360.491)" fill="#e6e6e6"/>
</svg>
