<svg xmlns="http://www.w3.org/2000/svg" width="74" height="74" viewBox="0 0 74 74">
  <g id="Groupe_254" data-name="Groupe 254" transform="translate(-1339 -199)">
    <circle id="Ellipse_42" data-name="Ellipse 42" cx="37" cy="37" r="37" transform="translate(1339 199)" fill="#fea500"/>
    <path id="Icon_awesome-user-friends" data-name="Icon awesome-user-friends" d="M12.215,16.5A7.125,7.125,0,1,0,5.09,9.375,7.122,7.122,0,0,0,12.215,16.5ZM17.1,18.536h-.528a9.838,9.838,0,0,1-8.716,0H7.329A7.331,7.331,0,0,0,0,25.865V27.7a3.055,3.055,0,0,0,3.054,3.054H21.376A3.055,3.055,0,0,0,24.43,27.7V25.865A7.331,7.331,0,0,0,17.1,18.536ZM30.537,16.5a6.107,6.107,0,1,0-6.107-6.107A6.109,6.109,0,0,0,30.537,16.5Zm3.054,2.036h-.242a8.023,8.023,0,0,1-5.624,0h-.242a7.066,7.066,0,0,0-3.544.98,9.31,9.31,0,0,1,2.526,6.349v2.443c0,.14-.032.274-.038.407H37.662a3.055,3.055,0,0,0,3.054-3.054,7.122,7.122,0,0,0-7.125-7.125Z" transform="translate(1356.284 217.999)" fill="#fff"/>
  </g>
</svg>
